SplineFontDB: 3.0
FontName: MongolTolbo
FullName: Mongol Tolbo
FamilyName: Mongol Tolbo
Weight: Book
Copyright: (c) 2014 Amarjargal Zeerd-Aduun Lkhamsuren, Batujibhug-a Batusayihan

StartChar: uni1802
Encoding: 171 6146 3
Width: 660
VWidth: 1859
GlyphClass: 2
Flags: W
HStem: 482 400
VStem: 200 260
LayerCount: 2
Fore
SplineSet
200 680 m 1
 330 882 l 1
 460 680 l 1
 330 482 l 1
 200 680 l 1
EndSplineSet
Validated: 1
EndChar

StartChar: uni1804
Encoding: 173 6148 5
Width: 620
VWidth: 1859
GlyphClass: 2
Flags: W
HStem: 297 244<220.594 401.406> 736 244<220.594 401.406>
VStem: 194 234<323.138 514.862 762.138 953.862>
LayerCount: 2
Fore
SplineSet
194 419 m 0
 194 486 246 541 311 541 c 0
 376 541 428 486 428 419 c 0
 428 352 376 297 311 297 c 0
 246 297 194 352 194 419 c 0
194 858 m 0
 194 925 246 980 311 980 c 0
 376 980 428 925 428 858 c 0
 428 791 376 736 311 736 c 0
 246 736 194 791 194 858 c 0
EndSplineSet
Validated: 1
EndChar

StartChar: uni1806
Encoding: 175 6150 7
Width: 716
VWidth: 1859
GlyphClass: 2
Flags: W
HStem: 625 113<150 566>
VStem: 150 416<625 738>
LayerCount: 2
Fore
SplineSet
566 625 m 1
 150 625 l 1
 150 738 l 1
 566 738 l 1
 566 625 l 1
EndSplineSet
Validated: 1
EndChar

StartChar: uni1808
Encoding: 177 6152 9
Width: 620
VWidth: 3500
GlyphClass: 2
Flags: W
HStem: 251 655
VStem: 105 368
LayerCount: 2
Fore
SplineSet
105 906 m 5
 201 906 l 5
 473 587 l 5
 473 571 l 5
 201 251 l 5
 105 251 l 5
 359 578 l 5
 105 906 l 5
EndSplineSet
Validated: 1
EndChar

StartChar: uni1809
Encoding: 178 6153 10
Width: 1284
VWidth: 3500
GlyphClass: 2
Flags: W
HStem: 206 655
VStem: 314 658
LayerCount: 2
Fore
SplineSet
314 861 m 5
 410 861 l 5
 682 542 l 5
 682 526 l 5
 410 206 l 5
 314 206 l 5
 568 533 l 5
 314 861 l 5
604 861 m 1
 700 861 l 1
 972 542 l 1
 972 526 l 1
 700 206 l 1
 604 206 l 1
 858 533 l 1
 604 861 l 1
EndSplineSet
Validated: 1
EndChar

StartChar: uni180A
Encoding: 179 6154 11
Width: 120
VWidth: 1859
GlyphClass: 2
Flags: W
HStem: 589 180<0 160>
VStem: 0 160<589 769>
LayerCount: 2
Fore
SplineSet
0 769 m 1
 160 769 l 5
 160 589 l 5
 0 589 l 1
 0 769 l 1
EndSplineSet
Validated: 1
EndChar

StartChar: uni180B
Encoding: 180 6155 12
Width: 1625
VWidth: 1859
GlyphClass: 2
Flags: W
HStem: 12 140<67 115 1513 1561> 12 48<115 205 298 487 580 768 860 1048 1141 1329 1421 1513> 245 187<67 115 1513 1561> 245 75<266 445 513 773 1254.99 1319.12> 281 73<944.423 1070.87> 525 188<67 115 1513 1561> 627 71<957.37 1030> 643 73<1222.42 1356.3> 806 187<67 115 1513 1561> 1032 85<966 1444> 1086 189<67 115 1513 1561> 1368 142<67 115 1513 1561> 1462 48<115 205 298 487 580 768 860 1048 1141 1329 1421 1513>
VStem: 67 138<12 58 1462 1510> 67 48<58 152 245 432 525 713 806 993 1086 1275 1368 1462> 199 67<320 631> 298 189<12 60 1462 1510> 445 68<320 589> 580 188<12 60 1462 1510> 857 67<374.427 591.269> 860 188<12 60 1462 1510> 1141 188<12 60 1462 1510> 1383 69<385.221 615.225> 1421 140<12 58 1462 1510> 1513 48<58 152 245 432 525 713 806 993 1086 1275 1368 1462>
LayerCount: 2
Fore
SplineSet
1444 1117 m 5x00c024
 1444 1032 l 1
 1104 1032 l 2
 1053 1032 1013 1033 966 1036 c 1
 975 1027 974 1018 983 1008 c 0
 992 998 1031 951 1100 866 c 1
 1032 814 l 1
 854 1044 l 1
 854 1117 l 5
 1444 1117 l 5x00c024
1561 1368 m 1x00902480
 1513 1368 l 1x00902480
 1513 1462 l 1x00882480
 1421 1462 l 1
 1421 1510 l 1x008825
 1561 1510 l 1x009025
 1561 1368 l 1x00902480
1329 1462 m 1x008824
 1141 1462 l 1
 1141 1510 l 1
 1329 1510 l 1
 1329 1462 l 1x008824
1561 1086 m 1x00a02480
 1513 1086 l 1
 1513 1275 l 1
 1561 1275 l 1
 1561 1086 l 1x00a02480
1048 1462 m 1x00882c
 860 1462 l 1
 860 1510 l 1
 1048 1510 l 1
 1048 1462 l 1x00882c
1561 806 m 1x00802480
 1513 806 l 1
 1513 993 l 1
 1561 993 l 1
 1561 806 l 1x00802480
768 1462 m 1x008824
 580 1462 l 1
 580 1510 l 1
 768 1510 l 1
 768 1462 l 1x008824
1561 525 m 1x04802480
 1513 525 l 1
 1513 713 l 1
 1561 713 l 1
 1561 525 l 1x04802480
487 1462 m 1x0088a4
 298 1462 l 1
 298 1510 l 1
 487 1510 l 1
 487 1462 l 1x0088a4
1561 245 m 1x20802480
 1513 245 l 1
 1513 432 l 1
 1561 432 l 1
 1561 245 l 1x20802480
1278 716 m 0x098036
 1381 716 1452 624 1452 504 c 0
 1452 361 1391 266 1256 259 c 1
 1250 330 l 1
 1333 339 1383 402 1383 495 c 0
 1383 497 1383 497 1383 500 c 0
 1383 580 1356 640 1286 643 c 0x098036
 1178 643 1181 438 1141 362 c 0
 1113 308 1071 281 1015 281 c 0
 923 281 857 366 857 478 c 0
 857 480 857 480 857 483 c 0
 857 607 912 693 1030 698 c 1
 1034 627 l 1x0a8036
 961 620 925 573 924 486 c 0
 924 398 953 354 1011 354 c 0
 1075 354 1085 418 1103 490 c 0
 1115 540 1123 583 1139 619 c 0
 1169 684 1215 716 1278 716 c 0x098036
205 1462 m 1x008c24
 115 1462 l 1x008a24
 115 1368 l 1
 67 1368 l 1x009224
 67 1510 l 1x009424
 205 1510 l 1
 205 1462 l 1x008c24
1561 11 m 1x80802480
 1421 12 l 1
 1421 60 l 1x408025
 1513 58 l 1
 1513 152 l 1
 1561 152 l 1
 1561 11 l 1x80802480
773 998 m 1
 199 777 l 1
 199 858 l 1
 616 1008 l 2
 649 1019 677 1030 710 1039 c 1
 679 1048 647 1059 616 1069 c 1
 199 1224 l 1
 199 1302 l 1x008124
 773 1076 l 1
 773 998 l 1
115 1086 m 1x00a224
 67 1086 l 1
 67 1275 l 1
 115 1275 l 1
 115 1086 l 1x00a224
1329 12 m 1x408024
 1141 12 l 1
 1141 60 l 1
 1329 60 l 1
 1329 12 l 1x408024
115 806 m 1x008224
 67 806 l 1
 67 993 l 1
 115 993 l 1
 115 806 l 1x008224
1048 12 m 1x40802c
 860 12 l 1
 860 60 l 1
 1048 60 l 1
 1048 12 l 1x40802c
773 245 m 1x108164
 199 245 l 1
 199 631 l 1
 266 631 l 1
 266 320 l 1
 445 320 l 1
 445 589 l 1
 513 589 l 1
 513 320 l 1
 773 320 l 1
 773 245 l 1x108164
115 525 m 1x048224
 67 525 l 1
 67 713 l 1
 115 713 l 1
 115 525 l 1x048224
768 12 m 1x408024
 580 12 l 1
 580 60 l 1
 768 60 l 1
 768 12 l 1x408024
115 245 m 1x208224
 67 245 l 1
 67 432 l 1
 115 432 l 1
 115 245 l 1x208224
487 12 m 1x4080a4
 298 12 l 1
 298 60 l 1
 487 60 l 1
 487 12 l 1x4080a4
205 12 m 1x408424
 67 12 l 1x808424
 67 152 l 1
 115 152 l 1
 115 58 l 1x808224
 205 60 l 1
 205 12 l 1x408424
EndSplineSet
Validated: 1
EndChar

StartChar: uni180C
Encoding: 181 6156 13
Width: 1625
VWidth: 1859
GlyphClass: 2
Flags: W
HStem: 12 140<67 115 1513 1561> 12 48<115 205 298 487 580 768 860 1048 1141 1329 1421 1513> 245 187<67 115 1513 1561> 245 75<266 445 513 773 1254.99 1319.12> 281 73<944.423 1070.87> 525 188<67 115 1513 1561> 627 71<957.37 1030> 643 73<1222.42 1356.3> 806 187<67 115 1513 1561> 851 73<945.709 1031.37> 1086 189<67 115 1513 1561> 1145 72<948.32 1104.37> 1368 142<67 115 1513 1561> 1462 48<115 205 298 487 580 768 860 1048 1141 1329 1421 1513>
VStem: 67 138<12 58 1462 1510> 67 48<58 152 245 432 525 713 806 993 1086 1275 1368 1462> 199 67<320 631> 298 189<12 60 1462 1510> 445 68<320 589> 580 188<12 60 1462 1510> 860 188<12 60 1462 1510> 863 60<379.266 586.5 953.54 1114.84> 1141 188<12 60 1462 1510> 1372 68<370.811 623.812 937 1217> 1421 140<12 58 1462 1510> 1513 48<58 152 245 432 525 713 806 993 1086 1275 1368 1462>
LayerCount: 2
Fore
SplineSet
1561 1368 m 1x00081240
 1513 1368 l 1x00081240
 1513 1462 l 1x00041240
 1421 1462 l 1
 1421 1510 l 1x00041280
 1561 1510 l 1x00081280
 1561 1368 l 1x00081240
1329 1462 m 1x000412
 1141 1462 l 1
 1141 1510 l 1
 1329 1510 l 1
 1329 1462 l 1x000412
1561 1086 m 1x00201240
 1513 1086 l 1
 1513 1275 l 1
 1561 1275 l 1
 1561 1086 l 1x00201240
1048 1462 m 1x00041a
 860 1462 l 1
 860 1510 l 1
 1048 1510 l 1
 1048 1462 l 1x00041a
1561 806 m 1x00801240
 1513 806 l 1
 1513 993 l 1
 1561 993 l 1
 1561 806 l 1x00801240
1023 1217 m 0x005017
 1181 1217 1261 1004 1372 937 c 1
 1372 1217 l 1
 1440 1217 l 1
 1440 838 l 1
 1437 838 l 2
 1356 838 1274 926 1229 985 c 0
 1141 1092 1072 1145 1021 1145 c 0
 962 1145 923 1096 923 1037 c 0
 923 962 961 925 1037 924 c 1
 1030 851 l 1
 919 861 863 924 863 1039 c 0
 863 1134 925 1217 1020 1217 c 0
 1022 1217 1022 1217 1023 1217 c 0x005017
768 1462 m 1x000412
 580 1462 l 1
 580 1510 l 1
 768 1510 l 1
 768 1462 l 1x000412
1561 525 m 1x04001240
 1513 525 l 1
 1513 713 l 1
 1561 713 l 1
 1561 525 l 1x04001240
487 1462 m 1x000452
 298 1462 l 1
 298 1510 l 1
 487 1510 l 1
 487 1462 l 1x000452
1561 245 m 1x20001240
 1513 245 l 1
 1513 432 l 1
 1561 432 l 1
 1561 245 l 1x20001240
1278 716 m 0x090012
 1381 716 1452 624 1452 504 c 0
 1452 361 1391 266 1256 259 c 1
 1250 330 l 1
 1333 339 1383 402 1383 495 c 0
 1383 497 1383 497 1383 500 c 0
 1383 580 1356 640 1286 643 c 0x090012
 1178 643 1181 438 1141 362 c 0
 1113 308 1071 281 1015 281 c 0
 923 281 857 366 857 478 c 0
 857 480 857 480 857 483 c 0
 857 607 912 693 1030 698 c 1
 1034 627 l 1x0a0012
 961 620 925 573 924 486 c 0
 924 398 953 354 1011 354 c 0
 1075 354 1085 418 1103 490 c 0
 1115 540 1123 583 1139 619 c 0
 1169 684 1215 716 1278 716 c 0x090012
205 1462 m 1x000612
 115 1462 l 1x000512
 115 1368 l 1
 67 1368 l 1x000912
 67 1510 l 1x000a12
 205 1510 l 1
 205 1462 l 1x000612
1561 11 m 1x80001240
 1421 12 l 1
 1421 60 l 1x40001280
 1513 58 l 1
 1513 152 l 1
 1561 152 l 1
 1561 11 l 1x80001240
773 998 m 1
 199 777 l 1
 199 858 l 1
 616 1008 l 2
 649 1019 677 1030 710 1039 c 1
 679 1048 647 1059 616 1069 c 1
 199 1224 l 1
 199 1302 l 1x000092
 773 1076 l 1
 773 998 l 1
115 1086 m 1x002112
 67 1086 l 1
 67 1275 l 1
 115 1275 l 1
 115 1086 l 1x002112
1329 12 m 1x400012
 1141 12 l 1
 1141 60 l 1
 1329 60 l 1
 1329 12 l 1x400012
115 806 m 1x008112
 67 806 l 1
 67 993 l 1
 115 993 l 1
 115 806 l 1x008112
1048 12 m 1x40001a
 860 12 l 1
 860 60 l 1
 1048 60 l 1
 1048 12 l 1x40001a
773 245 m 1x1000b2
 199 245 l 1
 199 631 l 1
 266 631 l 1
 266 320 l 1
 445 320 l 1
 445 589 l 1
 513 589 l 1
 513 320 l 1
 773 320 l 1
 773 245 l 1x1000b2
115 525 m 1x040112
 67 525 l 1
 67 713 l 1
 115 713 l 1
 115 525 l 1x040112
768 12 m 1x400012
 580 12 l 1
 580 60 l 1
 768 60 l 1
 768 12 l 1x400012
115 245 m 1x200112
 67 245 l 1
 67 432 l 1
 115 432 l 1
 115 245 l 1x200112
487 12 m 1x400052
 298 12 l 1
 298 60 l 1
 487 60 l 1
 487 12 l 1x400052
205 12 m 1x400212
 67 12 l 1x800212
 67 152 l 1
 115 152 l 1
 115 58 l 1x800112
 205 60 l 1
 205 12 l 1x400212
EndSplineSet
Validated: 1
EndChar

StartChar: uni180D
Encoding: 182 6157 14
Width: 1625
VWidth: 1859
GlyphClass: 2
Flags: W
HStem: 12 140<67 115 1513 1561> 12 48<115 205 298 487 580 768 860 1048 1141 1329 1421 1513> 245 187<67 115 1513 1561> 245 75<266 445 513 773 1254.99 1319.12> 281 73<944.423 1070.87> 525 188<67 115 1513 1561> 627 71<957.37 1030> 643 73<1222.42 1356.3> 806 187<67 115 1513 1561> 842 70<963.251 1020.21 1291.95 1359.81> 1086 189<67 115 1513 1561> 1117 74<944.208 1088.77> 1144 75<1193.73 1364.48> 1368 142<67 115 1513 1561> 1462 48<115 205 298 487 580 768 860 1048 1141 1329 1421 1513>
VStem: 67 138<12 58 1462 1510> 67 48<58 152 245 432 525 713 806 993 1086 1275 1368 1462> 199 67<320 631> 298 189<12 60 1462 1510> 445 68<320 589> 580 188<12 60 1462 1510> 857 67<374.427 591.269 951.566 1093.75> 860 188<12 60 1462 1510> 1112 54<988.141 1084.83> 1141 188<12 60 1462 1510> 1383 69<385.221 615.225> 1398 58<953.506 1100.33> 1421 140<12 58 1462 1510> 1513 48<58 152 245 432 525 713 806 993 1086 1275 1368 1462>
LayerCount: 2
Fore
SplineSet
1561 1368 m 1x00040808
 1513 1368 l 1x00040808
 1513 1462 l 1x00020808
 1421 1462 l 1
 1421 1510 l 1x00020810
 1561 1510 l 1x00040810
 1561 1368 l 1x00040808
1329 1462 m 1x00020880
 1141 1462 l 1
 1141 1510 l 1
 1329 1510 l 1
 1329 1462 l 1x00020880
1561 1086 m 1x00200808
 1513 1086 l 1
 1513 1275 l 1
 1561 1275 l 1
 1561 1086 l 1x00200808
1048 1462 m 1x00020a
 860 1462 l 1
 860 1510 l 1
 1048 1510 l 1
 1048 1462 l 1x00020a
1561 806 m 1x00800808
 1513 806 l 1
 1513 993 l 1
 1561 993 l 1
 1561 806 l 1x00800808
1275 1219 m 0x00080920
 1381 1219 1456 1132 1456 1024 c 0
 1456 921 1390 851 1294 842 c 1
 1284 912 l 1
 1359 928 1397 965 1398 1024 c 0
 1398 1091 1345 1144 1277 1144 c 0x00480920
 1213 1144 1166 1095 1166 1031 c 0
 1166 1012 1169 999 1174 981 c 1
 1111 988 l 1
 1112 991 1113 995 1112 1000 c 0
 1112 1065 1078 1117 1017 1117 c 0
 963 1117 927 1077 927 1023 c 0
 927 966 961 931 1030 920 c 1
 1018 849 l 1
 918 866 868 923 868 1021 c 0
 868 1022 868 1022 868 1023 c 0
 868 1111 924 1191 1018 1191 c 0x00100920
 1071 1191 1110 1164 1134 1111 c 1
 1151 1183 1198 1219 1275 1219 c 0x00080920
768 1462 m 1x000208
 580 1462 l 1
 580 1510 l 1
 768 1510 l 1
 768 1462 l 1x000208
1561 525 m 1x04000808
 1513 525 l 1
 1513 713 l 1
 1561 713 l 1
 1561 525 l 1x04000808
487 1462 m 1x000228
 298 1462 l 1
 298 1510 l 1
 487 1510 l 1
 487 1462 l 1x000228
1561 245 m 1x20000808
 1513 245 l 1
 1513 432 l 1
 1561 432 l 1
 1561 245 l 1x20000808
1278 716 m 0x09000cc0
 1381 716 1452 624 1452 504 c 0
 1452 361 1391 266 1256 259 c 1
 1250 330 l 1
 1333 339 1383 402 1383 495 c 0
 1383 497 1383 497 1383 500 c 0
 1383 580 1356 640 1286 643 c 0x09000cc0
 1178 643 1181 438 1141 362 c 0
 1113 308 1071 281 1015 281 c 0
 923 281 857 366 857 478 c 0
 857 480 857 480 857 483 c 0
 857 607 912 693 1030 698 c 1
 1034 627 l 1x0a000cc0
 961 620 925 573 924 486 c 0
 924 398 953 354 1011 354 c 0
 1075 354 1085 418 1103 490 c 0
 1115 540 1123 583 1139 619 c 0
 1169 684 1215 716 1278 716 c 0x09000cc0
205 1462 m 1x000308
 115 1462 l 1x000288
 115 1368 l 1
 67 1368 l 1x000488
 67 1510 l 1x000508
 205 1510 l 1
 205 1462 l 1x000308
1561 11 m 1x80000808
 1421 12 l 1
 1421 60 l 1x40000810
 1513 58 l 1
 1513 152 l 1
 1561 152 l 1
 1561 11 l 1x80000808
773 998 m 1
 199 777 l 1
 199 858 l 1
 616 1008 l 2
 649 1019 677 1030 710 1039 c 1
 679 1048 647 1059 616 1069 c 1
 199 1224 l 1
 199 1302 l 1x000048
 773 1076 l 1
 773 998 l 1
115 1086 m 1x002088
 67 1086 l 1
 67 1275 l 1
 115 1275 l 1
 115 1086 l 1x002088
1329 12 m 1x40000880
 1141 12 l 1
 1141 60 l 1
 1329 60 l 1
 1329 12 l 1x40000880
115 806 m 1x008088
 67 806 l 1
 67 993 l 1
 115 993 l 1
 115 806 l 1x008088
1048 12 m 1x40000a
 860 12 l 1
 860 60 l 1
 1048 60 l 1
 1048 12 l 1x40000a
773 245 m 1x100058
 199 245 l 1
 199 631 l 1
 266 631 l 1
 266 320 l 1
 445 320 l 1
 445 589 l 1
 513 589 l 1
 513 320 l 1
 773 320 l 1
 773 245 l 1x100058
115 525 m 1x040088
 67 525 l 1
 67 713 l 1
 115 713 l 1
 115 525 l 1x040088
768 12 m 1x400008
 580 12 l 1
 580 60 l 1
 768 60 l 1
 768 12 l 1x400008
115 245 m 1x200088
 67 245 l 1
 67 432 l 1
 115 432 l 1
 115 245 l 1x200088
487 12 m 1x400028
 298 12 l 1
 298 60 l 1
 487 60 l 1
 487 12 l 1x400028
205 12 m 1x400108
 67 12 l 1x800108
 67 152 l 1
 115 152 l 1
 115 58 l 1x800088
 205 60 l 1
 205 12 l 1x400108
EndSplineSet
Validated: 1
EndChar

StartChar: uni1810
Encoding: 184 6160 16
Width: 870
VWidth: 2233
GlyphClass: 2
Flags: W
HStem: 190 94<297.652 573.788> 979 94<297.43 574.009>
VStem: 61 122<407.851 854.909> 687 122<408.058 854.701>
LayerCount: 2
Fore
SplineSet
687 631 m 0
 687 825 620 979 436 979 c 0
 251 979 183 826 183 631 c 0
 183 437 252 284 436 284 c 0
 619 284 687 438 687 631 c 0
61 631 m 0
 61 887 187 1073 436 1073 c 0
 685 1073 809 887 809 631 c 0
 809 376 685 190 436 190 c 0
 187 190 61 376 61 631 c 0
EndSplineSet
Validated: 1
LCarets2: 1 0 
EndChar

StartChar: uni1811
Encoding: 185 6161 17
Width: 910
VWidth: 2233
GlyphClass: 2
Flags: W
HStem: 189 95<269.53 597.681> 414 92<263.724 450.613> 980 93<303.691 601.867>
VStem: 94 121<556.881 890.403> 706 121<416.026 867.106>
LayerCount: 2
Fore
SplineSet
340 506 m 0
 380 506 405 525 423 550 c 1
 491 468 l 1
 456 436 409 414 343 414 c 0
 176 414 94 566 94 731 c 0
 94 927 212 1073 459 1073 c 0
 722 1073 827 892 827 630 c 0
 827 381 707 195 467 189 c 16
 465 189 463 189 461 189 c 0
 353 189 261 216 200 260 c 1
 244 344 l 1
 305 300 356 284 467 284 c 0
 468 284 468 284 469 284 c 0
 624 284 706 432 706 630 c 0
 706 827 656 980 459 980 c 0
 275 980 215 862 215 729 c 0
 215 629 239 557 300 517 c 0
 312 509 326 506 340 506 c 0
EndSplineSet
Validated: 1
LCarets2: 1 0 
EndChar

StartChar: uni1812
Encoding: 186 6162 18
Width: 850
VWidth: 2233
GlyphClass: 2
Flags: W
HStem: 194 104<614 749> 971 100<289.997 569.944>
VStem: 60 121<434.689 852.093> 190 118<196 336.616> 669 120<469.576 865.233>
LayerCount: 2
Fore
SplineSet
430 971 m 0
 257 971 181 821 181 684 c 6
 181 646 l 6
 181 423 308 326 308 196 c 1
 190 196 l 1
 190 301 60 438 60 656 c 4
 60 678 l 4
 60 888 193 1071 430 1071 c 0
 664 1071 789 899 789 664 c 4
 789 485 720 392 614 298 c 1
 749 298 l 1
 749 194 l 1
 471 194 l 1
 471 322 l 1
 591 389 669 488 669 664 c 4
 669 841 603 971 430 971 c 0
EndSplineSet
Validated: 1
LCarets2: 1 0 
EndChar

StartChar: uni1813
Encoding: 187 6163 19
Width: 1080
VWidth: 2233
GlyphClass: 2
Flags: W
HStem: 192 21G<132 304 774 946> 971 108<246.309 418.948 660.076 833.114>
VStem: 60 129<403.515 909.297> 480 118<597 871.05> 898 120<419.96 900.704>
LayerCount: 2
Fore
SplineSet
328 1079 m 0
 450 1079 520 1010 539 872 c 1
 554 1010 624 1079 750 1079 c 0
 942 1079 1018 941 1018 667 c 0
 1018 558 982 340 910 192 c 1
 774 192 l 1
 840 340 898 559 898 670 c 0
 898 870 842 971 739 971 c 0
 645 971 598 845 598 597 c 1
 480 597 l 1
 480 845 433 971 339 971 c 0
 236 971 189 870 189 670 c 0
 189 559 238 340 304 192 c 1
 168 192 l 1
 96 340 60 558 60 667 c 0
 60 941 136 1079 328 1079 c 0
EndSplineSet
Validated: 1
LCarets2: 1 0 
EndChar

StartChar: uni1814
Encoding: 188 6164 20
Width: 870
VWidth: 2233
GlyphClass: 2
Flags: W
HStem: 184 95<282.476 579.24> 798 92<231.516 420.58> 981 97<427 545.092>
VStem: 60 123<382.298 746.879> 688 124<400.269 831.619>
LayerCount: 2
Fore
SplineSet
308 798 m 0
 294 798 280 794 269 786 c 0
 207 746 183 683 183 582 c 0
 183 398 253 279 439 279 c 0
 628 279 688 433 688 632 c 0
 688 832 596 949 427 981 c 1
 427 1078 l 1
 487 1072 541 1058 588 1034 c 0
 722 966 812 831 812 632 c 0
 812 367 695 184 439 184 c 0
 190 184 60 341 60 580 c 0
 60 746 142 890 311 890 c 0
 377 890 426 868 461 836 c 1
 393 753 l 1
 375 777 349 798 308 798 c 0
EndSplineSet
Validated: 1
LCarets2: 1 0 
EndChar

StartChar: uni1815
Encoding: 189 6165 21
Width: 800
VWidth: 2232
GlyphClass: 2
Flags: W
HStem: 183 93<55 179.562> 980 93<281.208 558.701>
VStem: 86 124<782.587 910.687> 234 118<330.319 699.156> 640 118<196 902.788>
LayerCount: 2
Fore
SplineSet
55 276 m 1
 66 276 l 0
 132 276 234 326 234 431 c 2
 234 586 l 18
 234 692 165 735 86 735 c 1
 86 907 188 1073 428 1073 c 0
 613 1073 758 979 758 795 c 2
 758 196 l 1
 640 196 l 1
 640 795 l 2
 640 905 528 980 428 980 c 0
 278 980 210 887 210 800 c 1
 291 783 352 688 352 572 c 10
 352 451 l 2
 352 306 220 183 89 183 c 0
 55 183 l 1
 55 276 l 1
EndSplineSet
Validated: 1
LCarets2: 1 0 
EndChar

StartChar: uni1816
Encoding: 190 6166 22
Width: 860
VWidth: 2233
GlyphClass: 2
Flags: W
HStem: 184 95<295.799 593.944> 788 92<477.14 648.015> 981 97<324.908 443>
VStem: 59 123<400.269 831.619> 326 123<591 758.906> 687 123<373.187 751.134>
LayerCount: 2
Fore
SplineSet
443 981 m 1
 274 949 182 832 182 632 c 0
 182 433 243 279 442 279 c 0
 634 279 687 408 687 562 c 0
 687 662 668 788 572 788 c 0
 461 788 449 698 449 588 c 1
 326 591 l 1
 326 765 397 880 569 880 c 0
 738 880 810 757 810 591 c 0
 810 371 708 184 442 184 c 0
 176 184 59 367 59 632 c 0
 59 831 148 966 282 1034 c 0
 329 1058 383 1072 443 1078 c 1
 443 981 l 1
EndSplineSet
Validated: 1
LCarets2: 1 0 
EndChar

StartChar: uni1817
Encoding: 191 6167 23
Width: 870
VWidth: 2234
GlyphClass: 2
Flags: W
HStem: 187 94<507.334 670.481> 606 100<189.764 374> 978 94<271.993 592.179>
VStem: 59 110<312.642 588.954> 374 110<301.803 606> 695 116<301.983 868.848>
LayerCount: 2
Fore
SplineSet
169 447 m 0
 169 364 193 310 252 289 c 1
 208 204 l 1
 114 239 59 322 59 452 c 0
 59 613 128 706 287 706 c 2
 484 706 l 1
 484 447 l 2
 484 346 507 281 591 281 c 0
 673 281 695 346 695 447 c 2
 695 719 l 2
 695 858 607 978 448 978 c 0
 316 978 237 939 206 839 c 1
 101 882 l 1
 152 1008 269 1072 447 1072 c 0
 679 1072 811 966 811 735 c 2
 811 451 l 2
 811 290 731 187 591 187 c 0
 448 187 374 289 374 452 c 2
 374 606 l 1
 287 606 l 2
 184 606 169 552 169 447 c 0
EndSplineSet
Validated: 1
LCarets2: 1 0 
EndChar

StartChar: uni1818
Encoding: 192 6168 24
Width: 790
VWidth: 2234
GlyphClass: 2
Flags: W
HStem: 196 103<178.803 640> 973 109<459.64 608>
VStem: 33 114<308.549 546.831>
LayerCount: 2
Fore
SplineSet
633 565 m 1
 780 293 l 1
 780 196 l 1
 197 196 l 2
 100 196 33 238 33 333 c 0
 33 342 33 353 35 364 c 0
 53 494 102 653 181 788 c 0
 277 952 435 1082 608 1082 c 1
 608 973 l 1
 482 973 346 867 265 732 c 0
 192 611 147 468 147 357 c 0
 147 336 155 318 178 309 c 0
 195 302 220 299 250 299 c 2
 640 299 l 1
 568 444 l 1
 633 565 l 1
EndSplineSet
Validated: 1
LCarets2: 1 0 
EndChar

StartChar: uni1819
Encoding: 193 6169 25
Width: 860
VWidth: 2233
GlyphClass: 2
Flags: W
HStem: 188 97<325.03 641.883> 442 92<445.054 644.637> 978 95<304.491 596.139>
VStem: 60 123<442.28 842.277> 687 123<573.646 889.617>
LayerCount: 2
Fore
SplineSet
562 534 m 0
 654 534 687 643 687 740 c 0
 687 854 628 978 442 978 c 0
 264 978 183 820 183 630 c 0
 183 429 307 285 464 285 c 0
 542 285 610 308 669 345 c 1
 714 260 l 1
 650 219 575 188 464 188 c 0
 221 188 60 379 60 630 c 0
 60 895 196 1073 442 1073 c 0
 691 1073 810 920 810 742 c 0
 810 575 728 442 559 442 c 0
 493 442 445 464 409 496 c 1
 468 569 l 1
 486 547 521 534 562 534 c 0
EndSplineSet
Validated: 1
LCarets2: 1 0 
EndChar

StartChar: uni1820
Encoding: 194 6176 26
Width: 1170
VWidth: 1859
GlyphClass: 2
Flags: W
HStem: 187 21G<696.5 817.5> 590 180<360 526.85> 852 159<103.506 227.5>
VStem: 220 140<302.661 590> 711 117<356.977 643.679> 993 191<1034.16 1303.04>
LayerCount: 2
Fore
SplineSet
158 852 m 0
 94 852 39 801 3 771 c 1
 -33 798 l 1
 7 879 60 942 133 987 c 0
 160 1003 188 1011 212 1011 c 0
 243 1011 271 996 294 957 c 0
 310 928 322 863 329 770 c 1
 598 770 l 1
 598 565 627 473 726 356 c 1
 715 396 711 436 711 473 c 0
 711 624 778 755 853 873 c 0
 946 1019 993 1088 993 1182 c 0
 993 1277 952 1353 918 1434 c 1
 952 1461 l 1
 1049 1368 1184 1328 1184 1177 c 0
 1184 1062 1116 999 1025 885 c 0
 924 758 828 614 828 445 c 0
 828 379 842 309 877 235 c 1
 775 187 l 1
 618 325 533 460 520 590 c 1
 360 590 l 1
 360 438 347 340 321 295 c 0
 316 286 301 282 275 280 c 1
 238 345 220 447 220 590 c 0
 220 739 211 823 194 840 c 0
 186 848 174 852 158 852 c 0
EndSplineSet
Validated: 1
Substitution2: "Single Substitution lookup 37-1" uni1820.fina1.A
Substitution2: "'medi' Medial Forms in Mongolian lookup 6 subtable" uni1820.medi.A
Substitution2: "'init' Initial Forms in Mongolian lookup 5 subtable" uni1820.init.A
Substitution2: "'fina' Terminal Forms in Mongolian lookup 4 subtable" uni1820.fina.A
EndChar

StartChar: uni1821
Encoding: 195 6177 27
Width: 880
VWidth: 1859
GlyphClass: 2
Flags: W
HStem: 590 180<393 770.729> 852 159<136.506 260.5>
VStem: 253 140<302.661 590> 808 72<-3.10803 541.632>
LayerCount: 2
Fore
SplineSet
393 590 m 1
 393 438 380 340 354 295 c 0
 349 286 334 282 308 280 c 1
 271 345 253 447 253 590 c 0
 253 739 244 823 227 840 c 0
 219 848 207 852 191 852 c 0
 127 852 72 801 36 771 c 1
 0 798 l 1
 40 879 93 942 166 987 c 0
 193 1003 221 1011 245 1011 c 0
 276 1011 304 996 327 957 c 0
 343 928 355 863 362 770 c 1
 700 770 l 2
 833 770 880 659 880 437 c 2
 880 77 l 2
 880 -50 845 -143 770 -195 c 0
 692 -249 628 -257 579 -346 c 1
 541 -346 l 1
 594 -89 l 1
 743 -84 808 12 808 107 c 2
 808 407 l 2
 808 508 772 590 680 590 c 2
 393 590 l 1
EndSplineSet
Validated: 1
LCarets2: 1 0 
Ligature2: "'rlig' Required Ligatures Isol" uni1820 uni180B
Substitution2: "Single Substitution lookup 37-1" uni1821.fina1.E
Substitution2: "'fina' Terminal Forms in Mongolian lookup 4 subtable" uni1821.fina.E
Substitution2: "'init' Initial Forms in Mongolian lookup 5 subtable" uni1821.init.E
Substitution2: "'medi' Medial Forms in Mongolian lookup 6 subtable" uni1821.medi.E
EndChar

StartChar: uni1822
Encoding: 196 6178 28
Width: 990
VWidth: 1859
GlyphClass: 2
Flags: W
HStem: 590 180<360 529.206> 852 159<103.506 227.5> 962 147<673.51 862.22>
VStem: 220 140<302.661 590> 524 68<542.445 590 770 840.179> 910 74<681 902.421>
LayerCount: 2
Fore
SplineSet
592 684 m 0xbc
 592 532 697 414 763 383 c 1
 739 219 l 1
 702 219 l 1
 615 314 542 414 524 590 c 1
 360 590 l 1
 360 438 347 340 321 295 c 0
 316 286 301 282 275 280 c 1
 238 345 220 447 220 590 c 0
 220 739 211 823 194 840 c 0
 186 848 174 852 158 852 c 0
 94 852 39 801 3 771 c 1
 -33 798 l 1
 7 879 60 942 133 987 c 0
 160 1003 188 1011 212 1011 c 0xdc
 243 1011 271 996 294 957 c 0
 310 928 322 863 329 770 c 1
 524 770 l 1
 543 941 621 1109 776 1109 c 0
 955 1109 984 859 984 744 c 0
 984 715 984 707 981 681 c 1
 921 666 l 1
 905 676 l 1
 905 676 911 698 910 732 c 0
 908 860 874 962 773 962 c 0
 651 962 592 801 592 684 c 0xbc
EndSplineSet
Validated: 1
Substitution2: "Single Substitution Init-1" uni1822.medi.I
Substitution2: "Single Substitution Isol-1" uni1822.fina.I
Substitution2: "'fina' Terminal Forms in Mongolian lookup 4 subtable" uni1822.fina.I
Substitution2: "'init' Initial Forms in Mongolian lookup 5 subtable" uni1822.init.I
Substitution2: "'medi' Medial Forms in Mongolian lookup 6 subtable" uni1822.medi.I
EndChar

StartChar: uni1823
Encoding: 197 6179 29
Width: 930
VWidth: 1859
GlyphClass: 2
Flags: W
HStem: 210 140<631.892 827.674> 590 180<360 530 610 850> 852 159<103.506 227.5>
VStem: 220 140<302.661 590> 530 80<376.575 590> 850 80<376.575 590>
LayerCount: 2
Fore
SplineSet
730 210 m 0
 616 210 530 280 530 420 c 2
 530 590 l 1
 360 590 l 1
 360 438 347 340 321 295 c 0
 316 286 301 282 275 280 c 1
 238 345 220 447 220 590 c 0
 220 739 211 823 194 840 c 0
 186 848 174 852 158 852 c 0
 94 852 39 801 3 771 c 1
 -33 798 l 1
 7 879 60 942 133 987 c 0
 160 1003 188 1011 212 1011 c 0
 243 1011 271 996 294 957 c 0
 310 928 322 863 329 770 c 1
 930 770 l 1
 930 420 l 2
 930 280 854 210 730 210 c 0
850 470 m 2
 850 590 l 1
 610 590 l 1
 610 470 l 2
 610 394 653 350 730 350 c 0
 809 350 850 399 850 470 c 2
EndSplineSet
Validated: 1
Substitution2: "Single Substitution Isol-1" uni1823.fina.O
Substitution2: "'fina' Terminal Forms in Mongolian lookup 4 subtable" uni1823.fina.O
Substitution2: "'init' Initial Forms in Mongolian lookup 5 subtable" uni1823.init.O
Substitution2: "'medi' Medial Forms in Mongolian lookup 6 subtable" uni1823.medi.O
EndChar

StartChar: uni1835
Encoding: 215 6197 47
Width: 511
VWidth: 1859
GlyphClass: 2
Flags: W
HStem: 589 180<99 511>
VStem: 0 511<589 769>
LayerCount: 2
Fore
SplineSet
0 769 m 1
 511 769 l 1
 511 589 l 1
 99 589 l 1
 324 263 l 1
 262 69 l 1
 237 69 l 1
 0 589 l 1
 0 769 l 1
EndSplineSet
Validated: 1
Substitution2: "Single Substitution lookup 37-1" uni1835.fina1.J
Substitution2: "'fina' Terminal Forms in Mongolian lookup 4 subtable" uni1835.fina.J
Substitution2: "'init' Initial Forms in Mongolian lookup 5 subtable" uni1835.init.J
Substitution2: "'medi' Medial Forms in Mongolian lookup 6 subtable" uni1835.medi.J
EndChar

StartChar: uni1800.alt
Encoding: 272 -1 62
Width: 810
VWidth: 1859
GlyphClass: 2
Flags: W
HStem: 491 75<442.947 658.666> 753 42<44.2019 167.69> 774 66<516.129 663.419>
VStem: 451 54<695.194 757.107> 686 71<594.344 753.6>
LayerCount: 2
Fore
SplineSet
686 670 m 4xd8
 686 738 646 774 584 774 c 4
 549 774 508 754 505 712 c 4
 504 704 492 688 470 695 c 4
 459 699 451 712 451 732 c 4
 451 786 506 840 587 840 c 4xb8
 688 840 757 781 757 666 c 4
 757 560 689 491 580 491 c 4
 479 491 402 545 327 619 c 4
 221 723 135 753 78 753 c 4
 60 753 44 757 44 771 c 4
 44 787 55 795 78 795 c 4
 129 795 212 780 334 674 c 4
 403 615 484 566 572 566 c 4
 634 566 686 608 686 670 c 4xd8
EndSplineSet
Validated: 1
EndChar

StartChar: uni1800.double
Encoding: 273 -1 63
Width: 620
VWidth: 1859
GlyphClass: 2
Flags: W
HStem: 398 54<150.893 212.805> 633 71<154.062 285.841> 766 54<150.893 212.805> 1001 71<154.062 313.922>
VStem: 68 65<463.85 608.527 831.85 976.527> 112 44<-7.90236 118.533> 341 75<390.685 606.661 756.923 974.283> 511 68<428.822 648.074 797.717 1009.04>
LayerCount: 2
Fore
SplineSet
511 905 m 4xf3
 511 961 478 1037 420 1076 c 4
 413 1082 408 1086 408 1091 c 4
 408 1094 411 1096 415 1096 c 4
 493 1096 579 995 579 909 c 4
 579 830 527 747 456 719 c 5
 524 685 579 634 579 540 c 4
 579 450 522 379 448 353 c 4
 442 351 438 349 434 349 c 4
 430 349 428 350 428 352 c 4
 428 354 430 357 432 359 c 4
 486 413 511 468 511 539 c 4
 510 606 485 678 420 715 c 5
 489 768 511 843 511 905 c 4xf3
237 633 m 4
 170 633 133 593 133 531 c 4
 133 496 154 455 196 452 c 4
 205 451 220 439 213 417 c 4
 209 406 195 398 176 398 c 4
 122 398 68 454 68 534 c 4
 68 635 127 704 242 704 c 4
 254 704 265 704 275 702 c 5
 314 758 341 821 341 888 c 4
 341 950 299 1001 237 1001 c 4
 170 1001 133 961 133 899 c 4
 133 864 154 823 196 820 c 4
 205 819 220 807 213 785 c 4
 209 774 195 766 176 766 c 4
 122 766 68 822 68 902 c 4xfb
 68 1003 127 1072 242 1072 c 4
 348 1072 416 1005 416 896 c 4
 416 814 381 747 328 685 c 5
 383 658 416 603 416 528 c 4
 416 427 362 350 288 275 c 4
 184 168 156 82 156 25 c 4
 156 7 150 -8 136 -8 c 4
 120 -8 112 3 112 25 c 4xf7
 112 76 128 159 234 281 c 4
 294 350 341 432 341 520 c 4
 341 582 299 633 237 633 c 4
EndSplineSet
Validated: 1
LCarets2: 1 0 
Ligature2: "'rlig' Required Ligatures MM LL birga" uni1800 uni180C
EndChar

StartChar: uni1820.init.A
Encoding: 275 -1 64
Width: 872
VWidth: 1859
GlyphClass: 2
Flags: W
HStem: 595 180<392 562 702 912> 857 159<135.506 259.5>
VStem: 252 140<307.661 595> 562 140<311.105 595>
LayerCount: 2
Fore
SplineSet
912 775 m 5
 912 595 l 5
 702 595 l 5
 702 438 687 338 658 297 c 4
 653 290 641 285 622 285 c 5
 582 340 562 444 562 595 c 5
 392 595 l 5
 392 443 379 345 353 300 c 4
 348 291 333 287 307 285 c 5
 270 350 252 452 252 595 c 4
 252 744 243 828 226 845 c 4
 218 853 206 857 190 857 c 4
 126 857 71 806 35 776 c 5
 -1 803 l 5
 39 884 92 947 165 992 c 4
 192 1008 220 1016 244 1016 c 4
 275 1016 303 1001 326 962 c 4
 342 933 354 868 361 775 c 5
 912 775 l 5
EndSplineSet
Validated: 1
Substitution2: "Single Substitution Init-1" uni1820.init1.A
Substitution2: "Single Substitution Init2-1" uni1820.init1.A
LCarets2: 1 0 
EndChar

StartChar: uni1820.medi1.A
Encoding: 277 -1 66
Width: 620
VWidth: 1859
GlyphClass: 2
Flags: W
HStem: 590 180<140 310 450 660>
VStem: 0 140<306.105 590> 310 140<306.105 590>
LayerCount: 2
Fore
SplineSet
660 770 m 1
 660 590 l 1
 450 590 l 1
 450 433 435 333 406 292 c 0
 401 285 389 280 370 280 c 1
 330 335 310 439 310 590 c 1
 140 590 l 1
 140 433 125 333 96 292 c 0
 91 285 79 280 60 280 c 1
 20 335 0 439 0 590 c 2
 0 770 l 1
 660 770 l 1
EndSplineSet
Validated: 1
LCarets2: 1 0 
EndChar

StartChar: uni182E.medi.M
Encoding: 300 -1 77
Width: 310
VWidth: 1859
GlyphClass: 2
Flags: W
HStem: 590 180<140 350> 949 167<60.9568 216.504>
VStem: -44 294<975.188 1114.99> 0 350<590 770> 0 140<306.105 590> 222 28<1141.39 1198>
LayerCount: 2
Fore
SplineSet
-43 1038 m 2xd0
 -44 1043 -44 1048 -44 1052 c 0xe0
 -44 1087 -22 1116 11 1116 c 2
 155 1116 l 6
 202 1116 222 1149 222 1198 c 5
 250 1198 l 5
 250 1116 l 6xc4
 250 1060 226 949 156 949 c 6
 80 949 l 2
 64 949 60 939 61 930 c 2
 86 770 l 1
 350 770 l 1
 350 590 l 1xd0
 140 590 l 1xc8
 140 433 125 333 96 292 c 0
 91 285 79 280 60 280 c 1
 20 335 0 439 0 590 c 2
 0 770 l 1
 4 770 l 1
 -43 1038 l 2xd0
EndSplineSet
Substitution2: "Single Substitution Medi2-1" uni182D.init.GM
Substitution2: "Single Substitution lookup 37-1" uni182E.fina.M
Substitution2: "Single Substitution lookup 67 subtable" uni182E.medi1.M
EndChar

StartChar: uni182E.fina.M
Encoding: 302 -1 79
Width: 650
VWidth: 1859
GlyphClass: 2
Flags: W
HStem: 187 21G<186.5 286.176> 947 175<67.7515 223.73>
VStem: 0 88<516.361 770> 221 112<352.5 670.977> 251 42<1177.22 1204.89>
LayerCount: 2
Fore
SplineSet
265 187 m 1xf0
 108 325 23 460 10 590 c 1
 0 590 l 1
 0 770 l 1
 8 770 l 1
 -51 1084 l 1
 -51 1109 -31 1122 10 1122 c 2
 134 1122 l 6
 201 1122 240 1163 251 1244 c 5
 279 1214 293 1182 293 1147 c 4
 293 1146 293 1146 293 1145 c 4xe8
 293 1010 235 947 84 947 c 0
 69 947 62 938 65 921 c 0
 73 869 85 820 88 770 c 0
 88 565 127 493 226 376 c 1
 223 411 221 443 221 473 c 0
 221 634 262 720 307 813 c 0
 350 904 397 1001 413 1182 c 1
 396 1236 379 1286 360 1337 c 1
 405 1363 l 1
 464 1266 495 1205 584 1116 c 1
 559 984 511 910 464 836 c 0
 398 733 333 630 333 370 c 0
 333 335 334 296 337 255 c 1
 265 187 l 1xf0
EndSplineSet
EndChar

StartChar: uni182E.medi.ML
Encoding: 304 -1 81
Width: 620
VWidth: 1859
GlyphClass: 2
Flags: W
HStem: 590 180<140 310 488 660> 959 167<50.9568 176.504 316.061 446.126>
VStem: -54 264<984.953 1124.99> 0 140<306.105 590> -0 77<770 865.978> 182 28<1151.39 1208> 284 28<1148.75 1207> 310 140<306.105 590>
LayerCount: 2
Fore
SplineSet
660 770 m 1xce
 660 590 l 1
 450 590 l 1
 450 433 435 333 406 292 c 0
 401 285 389 280 370 280 c 1
 330 335 310 439 310 590 c 1
 140 590 l 1
 140 433 125 333 96 292 c 0
 91 285 79 280 60 280 c 1
 20 335 0 439 0 590 c 2xd1
 -0 764 l 2xc8
 -3 767 -5 772 -6 779 c 2
 -53 1048 l 2
 -54 1053 -54 1058 -54 1062 c 0xe0
 -54 1097 -32 1126 1 1126 c 2
 115 1126 l 2
 162 1126 182 1159 182 1208 c 1
 210 1208 l 1
 210 1126 l 2
 210 1070 186 959 116 959 c 2
 70 959 l 2
 54 959 50 949 51 940 c 2
 77 775 l 2
 77 773 77 772 77 770 c 2
 404 770 l 1
 404 775 406 780 407 785 c 2
 446 942 l 2
 449 958 432 959 432 959 c 1
 389 959 l 2
 289 959 284 1073 284 1137 c 2
 284 1207 l 1
 312 1207 l 1
 312 1180 315 1126 374 1126 c 2
 472 1126 l 2
 511 1126 554 1107 554 1056 c 0
 554 1049 554 1042 552 1034 c 2
 488 770 l 1
 660 770 l 1xce
EndSplineSet
LCarets2: 1 0 
Ligature2: "'rlig' Required Ligatures MM LL birga" uni182E.medi.M uni182F.medi.L
EndChar

StartChar: uni182E.medi.MM
Encoding: 305 -1 82
Width: 620
VWidth: 1859
GlyphClass: 2
Flags: W
HStem: 590 180<140 292 450 660> 869 167<360.957 486.504> 959 167<50.9568 176.504>
VStem: -54 264<984.953 1124.99> 0 140<306.105 590> -0 77<770 865.978> 182 28<1151.39 1208> 256 264<894.005 1034.99> 292 69<770 847.005> 310 140<306.105 590> 492 28<1061.39 1118>
LayerCount: 2
Fore
SplineSet
-53 1048 m 2xc4
 -54 1053 -54 1058 -54 1062 c 0xd0
 -54 1097 -32 1126 1 1126 c 2
 115 1126 l 2
 162 1126 182 1159 182 1208 c 1
 210 1208 l 1
 210 1126 l 2
 210 1070 186 959 116 959 c 2
 70 959 l 2
 54 959 50 949 51 940 c 2
 77 775 l 2
 77 773 77 772 77 770 c 2
 292 770 l 1xa680
 257 958 l 2
 256 963 256 968 256 972 c 0xa1
 256 1007 278 1036 311 1036 c 2
 425 1036 l 2
 472 1036 492 1069 492 1118 c 1
 520 1118 l 1
 520 1036 l 2
 520 980 496 869 426 869 c 2
 380 869 l 2
 364 869 360 859 361 850 c 2xc0a0
 374 770 l 1
 660 770 l 1
 660 590 l 1
 450 590 l 1
 450 433 435 333 406 292 c 0
 401 285 389 280 370 280 c 1
 330 335 310 439 310 590 c 1
 140 590 l 1
 140 433 125 333 96 292 c 0
 91 285 79 280 60 280 c 1
 20 335 0 439 0 590 c 2xc840
 -0 764 l 2
 -3 767 -5 772 -6 779 c 2
 -53 1048 l 2xc4
EndSplineSet
LCarets2: 1 0 
Ligature2: "'rlig' Required Ligatures MM LL birga" uni182E.medi.M uni182E.medi.M
EndChar

StartChar: uni1832.medi1.T
Encoding: 312 -1 87
Width: 790
VWidth: 1859
GlyphClass: 2
Flags: W
HStem: 498 119<215.331 373.389> 590 180<76 127.12 609 830> 917 132<119.934 350.5>
VStem: 0 207<624.911 766.144> 0 76<770 864.292> 398 76<770 863.868> 469 140<306.779 590>
LayerCount: 2
Fore
SplineSet
0 770 m 1x6a
 7 920 84 1049 237 1049 c 0
 393 1049 474 937 474 770 c 1x6c
 830 770 l 1
 830 590 l 1
 609 590 l 1
 609 430 597 333 572 299 c 1
 528 280 l 1
 489 337 469 440 469 590 c 1
 416 590 l 1x62
 374 529 321 498 257 498 c 0xa2
 193 498 134 529 81 590 c 1
 0 590 l 1
 0 770 l 1x6a
398 769 m 0
 398 859 317 917 237 917 c 0
 152 917 76 860 76 770 c 1
 139 770 l 2x6c
 184 770 207 731 207 692 c 0
 207 649 249 617 282 617 c 0xb0
 371 617 398 681 398 769 c 0
EndSplineSet
Validated: 1
Substitution2: "Single Substitution lookup 37-1" uni1832.fina.T
LCarets2: 1 0 
Substitution2: "Single Substitution medi-1" uni1832.medi.T
EndChar

StartChar: uni1832.fina.T
Encoding: 313 -1 88
Width: 1049
VWidth: 1859
GlyphClass: 2
Flags: W
HStem: 498 119<215.331 373.389> 590 180<76 127.12 609 925.842> 917 132<119.934 350.5>
VStem: 0 207<624.911 766.144> 0 76<770 864.292> 398 76<770 863.868> 469 140<306.779 590> 954 96<386.973 560.267>
LayerCount: 2
Fore
SplineSet
398 769 m 0xb5
 398 859 317 917 237 917 c 0
 152 917 76 860 76 770 c 1
 139 770 l 2x6d
 184 770 207 731 207 692 c 0
 207 649 249 617 282 617 c 0
 371 617 398 681 398 769 c 0xb5
865 770 m 2
 973 770 1050 698 1050 545 c 0
 1050 469 1017 401 992 363 c 1
 933 388 l 1
 946 405 954 433 954 462 c 0
 954 522 919 590 818 590 c 2
 609 590 l 1
 609 430 597 333 572 299 c 1
 528 280 l 1
 489 337 469 440 469 590 c 1
 416 590 l 1x63
 374 529 321 498 257 498 c 0xa3
 193 498 134 529 81 590 c 1
 0 590 l 1
 0 770 l 1
 7 920 84 1049 237 1049 c 0
 393 1049 474 937 474 770 c 1
 865 770 l 2
EndSplineSet
Validated: 1
EndChar

StartChar: uni1835.medi.J
Encoding: 317 -1 90
Width: 554
VWidth: 1859
GlyphClass: 2
Flags: W
HStem: 590 180<0 300 376 594>
VStem: 23 49<132.269 180.146> 300 76<419.126 590>
LayerCount: 2
Fore
SplineSet
45 131 m 5
 30 158 23 189 23 224 c 4
 23 307 99 342 165 369 c 4
 256 406 300 415 300 535 c 6
 300 590 l 5
 0 590 l 5
 0 770 l 5
 594 770 l 5
 594 590 l 5
 376 590 l 5
 376 492 l 6
 376 379 348 306 293 272 c 4
 234 235 72 214 72 131 c 5
 45 131 l 5
EndSplineSet
Validated: 1
Substitution2: "Single Substitution lookup 37-1" uni1835.fina1.J
EndChar

StartChar: uni1835.fina.J
Encoding: 318 -1 91
Width: 790
VWidth: 1859
GlyphClass: 2
Flags: W
HStem: 590 180<0 300 376 655.842>
VStem: 23 49<132.269 180.146> 300 76<419.126 590> 684 96<386.973 560.267>
LayerCount: 2
Fore
SplineSet
45 131 m 1
 30 158 23 189 23 224 c 0
 23 307 99 342 165 369 c 0
 256 406 300 415 300 535 c 2
 300 590 l 1
 0 590 l 1
 0 770 l 1
 595 770 l 4
 703 770 780 698 780 545 c 4
 780 469 747 401 722 363 c 5
 663 388 l 5
 676 405 684 433 684 462 c 4
 684 522 649 590 548 590 c 4
 376 590 l 1
 376 492 l 2
 376 379 348 306 293 272 c 0
 234 235 72 214 72 131 c 1
 45 131 l 1
EndSplineSet
Validated: 1
Substitution2: "Single SubStitution fina-1" uni1835.fina1.J
Substitution2: "Single Substitution lookup 37-1" uni1835.fina1.J
EndChar

StartChar: uni1834.init.CH
Encoding: 319 -1 92
Width: 840
VWidth: 1859
GlyphClass: 2
Flags: W
HStem: 215 162<323.201 562> 590 180<106.274 579 641.534 880>
VStem: 249 51<126.076 173.322> 558 81<377.992 587.668>
LayerCount: 2
Fore
SplineSet
880 770 m 5
 880 590 l 5
 647 590 l 5
 641 550 639 521 639 484 c 4
 639 392 655 305 683 215 c 5
 424 215 l 6
 359 215 317 184 300 123 c 5
 277 123 l 5
 260 138 249 176 249 211 c 4
 249 298 328 377 424 377 c 6
 562 377 l 5
 559 398 558 418 558 438 c 4
 558 490 566 530 579 590 c 5
 239 590 l 6
 148 590 45 571 0 501 c 5
 0 607 108 770 191 770 c 6
 880 770 l 5
EndSplineSet
Validated: 1
LCarets2: 1 0 
EndChar

StartChar: uni183C.medi.TS
Encoding: 323 -1 93
Width: 610
VWidth: 1859
GlyphClass: 2
Flags: W
HStem: -40 72<258.47 382.496> 176 20G<224 264> 220 162<83.2007 322> 590 180<0 340 402.008 650>
VStem: 9 51<128.721 178.322> 194 52<50.9768 178.725> 318 81<384.916 587.604> 396 72<43.1387 207.563>
LayerCount: 2
Fore
SplineSet
0 590 m 1xfe
 0 770 l 1
 650 770 l 1
 650 590 l 1
 408 590 l 1
 402 548 399 527 399 487 c 0xfe
 399 358 468 243 468 125 c 0
 468 29 418 -40 324 -40 c 0
 240 -40 194 25 194 105 c 0
 194 150 218 182 230 196 c 1
 264 176 l 5
 254 160 246 140 246 113 c 4
 246 67 274 32 324 32 c 0
 375 32 396 79 396 125 c 0xfd
 396 172 372 220 321 220 c 2
 184 220 l 2
 119 220 77 189 60 128 c 1
 33 128 l 1
 17 143 9 183 9 216 c 0
 9 303 88 382 184 382 c 2
 322 382 l 1
 319 403 318 424 318 444 c 0
 318 497 326 529 340 590 c 1
 0 590 l 1xfe
EndSplineSet
Validated: 1
EndChar

StartChar: uni183C.fina.TS
Encoding: 324 -1 94
Width: 790
VWidth: 1859
GlyphClass: 2
Flags: W
HStem: -40 72<258.47 382.496> 176 20G<224 269> 220 162<83.2007 322> 590 180<0 340 402.008 665.842>
VStem: 9 51<128.721 178.322> 194 52<50.9768 178.726> 318 81<384.916 587.604> 396 72<43.1387 207.563> 694 96<386.973 560.267>
LayerCount: 2
Fore
SplineSet
408 590 m 1xfe80
 402 548 399 527 399 487 c 0xfe80
 399 358 468 243 468 125 c 0
 468 29 418 -40 324 -40 c 0
 240 -40 194 25 194 105 c 0
 194 150 218 182 230 196 c 1
 269 176 l 5
 259 160 246 142 246 113 c 4
 246 67 274 32 324 32 c 0
 375 32 396 79 396 125 c 0xfd80
 396 172 372 220 321 220 c 2
 184 220 l 2
 119 220 77 189 60 128 c 1
 33 128 l 1
 17 143 9 183 9 216 c 0
 9 303 88 382 184 382 c 2
 322 382 l 1
 319 403 318 424 318 444 c 0
 318 497 326 529 340 590 c 1
 0 590 l 1
 0 770 l 1
 605 770 l 2
 713 770 790 698 790 545 c 0
 790 469 757 401 732 363 c 1
 673 388 l 1
 686 405 694 433 694 462 c 0
 694 522 659 590 558 590 c 2
 408 590 l 1xfe80
EndSplineSet
Validated: 1
EndChar

StartChar: uni183D.init.Z
Encoding: 325 -1 95
Width: 850
VWidth: 1859
GlyphClass: 2
Flags: W
HStem: -92 140<355.276 554.676> 220 162<318.122 562> 590 180<106.274 580 642.008 890>
VStem: 259 40<98.8061 176.368> 558 81<384.49 587.604>
LayerCount: 2
Fore
SplineSet
239 590 m 6
 148 590 45 571 0 501 c 5
 0 607 108 770 191 770 c 6
 890 770 l 5
 890 590 l 5
 648 590 l 5
 642 548 639 527 639 487 c 4
 639 396 654 309 683 220 c 5
 424 220 l 6
 375 220 299 189 299 128 c 5
 327 60 420 48 471 48 c 4
 508 48 540 68 566 109 c 4
 571 116 577 120 583 120 c 4
 604 120 614 99 614 58 c 4
 614 -18 554 -92 479 -92 c 4
 420 -92 372 -70 332 -24 c 4
 262 57 259 153 259 216 c 4
 259 303 328 382 424 382 c 6
 562 382 l 5
 559 403 558 424 558 444 c 4
 558 497 566 529 580 590 c 5
 239 590 l 6
EndSplineSet
Validated: 1
LCarets2: 1 0 
EndChar

StartChar: uni183D.medi.Z
Encoding: 326 -1 96
Width: 610
VWidth: 1859
GlyphClass: 2
Flags: W
HStem: -92 140<115.276 314.676> 220 162<79.5739 322> 590 180<0 340 402.008 650>
VStem: 9 50<94.8501 182.096> 318 81<384.49 587.604>
LayerCount: 2
Fore
SplineSet
0 590 m 1
 0 770 l 1
 650 770 l 1
 650 590 l 1
 408 590 l 1
 402 548 399 527 399 487 c 0
 399 396 414 309 443 220 c 1
 184 220 l 2
 135 220 59 189 59 128 c 1
 87 60 180 48 231 48 c 0
 268 48 300 68 326 109 c 0
 331 116 337 120 343 120 c 0
 364 120 374 99 374 58 c 0
 374 -18 314 -92 239 -92 c 0
 180 -92 132 -70 92 -24 c 0
 22 57 9 153 9 216 c 0
 9 303 88 382 184 382 c 2
 322 382 l 1
 319 403 318 424 318 444 c 0
 318 497 326 529 340 590 c 1
 0 590 l 1
EndSplineSet
Validated: 1
EndChar

StartChar: uni183D.fina.Z
Encoding: 327 -1 97
Width: 810
VWidth: 1859
GlyphClass: 2
Flags: W
HStem: -92 140<115.276 314.676> 220 162<79.5739 322> 590 180<0 340 402.008 685.842>
VStem: 9 50<94.8501 182.096> 318 81<384.49 587.604> 714 96<386.973 560.267>
LayerCount: 2
Fore
SplineSet
408 590 m 1
 402 548 399 527 399 487 c 0
 399 396 414 309 443 220 c 1
 184 220 l 2
 135 220 59 189 59 128 c 1
 87 60 180 48 231 48 c 0
 268 48 300 68 326 109 c 0
 331 116 337 120 343 120 c 0
 364 120 374 99 374 58 c 0
 374 -18 314 -92 239 -92 c 0
 180 -92 132 -70 92 -24 c 0
 22 57 9 153 9 216 c 0
 9 303 88 382 184 382 c 2
 322 382 l 1
 319 403 318 424 318 444 c 0
 318 497 326 529 340 590 c 1
 0 590 l 1
 0 770 l 1
 625 770 l 2
 733 770 810 698 810 545 c 0
 810 469 777 401 752 363 c 1
 693 388 l 1
 706 405 714 433 714 462 c 0
 714 522 679 590 578 590 c 2
 408 590 l 1
EndSplineSet
Validated: 1
EndChar

StartChar: uni1822.init.I
Encoding: 329 -1 98
Width: 1031
VWidth: 1859
GlyphClass: 2
Flags: W
HStem: 590 180<400 560 659 1071> 852 159<143.506 267.5>
VStem: 260 140<302.661 590>
LayerCount: 2
Fore
SplineSet
198 852 m 4
 134 852 79 801 43 771 c 5
 7 798 l 5
 47 879 100 942 173 987 c 4
 200 1003 228 1011 252 1011 c 4
 283 1011 311 996 334 957 c 4
 350 928 362 863 369 770 c 5
 1071 770 l 5
 1071 590 l 5
 659 590 l 5
 884 264 l 5
 822 70 l 5
 797 70 l 5
 560 590 l 5
 400 590 l 5
 400 438 387 340 361 295 c 4
 356 286 341 282 315 280 c 5
 278 345 260 447 260 590 c 4
 260 739 251 823 234 840 c 4
 226 848 214 852 198 852 c 4
EndSplineSet
Validated: 1
LCarets2: 1 0 
Ligature2: "'rlig' Required Ligatures Isol" uni1822 uni180B
Substitution2: "Single SubStitution fina-1" uni1826.medi.UE
Substitution2: "Single Substitution Init2-1" uni1822.medi2.I
Substitution2: "Single Substitution Init-1" uni1822.medi.I
EndChar

StartChar: uni1822.medi2.I
Encoding: 334 -1 101
Width: 860
VWidth: 1859
GlyphClass: 2
Flags: W
HStem: 590 180<99 389 488 900>
LayerCount: 2
Fore
SplineSet
488 590 m 1
 713 264 l 1
 651 70 l 1
 626 70 l 1
 389 590 l 1
 99 590 l 1
 324 264 l 1
 262 70 l 1
 237 70 l 1
 0 590 l 1
 -10 615 l 1
 -10 770 l 1
 900 770 l 1
 900 590 l 1
 488 590 l 1
EndSplineSet
Validated: 1
Substitution2: "Single Substitution lookup 37-1" uni1822.fina.I
Substitution2: "Single Substitution medi-1" uni1822.medi.I
LCarets2: 1 0 
EndChar

StartChar: uni1822.fina.I
Encoding: 335 -1 102
Width: 500
VWidth: 1859
GlyphClass: 2
Flags: W
HStem: 198 21G<127.5 216.927> 942 146<154.182 350.591>
VStem: -6 74<501.577 828.662> 426 73<657.098 839.513>
LayerCount: 2
Fore
SplineSet
68 677 m 0
 68 525 138 400 238 362 c 1
 214 198 l 1
 178 198 l 1
 77 309 -6 425 -6 662 c 0
 -6 857 69 1088 250 1088 c 0
 408 1088 499 914 499 730 c 0
 499 718 497 686 492 674 c 1
 489 660 471 655 455 657 c 0
 439 659 426 667 426 682 c 0
 426 827 353 942 252 942 c 0
 140 942 68 794 68 677 c 0
EndSplineSet
Validated: 1
Ligature2: "Ligature Substitution dagavar-1" uni1822.init.I uni182D.fina.G
Substitution2: "Single SubStitution fina-1" uni1822.fina1.I
LCarets2: 1 0 
EndChar

StartChar: uni1822.fina1.I
Encoding: 336 -1 103
Width: 700
VWidth: 1859
GlyphClass: 2
Flags: W
HStem: 590 180<99 585.842>
VStem: 614 96<386.973 560.267>
LayerCount: 2
Fore
SplineSet
593 388 m 1
 606 405 614 433 614 462 c 0
 614 522 579 590 478 590 c 6
 99 590 l 1
 324 264 l 1
 262 70 l 1
 237 70 l 1
 0 590 l 1
 -10 615 l 1
 -10 770 l 1
 525 770 l 6
 633 770 710 698 710 545 c 0
 710 469 677 401 652 363 c 1
 593 388 l 1
EndSplineSet
Validated: 1
Substitution2: "Single SubStitution fina-1" uni1822.fina.I
LCarets2: 1 0 
EndChar

StartChar: uni1826.init.UE
Encoding: 338 -1 104
Width: 1560
VWidth: 1859
GlyphClass: 2
Flags: W
HStem: 210 140<687.732 872.34> 590 180<400 580 660 900 980 1089 1188 1600> 852 159<143.506 267.5>
VStem: 260 140<302.661 590> 580 80<384.683 590> 900 80<383.859 590>
LayerCount: 2
Fore
SplineSet
900 470 m 6
 900 590 l 5
 660 590 l 5
 660 470 l 6
 660 403 714 350 780 350 c 4
 846 350 900 403 900 470 c 6
198 852 m 4
 134 852 79 801 43 771 c 5
 7 798 l 5
 47 879 100 942 173 987 c 4
 200 1003 228 1011 252 1011 c 4
 283 1011 311 996 334 957 c 4
 350 928 362 863 369 770 c 5
 1600 770 l 5
 1600 590 l 5
 1190 590 l 5
 1188 590 l 5
 1413 264 l 5
 1351 70 l 5
 1326 70 l 5
 1089 590 l 5
 980 590 l 5
 980 405 l 6
 980 290 893 210 780 210 c 4
 677 210 580 295 580 405 c 6
 580 590 l 5
 400 590 l 5
 400 438 387 340 361 295 c 4
 356 286 341 282 315 280 c 5
 278 345 260 447 260 590 c 4
 260 739 251 823 234 840 c 4
 226 848 214 852 198 852 c 4
EndSplineSet
Validated: 1
Substitution2: "Single Substitution Init2-1" uni1826.init1.UE
Substitution2: "Single Substitution Init-1" uni1826.medi.UE
LCarets2: 1 0 
EndChar

StartChar: uni1826.medi1.UE
Encoding: 341 -1 107
Width: 1000
VWidth: 1859
GlyphClass: 2
Flags: W
HStem: 210 140<107.732 292.34> 590 180<80 320 400 529 628 1040>
VStem: 0 80<384.683 590> 320 80<383.859 590>
LayerCount: 2
Fore
SplineSet
320 470 m 2
 320 590 l 1
 80 590 l 1
 80 470 l 2
 80 403 134 350 200 350 c 0
 266 350 320 403 320 470 c 2
529 590 m 1
 400 590 l 1
 400 405 l 2
 400 290 313 210 200 210 c 0
 97 210 0 295 0 405 c 2
 0 770 l 5
 1040 770 l 5
 1040 590 l 1
 628 590 l 1
 853 264 l 1
 791 70 l 1
 766 70 l 1
 529 590 l 1
EndSplineSet
Validated: 1
Substitution2: "Single Substitution medi-1" uni1826.medi.UE
LCarets2: 1 0 
EndChar

StartChar: uni1826.medi2.UE
Encoding: 342 -1 108
Width: 1310
VWidth: 1859
GlyphClass: 2
Flags: W
HStem: 210 140<417.732 602.34> 590 180<140 310 390 630 710 839 938 1350>
VStem: 0 140<306.105 590> 310 80<384.683 590> 630 80<383.859 590>
LayerCount: 2
Fore
SplineSet
839 590 m 1
 710 590 l 1
 710 405 l 2
 710 290 623 210 510 210 c 0
 407 210 310 295 310 405 c 2
 310 590 l 1
 140 590 l 1
 140 433 125 333 96 292 c 0
 91 285 79 280 60 280 c 1
 20 335 0 439 0 590 c 2
 0 770 l 5
 1350 770 l 5
 1350 590 l 1
 938 590 l 1
 1163 264 l 1
 1101 70 l 1
 1076 70 l 1
 839 590 l 1
630 470 m 2
 630 590 l 1
 390 590 l 1
 390 470 l 2
 390 403 444 350 510 350 c 0
 576 350 630 403 630 470 c 2
EndSplineSet
Validated: 1
EndChar

StartChar: uni1826.fina1.UE
Encoding: 344 -1 110
Width: 800
VWidth: 1859
GlyphClass: 2
Flags: W
HStem: 210 140<107.732 292.34> 590 180<80 320 400 675.842>
VStem: 0 80<384.683 590> 320 80<383.859 590> 704 96<386.973 560.267>
LayerCount: 2
Fore
SplineSet
683 388 m 1
 696 405 704 433 704 462 c 0
 704 522 669 590 568 590 c 6
 400 590 l 1
 400 405 l 2
 400 290 313 210 200 210 c 0
 97 210 0 295 0 405 c 2
 0 770 l 1
 615 770 l 6
 723 770 800 698 800 545 c 0
 800 469 767 401 742 363 c 1
 683 388 l 1
320 470 m 2
 320 590 l 1
 80 590 l 1
 80 470 l 2
 80 403 134 350 200 350 c 0
 266 350 320 403 320 470 c 2
EndSplineSet
Validated: 1
Substitution2: "Single SubStitution fina-1" uni1826.fina.UE
LCarets2: 1 0 
EndChar

StartChar: uni1829.medi.NG
Encoding: 360 -1 121
Width: 740
VWidth: 1859
GlyphClass: 2
Flags: W
HStem: 590 180<140 296.607 700.036 780> 883 136<419.035 603.32>
VStem: 0 140<308.535 590> 290 73<501.609 590 770 808.724> 650 130<590.345 767.653>
LayerCount: 2
Fore
SplineSet
397 270 m 5
 355 342 303 475 290 590 c 5
 140 590 l 5
 140 433 125 334 96 293 c 4
 91 286 79 282 60 282 c 5
 20 337 0 439 0 590 c 6
 0 770 l 5
 291 770 l 5
 312 911 376 1019 514 1019 c 4
 641 1019 683 922 703 795 c 4
 706 778 714 770 728 770 c 6
 780 770 l 5
 780 590 l 5
 688 590 l 5
 667 597 654 627 650 678 c 4
 641 793 611 883 513 883 c 4
 407 883 363 769 363 645 c 4
 363 539 412 460 471 400 c 5
 424 270 l 5
 397 270 l 5
EndSplineSet
Validated: 1
Substitution2: "Single Substitution lookup 67 subtable" uni1829.medi1.NG
EndChar

StartChar: uni182F.medi.L
Encoding: 371 -1 122
Width: 310
VWidth: 1859
GlyphClass: 2
Flags: W
HStem: 590 180<140 350> 959 167<-51.4275 86.1261>
VStem: -84 28<1148.75 1207> 0 350<590 770> 0 140<306.105 590>
LayerCount: 2
Fore
SplineSet
86 942 m 2xf0
 89 958 72 959 72 959 c 1
 19 959 l 6
 -81 959 -84 1073 -84 1137 c 6
 -84 1207 l 5
 -56 1207 l 5
 -56 1180 -53 1126 6 1126 c 6
 114 1126 l 2
 153 1126 196 1107 196 1056 c 0
 196 1049 196 1042 194 1034 c 2
 128 770 l 1
 350 770 l 1
 350 590 l 1xf0
 140 590 l 1xe8
 140 433 125 333 96 292 c 0
 91 285 79 280 60 280 c 1
 20 335 0 439 0 590 c 2
 0 770 l 1
 44 770 l 1
 44 775 46 780 47 785 c 2
 86 942 l 2xf0
EndSplineSet
Substitution2: "Single Substitution Medi2-1" uni182D.init.GL
Substitution2: "Single Substitution lookup 37-1" uni182F.fina.L
Substitution2: "Single Substitution lookup 67 subtable" uni182F.medi1.L
EndChar

StartChar: uni182F.fina5.L
Encoding: 374 -1 124
Width: 490
VWidth: 1859
GlyphClass: 2
Flags: W
HStem: 1060 176<-757.409 372>
VStem: -830 25<1311.33 1355> 0 87<590 770> 210 117<423.265 833.188>
LayerCount: 2
Fore
SplineSet
452 1236 m 6
 492 1236 520 1206 520 1164 c 4
 520 1132 506 1097 478 1054 c 4
 380 902 327 770 327 594 c 4
 327 496 345 415 398 322 c 5
 303 240 l 5
 104 331 18 491 3 590 c 5
 0 590 l 5
 0 770 l 5
 87 770 l 5
 87 577 146 491 232 420 c 5
 213 494 210 526 210 594 c 4
 210 762 273 909 372 1060 c 5
 -612 1060 l 6
 -693 1060 -748 1082 -776 1126 c 4
 -806 1171 -830 1247 -830 1355 c 5
 -805 1355 l 5
 -805 1280 -725 1236 -648 1236 c 4
 452 1236 l 6
EndSplineSet
Validated: 1
Ligature2: "'dlig' Discretionary Ligatures lookup 42-1" uni182F.fina.L
Ligature2: "Ligature Substitution dagavar-1" uni182F.fina.L uni180D
LCarets2: 1 0 
Ligature2: "'rlig' Required Ligatures Fina" uni182F.fina.L uni180D
EndChar

StartChar: uni1833.medi.D
Encoding: 381 -1 126
Width: 880
VWidth: 1859
Flags: W
HStem: 210 140<107.732 292.34> 590 180<80 320 400 570 710 920>
VStem: 0 80<384.683 590> 320 80<383.859 590> 570 140<306.105 590>
LayerCount: 2
Fore
SplineSet
920 770 m 5
 920 590 l 1
 710 590 l 1
 710 433 695 333 666 292 c 0
 661 285 649 280 630 280 c 1
 590 335 570 439 570 590 c 1
 400 590 l 1
 400 405 l 2
 400 290 313 210 200 210 c 0
 97 210 0 295 0 405 c 2
 0 770 l 5
 920 770 l 5
320 470 m 2
 320 590 l 1
 80 590 l 1
 80 470 l 2
 80 403 134 350 200 350 c 0
 266 350 320 403 320 470 c 2
EndSplineSet
Validated: 1
Substitution2: "Single Substitution lookup 37-1" uni1833.fina.D
Substitution2: "Single Substitution medi-1" uni1833.medi1.D
EndChar

StartChar: uni1833.medi5.D
Encoding: 383 -1 128
Width: 750
VWidth: 1859
Flags: W
HStem: 326 112<297.837 449.851> 590 180<95 790>
VStem: 218 68<198 310.017> 504 98<81.6343 271.652>
LayerCount: 2
Fore
SplineSet
375 438 m 4
 489 438 602 319 602 207 c 4
 602 189 599 169 594 150 c 4
 579 93 542 38 483 -14 c 4
 445 -48 412 -72 385 -85 c 5
 200 10 71 235 0 590 c 5
 -10 651 l 5
 -10 770 l 29
 790 770 l 5
 790 590 l 5
 95 590 l 5
 103 476 144 363 219 251 c 5
 218 259 218 267 218 274 c 4
 218 360 278 438 375 438 c 4
504 179 m 4
 504 242 425 326 361 326 c 4
 315 326 286 281 286 231 c 4
 286 165 327 129 376 97 c 4
 402 80 425 71 443 71 c 4
 445 71 447 71 449 71 c 5
 481 104 504 132 504 179 c 4
EndSplineSet
Validated: 1
EndChar

StartChar: uni1833.fina.D
Encoding: 384 -1 129
Width: 1270
VWidth: 1859
Flags: W
HStem: 187 21G<746.5 843.636> 210 140<107.732 292.34> 590 180<80 320 400 557.515>
VStem: 0 80<384.683 590> 320 80<383.859 590> 782 120<377.713 717.702> 1040 46<1471.83 1494.17>
LayerCount: 2
Fore
SplineSet
320 470 m 2
 320 590 l 1
 80 590 l 1
 80 470 l 2
 80 403 134 350 200 350 c 0
 266 350 320 403 320 470 c 2
628 770 m 1
 628 565 687 493 786 376 c 5
 783 411 782 445 782 476 c 4
 782 716 859 852 934 986 c 4
 991 1086 1046 1184 1069 1322 c 5
 1069 1351 1062 1436 1040 1487 c 5
 1086 1510 l 5
 1142 1412 1175 1355 1264 1266 c 5
 1230 1176 1177 1106 1122 1032 c 4
 1016 890 902 735 902 398 c 4
 902 359 904 319 907 275 c 5
 825 187 l 5
 668 325 563 460 550 590 c 1
 400 590 l 1
 400 405 l 2
 400 290 313 210 200 210 c 0
 97 210 0 295 0 405 c 2
 0 770 l 1
 628 770 l 1
EndSplineSet
Substitution2: "Single SubStitution fina-1" uni1833.fina1.D
EndChar

StartChar: uni1838.fina.W
Encoding: 391 -1 134
Width: 850
VWidth: 1859
GlyphClass: 2
Flags: W
HStem: 90 137<215.571 365.338> 590 180<100 725.842>
VStem: 369 122<232.932 351.331> 754 96<386.973 560.267>
LayerCount: 2
Fore
SplineSet
665 770 m 2
 773 770 850 698 850 545 c 0
 850 469 817 401 792 363 c 1
 733 388 l 1
 746 405 754 433 754 462 c 0
 754 522 719 590 618 590 c 2
 100 590 l 1
 122 450 179 227 296 227 c 0
 333 227 369 251 369 293 c 0
 369 325 350 343 327 351 c 0
 305 359 279 369 279 401 c 0
 279 433 300 453 341 453 c 0
 417 453 491 389 491 275 c 0
 491 175 410 90 320 90 c 0
 112 90 34 381 0 590 c 0
 -5 618 -10 661 -10 661 c 1
 -10 770 l 25
 665 770 l 2
EndSplineSet
Validated: 1
Substitution2: "Single Substitution lookup 37-1" uni1838.fina1.W
Substitution2: "Single SubStitution fina-1" uni1838.fina1.W
EndChar

StartChar: uni183F.fina.ZR
Encoding: 398 -1 136
Width: 950
VWidth: 1859
GlyphClass: 2
Flags: W
HStem: 132 91<188.149 264> 590 180<72 111.509 540 815.842> 1054 89<208.657 375.178>
VStem: -11 138<595.31 768.015> 252 149<224.491 312.678> 400 140<306.105 590> 400 95<770 1039.59> 844 96<386.973 560.267>
LayerCount: 2
Fore
SplineSet
318 322 m 0xf9
 377 322 401 273 401 231 c 0xf9
 401 185 371 132 291 132 c 0
 85 132 -11 401 -11 671 c 0
 -11 864 77 1037 215 1111 c 0
 254 1132 290 1143 323 1143 c 0
 383 1143 443 1121 464 1076 c 0
 485 1031 495 959 495 860 c 2
 495 770 l 1xf3
 755 770 l 2
 863 770 940 698 940 545 c 0
 940 469 907 401 882 363 c 1
 823 388 l 1
 836 405 844 433 844 462 c 0
 844 522 809 590 708 590 c 2
 540 590 l 1
 540 433 525 333 496 292 c 0
 491 285 479 280 460 280 c 1
 420 335 400 439 400 590 c 2xf5
 400 769 l 1xf3
 399 849 l 2
 399 986 372 1054 319 1054 c 0
 254 1054 196 1007 159 963 c 0
 118 915 87 850 72 770 c 1
 103 770 l 1
 110 728 127 663 127 624 c 0
 127 604 123 590 109 590 c 2
 64 590 l 1
 80 406 130 340 191 261 c 0
 215 230 245 223 264 223 c 1
 256 231 252 243 252 256 c 0
 252 286 275 322 318 322 c 0xf9
EndSplineSet
Validated: 1
EndChar

StartChar: uni183E.init.HAA
Encoding: 399 -1 137
Width: 1220
VWidth: 1859
GlyphClass: 2
Flags: W
HStem: 590 180<400 570 920 1260> 852 159<143.506 267.5>
VStem: 260 140<302.661 590> 570 80<404.896 590> 915 125<212.729 433.236>
LayerCount: 2
Fore
SplineSet
915 302 m 0
 915 303 915 305 915 306 c 0
 915 429 827 454 818 596 c 1
 818 770 l 1
 1260 770 l 1
 1260 590 l 1
 920 590 l 1
 924 487 1039 433 1040 308 c 0
 1040 307 l 0
 1040 167 838 44 838 44 c 1
 693 176 570 330 570 589 c 2
 570 590 l 1
 400 590 l 1
 400 438 387 340 361 295 c 0
 356 286 341 282 315 280 c 1
 278 345 260 447 260 590 c 0
 260 739 251 823 234 840 c 0
 226 848 214 852 198 852 c 0
 134 852 79 801 43 771 c 1
 7 798 l 1
 47 879 100 942 173 987 c 0
 200 1003 228 1011 252 1011 c 0
 283 1011 311 996 334 957 c 0
 350 928 362 863 369 770 c 1
 650 770 l 1
 650 590 l 2
 650 452 735 256 834 178 c 1
 834 178 914 234 915 302 c 0
EndSplineSet
Validated: 1
EndChar

StartChar: uni183E.medi.HAA
Encoding: 400 -1 138
Width: 650
VWidth: 1859
GlyphClass: 2
Flags: W
HStem: 590 180<350 690>
VStem: 0 80<404.896 770> 248 102<488.888 590> 355 125<222.034 437.961>
LayerCount: 2
Fore
SplineSet
355 312 m 0
 355 374 331 409 306 446 c 0
 280 484 253 523 248 596 c 1
 248 770 l 1
 690 770 l 1
 690 590 l 1
 350 590 l 1
 352 541 381 505 412 468 c 0
 445 427 480 384 480 318 c 0
 480 178 268 44 268 44 c 1
 123 176 0 330 0 589 c 2
 0 770 l 1
 80 770 l 1
 80 590 l 2
 80 452 165 256 264 178 c 1
 264 178 355 244 355 312 c 0
EndSplineSet
Validated: 1
EndChar

StartChar: uni183E.fina.HAA
Encoding: 401 -1 139
Width: 880
VWidth: 1859
GlyphClass: 2
Flags: W
HStem: 590 180<350 755.842>
VStem: 0 80<404.896 770> 248 102<488.888 590> 355 125<222.034 437.961> 784 96<386.973 560.267>
LayerCount: 2
Fore
SplineSet
695 770 m 2
 803 770 880 698 880 545 c 0
 880 469 847 401 822 363 c 1
 763 388 l 1
 776 405 784 433 784 462 c 0
 784 522 749 590 648 590 c 2
 350 590 l 1
 352 541 381 505 412 468 c 0
 445 427 480 384 480 318 c 0
 480 178 268 44 268 44 c 1
 123 176 0 330 0 589 c 2
 0 770 l 1
 80 770 l 1
 80 590 l 2
 80 452 165 256 264 178 c 1
 264 178 355 244 355 312 c 0
 355 374 331 409 306 446 c 0
 280 484 253 523 248 596 c 1
 248 770 l 1
 695 770 l 2
EndSplineSet
Validated: 1
EndChar

StartChar: uni1842.medi.CHI
Encoding: 403 -1 141
Width: 1130
VWidth: 1859
GlyphClass: 2
Flags: W
HStem: 210 140<107.732 292.34 667.732 852.34> 590 180<80 320 400 560 640 880 960 1170>
VStem: 0 80<384.683 590> 320 80<383.859 590> 560 80<384.683 590> 880 80<383.859 590>
LayerCount: 2
Fore
SplineSet
880 470 m 2
 880 590 l 1
 640 590 l 1
 640 470 l 2
 640 403 694 350 760 350 c 0
 826 350 880 403 880 470 c 2
320 470 m 2
 320 590 l 1
 80 590 l 1
 80 470 l 2
 80 403 134 350 200 350 c 0
 266 350 320 403 320 470 c 2
560 590 m 1
 400 590 l 1
 400 405 l 2
 400 290 313 210 200 210 c 0
 97 210 0 295 0 405 c 2
 0 770 l 5
 1170 770 l 5
 1170 590 l 1
 960 590 l 1
 960 405 l 2
 960 290 873 210 760 210 c 0
 657 210 560 295 560 405 c 2
 560 590 l 1
EndSplineSet
Validated: 1
EndChar

StartChar: uni2048
Encoding: 233 8264 142
Width: 1520
VWidth: 1557
Flags: W
HStem: 492 260<1219.77 1360.23> 555 114<793.705 1017.4> 746 164<440.467 673.991>
VStem: 300 100<446.021 700.315> 1150 280<557.342 684.616>
LayerCount: 2
Fore
SplineSet
1150 620 m 0x98
 1150 653 1257 752 1290 752 c 0
 1323 752 1430 653 1430 620 c 0
 1430 588 1322 492 1290 492 c 0
 1258 492 1150 588 1150 620 c 0x98
400 477 m 4
 400 443 375 446 350 446 c 4
 325 446 300 443 300 477 c 4
 300 659 l 4
 300 811 387 910 535 910 c 4
 800 910 675 669 929 669 c 4
 930 669 930 669 931 669 c 6
 987 669 l 4
 1012 669 1018 647 1018 616 c 4
 1018 584 1013 555 986 555 c 4
 920 555 l 6
 678 555 747 746 553 746 c 4x78
 442 746 400 664 400 589 c 4
 400 589 400 531 400 477 c 4
EndSplineSet
Validated: 1
EndChar

StartChar: uni2049
Encoding: 234 8265 143
Width: 1520
VWidth: 1557
Flags: W
HStem: 552 260<1219.77 1360.23> 582 198<316.607 921.572>
VStem: 1150 280<617.342 744.616>
LayerCount: 2
Fore
SplineSet
1150 680 m 4xa0
 1150 713 1257 812 1290 812 c 4
 1323 812 1430 713 1430 680 c 4
 1430 648 1322 552 1290 552 c 4
 1258 552 1150 648 1150 680 c 4xa0
994 645 m 8
 868 599 788 605 654 592 c 24
 346 582 l 1
 346 582 300 636 300 680 c 27
 300 725 346 780 346 780 c 1x60
 652 771 l 24
 787 757 867 760 994 713 c 16
 1006 708 1013 694 1013 679 c 0
 1013 664 1006 650 994 645 c 8
EndSplineSet
Validated: 1
EndChar

StartChar: uni182F.ever
Encoding: 456 -1 144
Width: 610
VWidth: 1859
Flags: W
HStem: 1249 175<328.572 456.126>
VStem: 296 28<1446.75 1505>
LayerCount: 2
Fore
SplineSet
456 1232 m 0
 459 1248 442 1249 442 1249 c 0
 399 1249 l 2
 299 1249 296 1371 296 1435 c 6
 296 1505 l 5
 324 1505 l 4
 324 1478 327 1424 386 1424 c 6
 484 1424 l 4
 523 1424 566 1405 566 1354 c 4
 566 1347 566 1340 564 1332 c 4
 496 1050 l 0
 491 1030 471 1021 451 1032 c 0
 442 1037 424 1047 417 1054 c 0
 412 1059 415 1068 417 1075 c 0
 456 1232 l 0
EndSplineSet
EndChar

StartChar: uni1800.res1
Encoding: 455 -1 145
Width: 710
VWidth: 1859
Flags: W
HStem: 49 91<307.663 463.966> 340 91<307.122 463.966> 590 180<110 750>
VStem: 482 97<156.608 323.392>
LayerCount: 2
Fore
SplineSet
290 240 m 0
 290 185 333 140 386 140 c 0
 439 140 482 185 482 240 c 0
 482 295 439 340 386 340 c 0
 333 340 290 295 290 240 c 0
193.757216855 178.03077193 m 5
 0 590 l 2
 -7 613 -10 650 -10 650 c 1
 -10 770 l 1
 750 770 l 1
 750 590 l 1
 110 590 l 1
 220.184151302 351.105158681 l 1
 256.189302516 399.392190261 314.919324544 431 381 431 c 0
 490 431 579 345 579 240 c 0
 579 135 490 49 381 49 c 0
 294.486274172 49 224.571866173 100.177066668 193.757216855 178.03077193 c 5
EndSplineSet
Validated: 1
EndChar

StartChar: uni182C.hunher
Encoding: 450 -1 146
Width: 430
VWidth: 1859
Flags: W
HStem: 197 21G<70.5 174.563> 990 139<156.366 333.266>
VStem: -4 97<444.932 920.762> 390 80<592.254 917.861> 430 40<590 638.971>
LayerCount: 2
Fore
SplineSet
470 590 m 5xe8
 430 590 l 5xe8
 407 638 393 691 390 752 c 0
 385 854 352 990 250 990 c 0
 126 990 93 837 93 696 c 0
 93 548 126 434 193 354 c 24
 203 342 209 329 212 316 c 1
 167 197 l 1
 131 197 l 17
 10 357 -4 604 -4 702 c 0
 -4 932 68 1129 260 1129 c 0
 418 1129 457 974 470 770 c 9xf0
 470 590 l 5xe8
EndSplineSet
Validated: 1
EndChar

StartChar: uni300A
Encoding: 269 12298 147
Width: 1100
VWidth: 0
Flags: W
LayerCount: 2
Fore
SplineSet
312 680 m 5
 590 100 l 5
 502 100 l 5
 150 680 l 5
 498 1260 l 5
 590 1260 l 5
 312 680 l 5
662 680 m 5
 940 100 l 5
 852 100 l 5
 500 680 l 5
 848 1260 l 5
 940 1260 l 5
 662 680 l 5
EndSplineSet
Validated: 1
EndChar

StartChar: uni1800.vertical
Encoding: 271 -1 149
Width: 600
VWidth: 1859
Flags: W
VStem: 476 85<609.244 874.22>
LayerCount: 2
Fore
SplineSet
394 968 m 0
 487 926 561 861 561 748 c 0
 561 635 497 561 408 510 c 0
 401 506 378 497 373 503 c 0
 367 510 395 530 401 536 c 0
 453 589 476 671 476 743 c 0
 476 815 443 880 380 943 c 0
 379 944 344 972 349 979 c 0
 352 984 375 977 394 968 c 0
EndSplineSet
Refer: 62 -1 N 0 1 -1 0 888 176 2
Validated: 32769
LCarets2: 1 0 
Ligature2: "'rlig' Required Ligatures MM LL birga" uni1800 uni180B
EndChar

StartChar: uni1800.three
Encoding: 274 -1 150
Width: 610
VWidth: 1859
Flags: W
HStem: 206 54<130.893 192.805> 441 71<134.062 265.841> 574 54<130.893 192.805> 809 71<134.062 261.266> 950 54<130.893 192.805> 1185 71<134.062 293.922>
VStem: 48 65<271.85 416.527 639.85 784.527 1015.85 1160.53> 92 44<-199.902 -73.4665> 321 75<198.685 414.661 564.923 783.744 940.877 1158.28> 491 68<239.149 461.447 604.551 809.509 965.486 1184.4>
LayerCount: 2
Fore
SplineSet
400 884 m 1xfcc0
 470 953 491 1016 491 1076 c 0
 491 1132 458 1207 400 1246 c 0
 393 1252 381 1267 395 1267 c 0
 489 1267 559 1166 559 1080 c 0
 559 1001 517 926 436 889 c 1
 433 889 l 1
 513 851 555 783 555 712 c 0
 555 644 520 563 436 527 c 1
 510 501 559 450 559 356 c 0
 559 266 515 200 428 161 c 0
 422 159 418 157 414 157 c 0
 406 157 408 163 412 167 c 0
 466 221 491 281 491 352 c 0
 490 419 460 477 400 523 c 1
 467 586 491 647 491 708 c 0
 491 767 461 844 400 884 c 1xfcc0
217 441 m 0
 150 441 113 401 113 339 c 0
 113 304 134 263 176 260 c 0
 185 259 200 247 193 225 c 0
 189 214 175 206 156 206 c 0
 102 206 48 262 48 342 c 0
 48 443 107 512 222 512 c 0
 234 512 245 512 255 510 c 1
 294 566 321 629 321 696 c 0
 321 758 279 809 217 809 c 0
 150 809 113 769 113 707 c 0
 113 672 134 631 176 628 c 0
 185 627 200 615 193 593 c 0
 189 582 175 574 156 574 c 0
 102 574 48 630 48 710 c 0
 48 811 107 880 222 880 c 0
 232 880 241 880 250 878 c 1
 292 936 321 1002 321 1072 c 0
 321 1134 279 1185 217 1185 c 0
 150 1185 113 1145 113 1083 c 0
 113 1048 134 1007 176 1004 c 0
 185 1003 200 991 193 969 c 0
 189 958 175 950 156 950 c 0
 102 950 48 1006 48 1086 c 0xfec0
 48 1187 107 1256 222 1256 c 0
 328 1256 396 1189 396 1080 c 0
 396 995 359 928 304 864 c 1
 362 838 396 781 396 704 c 0
 396 622 361 555 308 493 c 1
 363 466 396 411 396 336 c 0
 396 235 342 158 268 83 c 0
 164 -24 136 -110 136 -167 c 0
 136 -185 130 -200 116 -200 c 0
 100 -200 92 -189 92 -167 c 0xfdc0
 92 -116 108 -33 214 89 c 0
 274 158 321 240 321 328 c 0
 321 390 279 441 217 441 c 0
EndSplineSet
Validated: 1
LCarets2: 1 0 
Ligature2: "'rlig' Required Ligatures MM LL birga" uni1800 uni180D
EndChar

StartChar: uni1821.tsats
Encoding: 452 -1 151
Width: 540
VWidth: 1859
Flags: W
HStem: 590 180<160 395.099>
VStem: 460 80<-6.60373 514.245>
LayerCount: 2
Fore
SplineSet
460 387 m 2
 460 488 397 590 285 590 c 2
 160 590 l 1
 160 770 l 1
 305 770 l 2
 458 770 540 639 540 417 c 2
 540 77 l 2
 540 -50 490 -143 415 -195 c 0
 337 -249 273 -257 224 -346 c 1
 186 -346 l 1
 239 -89 l 1
 388 -84 460 12 460 107 c 2
 460 387 l 2
EndSplineSet
Validated: 1
EndChar

StartChar: uni1800.ohor
Encoding: 451 -1 152
Width: 460
VWidth: 1859
Flags: W
HStem: 590 180<50 325.842>
VStem: 354 96<386.973 560.267>
LayerCount: 2
Fore
SplineSet
333 388 m 1
 346 405 354 433 354 462 c 0
 354 522 319 590 218 590 c 2
 50 590 l 1
 50 770 l 1
 265 770 l 2
 373 770 450 698 450 545 c 0
 450 469 417 401 392 363 c 1
 333 388 l 1
EndSplineSet
Validated: 1
EndChar

StartChar: uni1800.tolgoi
Encoding: 453 -1 153
Width: 300
VWidth: 1859
Flags: W
HStem: 590 180<89.1541 340>
VStem: -20 360<590 606>
LayerCount: 2
Fore
SplineSet
340 770 m 1
 340 590 l 1
 220 590 l 2
 129 590 25 570 -20 500 c 5
 -20 606 87 770 170 770 c 2
 340 770 l 1
EndSplineSet
Validated: 1
EndChar

StartChar: uni1800.res2
Encoding: 454 -1 154
Width: 460
VWidth: 1859
Flags: W
HStem: 590 180<50 325.842>
VStem: 354 96<386.973 560.267>
LayerCount: 2
Fore
SplineSet
333 388 m 1
 346 405 354 433 354 462 c 0
 354 522 319 590 218 590 c 2
 50 590 l 1
 50 770 l 1
 265 770 l 2
 373 770 450 698 450 545 c 0
 450 469 417 401 392 363 c 1
 333 388 l 1
EndSplineSet
Validated: 1
EndChar

StartChar: uni2116
Encoding: 237 8470 155
Width: 1430
VWidth: 1388
Flags: W
HStem: 196 21<125 218 674.986 804> 285 66<971 1281> 477 61<1032.41 1212.92> 924 64<1022.91 1216.56> 1046 20<125 252.04 710 804>
VStem: 125 93<196 922.005> 710 94<339.517 1066> 914 70<583.504 879.62> 1263 70<584.443 879.613>
LayerCount: 2
Fore
SplineSet
914 771 m 2
 914 835 932.666666667 887.333333333 970 928 c 0
 1008 968 1059.33333333 988 1124 988 c 256
 1188 988 1239 967.666666667 1277 927 c 0
 1314.33333333 887 1333 836 1333 774 c 0
 1333 773 1333 773 1333 771 c 2
 1333 694 l 2
 1333 628.666666667 1314 576.333333333 1276 537 c 0
 1238 497 1187.66666667 477 1125 477 c 0
 1059.66666667 477 1008.33333333 497.333333333 971 538 c 0
 933 578 914 630 914 694 c 2
 914 771 l 2
984 694 m 2
 984 648 995.666666667 610.666666667 1019 582 c 0
 1042.33333333 552.666666667 1077.66666667 538 1125 538 c 0
 1169 538 1203 552.666666667 1227 582 c 0
 1251 611.333333333 1263 648.666666667 1263 694 c 2
 1263 771 l 2
 1263 816.333333333 1251 853.333333333 1227 882 c 0
 1203.66666667 910 1170.33333333 924 1127 924 c 0
 1126 924 1126 924 1124 924 c 256
 1072 924 1034 909.666666667 1010 881 c 0
 992.666666667 851.666666667 984 815 984 771 c 2
 984 694 l 2
1281 285 m 1
 971 285 l 1
 971 351 l 1
 1281 351 l 1
 1281 285 l 1
EndSplineSet
Refer: 203 78 N 1 0 0 1 5 0 2
Validated: 32769
EndChar

StartChar: uni20AE
Encoding: 235 8366 156
Width: 720
VWidth: 1388
Flags: W
HStem: 196 21G<309 411> 976 90<34 309 411 686>
VStem: 309 102<196 395 570 605 780 976>
LayerCount: 2
Fore
SplineSet
411 196 m 1
 309 196 l 1
 309 395 l 1
 127 271 l 1
 78 342 l 1
 309 500 l 1
 309 605 l 1
 127 481 l 1
 78 552 l 1
 309 710 l 1
 309 976 l 1
 34 976 l 1
 34 1066 l 1
 686 1066 l 1
 686 976 l 1
 411 976 l 1
 411 780 l 1
 572 890 l 1
 621 818 l 1
 411 675 l 1
 411 570 l 1
 572 680 l 1
 621 608 l 1
 411 465 l 1
 411 196 l 1
EndSplineSet
Validated: 1
EndChar

StartChar: uni201D
Encoding: 231 8221 157
Width: 371
VWidth: 1006
Flags: W
HStem: 821 245<103 112 238 247>
VStem: 103 67<973 1066> 238 67<973 1066>
LayerCount: 2
Fore
SplineSet
170 973 m 5
 112 821 l 5
 66 821 l 5
 103 973 l 5
 103 1066 l 5
 170 1066 l 5
 170 973 l 5
305 973 m 5
 247 821 l 5
 201 821 l 5
 238 973 l 5
 238 1066 l 5
 305 1066 l 5
 305 973 l 5
EndSplineSet
Validated: 1
EndChar

StartChar: uni1800.res3
Encoding: 457 -1 158
Width: 460
VWidth: 1859
Flags: W
HStem: 590 180<50 324.25>
VStem: 378 77<364.841 528.597>
LayerCount: 2
Fore
SplineSet
378 345 m 1
 378 518 337 590 173 590 c 2
 50 590 l 1
 50 770 l 1
 264 770 l 2
 392 770 455 668 455 535 c 0
 455 459 445 402 426 363 c 1
 378 345 l 1
EndSplineSet
Validated: 1
EndChar

StartChar: exclam
Encoding: 1 33 159
Width: 324
VWidth: 1278
GlyphClass: 2
Flags: W
HStem: 179 161<111.143 214.403> 1046 20G<101 224>
VStem: 90 144<200.66 318.339 850.96 1066> 132 62<436 727.345>
LayerCount: 2
Fore
SplineSet
194 436 m 1xd0
 132 436 l 1
 101 1066 l 1
 224 1066 l 1
 194 436 l 1xd0
90 259 m 0xe0
 90 313 114 340 162 340 c 0
 185.333333333 340 203.166666667 333 215.5 319 c 0
 227.833333333 305 234 285 234 259 c 0
 234 233.666666667 227.666666667 214 215 200 c 0
 202.333333333 186 184.666666667 179 162 179 c 0
 141.333333333 179 124.166666667 185.333333333 110.5 198 c 0
 96.8333333333 210.666666667 90 231 90 259 c 0xe0
EndSplineSet
Validated: 1
EndChar

StartChar: quotedbl
Encoding: 2 34 160
Width: 490
VWidth: 1278
GlyphClass: 2
Flags: W
HStem: 752 314<105 167 323 385>
VStem: 105 62<752 932.06> 323 62<752 932.06>
LayerCount: 2
Fore
SplineSet
191 1066 m 5
 167 752 l 5
 105 752 l 5
 80 1066 l 5
 191 1066 l 5
410 1066 m 1
 385 752 l 1
 323 752 l 1
 298 1066 l 1
 410 1066 l 1
EndSplineSet
Validated: 1
EndChar

StartChar: numbersign
Encoding: 3 35 161
Width: 787
VWidth: 1278
GlyphClass: 2
Flags: W
HStem: 196 21G<139 222.906 399 483.906> 452 76<31 186 282 449 544 713> 731 75<76 241 337 502 598 756> 1046 20G<299.308 386 565.077 649>
LayerCount: 2
Fore
SplineSet
584 731 m 5
 544 528 l 5
 713 528 l 5
 713 452 l 5
 530 452 l 5
 480 196 l 5
 399 196 l 5
 449 452 l 5
 269 452 l 5
 219 196 l 5
 139 196 l 5
 186 452 l 5
 31 452 l 5
 31 528 l 5
 201 528 l 5
 241 731 l 5
 76 731 l 5
 76 806 l 5
 255 806 l 5
 303 1066 l 5
 386 1066 l 5
 337 806 l 5
 518 806 l 5
 569 1066 l 5
 649 1066 l 5
 598 806 l 5
 756 806 l 5
 756 731 l 5
 584 731 l 5
282 528 m 5
 463 528 l 5
 502 731 l 5
 322 731 l 5
 282 528 l 5
EndSplineSet
Validated: 1
EndChar

StartChar: dollar
Encoding: 4 36 162
Width: 696
VWidth: 1278
GlyphClass: 2
Flags: W
HStem: 268 86<79.5352 309 386 495.821> 1101 20G<309 386>
VStem: 89 101<745.552 898.317> 309 77<125 258 346 578 701 930 1014 1121> 515 101<373.287 530.693>
LayerCount: 2
Fore
SplineSet
616 463 m 0
 616 409 595.833333333 364.5 555.5 329.5 c 0
 515.166666667 294.5 458.666666667 272.333333333 386 263 c 1
 386 125 l 1
 309 125 l 1
 309 258 l 1
 265 258 222.166666667 261.333333333 180.5 268 c 0
 138.833333333 274.666666667 104.666666667 284.333333333 78 297 c 1
 78 390 l 1
 110.666666667 375.333333333 148.666666667 363.333333333 192 354 c 0
 235.333333333 344.666666667 274.333333333 340 309 340 c 1
 309 601 l 1
 227.666666667 627 170.666666667 657.333333333 138 692 c 0
 105.333333333 725.333333333 89 769 89 823 c 0
 89 875 109.166666667 917.833333333 149.5 951.5 c 0
 189.833333333 985.166666667 243 1005.33333333 309 1012 c 1
 309 1121 l 1
 386 1121 l 1
 386 1014 l 1
 459.333333333 1012.66666667 530 998 598 970 c 1
 566 891 l 1
 507.333333333 914.333333333 447.333333333 928.333333333 386 933 c 1
 386 675 l 1
 448.666666667 655 495.333333333 635.666666667 526 617 c 0
 556.666666667 598.333333333 579.333333333 576.833333333 594 552.5 c 0
 608.666666667 528.166666667 616 498.333333333 616 463 c 0
515 455 m 0
 515 483 506.166666667 506 488.5 524 c 0
 470.833333333 542 436.666666667 560 386 578 c 1
 386 346 l 1
 472 357.333333333 515 393.666666667 515 455 c 0
190 825 m 0
 190 795 198.833333333 770.833333333 216.5 752.5 c 0
 234.166666667 734.166666667 265 717 309 701 c 1
 309 930 l 1
 269.666666667 924 240 911.833333333 220 893.5 c 0
 200 875.166666667 190 852.333333333 190 825 c 0
EndSplineSet
Validated: 1
EndChar

StartChar: percent
Encoding: 5 37 163
Width: 1003
VWidth: 1278
GlyphClass: 2
Flags: W
HStem: 184 72<697.236 826.998> 533 71<175.015 300.134> 658 72<697.765 826.944> 1008 70<174.976 300.686>
VStem: 62 82<641.562 971.19> 335 81<631.101 981.151> 586 81<293.126 621.722> 859 82<293.193 620.781>
LayerCount: 2
Fore
SplineSet
144 806 m 256
 144 738.666666667 151.333333333 688.166666667 166 654.5 c 0
 180.666666667 620.833333333 204.333333333 604 237 604 c 0
 302.333333333 604 335 671.333333333 335 806 c 0
 335 940 302.333333333 1007.33333333 237 1008 c 0
 204.333333333 1008 180.666666667 991.166666667 166 957.5 c 0
 151.333333333 923.833333333 144 873.333333333 144 806 c 256
416 806 m 0
 416 715.333333333 401 647.166666667 371 601.5 c 0
 341 555.833333333 296.333333333 533 237 533 c 0
 181.666666667 533 138.666666667 556.5 108 603.5 c 0
 77.3333333333 650.5 62 718 62 806 c 0
 62 896 76.6666666667 963.833333333 106 1009.5 c 0
 135.333333333 1055.16666667 179 1078 237 1078 c 256
 295 1078 339.333333333 1054.33333333 370 1007 c 0
 400.666666667 959.666666667 416 892.666666667 416 806 c 0
667 458 m 256
 667 390 674.333333333 339.333333333 689 306 c 0
 703.666666667 272.666666667 728 256 762 256 c 256
 795.333333333 256 819.833333333 272.5 835.5 305.5 c 0
 851.166666667 338.5 859 389.333333333 859 458 c 0
 859 526 851.166666667 576.333333333 835.5 609 c 0
 819.833333333 641.666666667 795.333333333 658 762 658 c 256
 728.666666667 658 704.5 641.666666667 689.5 609 c 0
 674.5 576.333333333 667 526 667 458 c 256
941 458 m 0
 941 368 925.833333333 299.833333333 895.5 253.5 c 0
 865.166666667 207.166666667 820.666666667 184 762 184 c 0
 706 184 662.666666667 207.666666667 632 255 c 0
 601.333333333 302.333333333 586 370 586 458 c 0
 586 548 600.833333333 615.833333333 630.5 661.5 c 0
 660.166666667 707.166666667 704 730 762 730 c 0
 818 730 861.833333333 706.666666667 893.5 660 c 0
 925.166666667 613.333333333 941 546 941 458 c 0
787 1066 m 1
 304 196 l 1
 218 196 l 1
 700 1066 l 1
 787 1066 l 1
EndSplineSet
Validated: 1
EndChar

StartChar: ampersand
Encoding: 6 38 164
Width: 889
VWidth: 1278
GlyphClass: 2
Flags: W
HStem: 184 88<215.746 511.724> 998 82<274.882 452.063>
VStem: 67 103<314.119 540.961> 149 97<781.425 973.274> 478 98<791.758 974.02> 731 100<494.754 628>
LayerCount: 2
Fore
SplineSet
246 893 m 0xdc
 246 865.666666667 253.166666667 839.5 267.5 814.5 c 0
 281.833333333 789.5 306.333333333 759.666666667 341 725 c 1
 391.666666667 754.333333333 427.166666667 781.666666667 447.5 807 c 0
 467.833333333 832.333333333 478 861.666666667 478 895 c 0
 478 925.666666667 467.666666667 950.5 447 969.5 c 0
 426.333333333 988.5 399.333333333 998 366 998 c 0
 330.666666667 998 301.833333333 988.5 279.5 969.5 c 0
 257.166666667 950.5 246 925 246 893 c 0xdc
338 272 m 0
 434 272 513.333333333 302.666666667 576 364 c 1
 316 617 l 1
 272 589.666666667 241 567.166666667 223 549.5 c 0
 205 531.833333333 191.666666667 513 183 493 c 0
 174.333333333 473 170 450 170 424 c 0xec
 170 377.333333333 185.333333333 340.333333333 216 313 c 0
 246.666666667 285.666666667 287.333333333 272 338 272 c 0
67 421 m 0
 67 472.333333333 80.8333333333 518 108.5 558 c 0
 136.166666667 598 185.666666667 638.333333333 257 679 c 1
 223 716.333333333 200 744.833333333 188 764.5 c 0
 176 784.166666667 166.5 804.333333333 159.5 825 c 0
 152.5 845.666666667 149 867.333333333 149 890 c 0xdc
 149 949.333333333 168.333333333 995.833333333 207 1029.5 c 0
 245.666666667 1063.16666667 300 1080 370 1080 c 0
 434 1080 484.333333333 1063.5 521 1030.5 c 0
 557.666666667 997.5 576 951 576 891 c 0
 576 848.333333333 562.666666667 809.166666667 536 773.5 c 0
 509.333333333 737.833333333 464.666666667 701.666666667 402 665 c 1
 644 432 l 1
 666 456.666666667 683.666666667 485.5 697 518.5 c 0
 710.333333333 551.5 721.666666667 588 731 628 c 1
 831 628 l 1
 803.666666667 514.666666667 763 428.333333333 709 369 c 1
 887 196 l 1
 751 196 l 1
 641 302 l 1
 593.666666667 260 545.833333333 229.833333333 497.5 211.5 c 0
 449.166666667 193.166666667 395.666666667 184 337 184 c 0
 251.666666667 184 185.333333333 205 138 247 c 0
 90.6666666667 289 67 347 67 421 c 0
EndSplineSet
Validated: 1
EndChar

StartChar: quotesingle
Encoding: 7 39 165
Width: 270
VWidth: 1278
GlyphClass: 2
Flags: W
HStem: 752 314<104 166>
VStem: 104 62<752 932.06>
LayerCount: 2
Fore
SplineSet
190 1066 m 1
 166 752 l 1
 104 752 l 1
 79 1066 l 1
 190 1066 l 1
EndSplineSet
Validated: 1
EndChar

StartChar: uni0028
Encoding: 8 40 166
Width: 560
VWidth: 1278
GlyphClass: 2
Flags: W
HStem: 1046 20G<331 430>
VStem: 150 107<274.508 782.672>
LayerCount: 2
Fore
SplineSet
150 529.5 m 0
 150 635.166666667 170.5 733.833333333 211.5 825.5 c 0
 252.5 917.166666667 302 997.333333333 360 1066 c 1
 430 1066 l 1
 372.666666667 989.333333333 329.5 905.166666667 300.5 813.5 c 0
 271.5 721.833333333 257 627.5 257 530.5 c 0
 257 433.5 271.833333333 339.666666667 301.5 249 c 0
 331.166666667 158.333333333 373.333333333 75.3333333333 428 0 c 1
 360 0 l 1
 301.333333333 67.3333333333 251.666666667 146 211 236 c 0
 170.333333333 326 150 423.833333333 150 529.5 c 0
EndSplineSet
Validated: 1
EndChar

StartChar: asterisk
Encoding: 10 42 168
Width: 710
VWidth: 1278
GlyphClass: 2
Flags: W
HStem: 370 546
VStem: 70 567
LayerCount: 2
Fore
SplineSet
410 916 m 1
 385 681 l 1
 621 746 l 1
 637 639 l 1
 410 620 l 1
 558 426 l 1
 455 370 l 1
 351 586 l 1
 255 370 l 1
 151 426 l 1
 294 620 l 1
 70 639 l 1
 87 746 l 1
 320 681 l 1
 294 916 l 1
 410 916 l 1
EndSplineSet
Validated: 1
EndChar

StartChar: plus
Encoding: 11 43 169
Width: 696
VWidth: 1278
GlyphClass: 2
Flags: W
HStem: 634 83<62 306 388 634>
VStem: 306 82<381 634 717 971>
LayerCount: 2
Fore
SplineSet
388 717 m 1
 634 717 l 1
 634 634 l 1
 388 634 l 1
 388 381 l 1
 306 381 l 1
 306 634 l 1
 62 634 l 1
 62 717 l 1
 306 717 l 1
 306 971 l 1
 388 971 l 1
 388 717 l 1
EndSplineSet
Validated: 1
EndChar

StartChar: comma
Encoding: 12 44 170
Width: 298
VWidth: 1278
GlyphClass: 2
Flags: W
HStem: 39 299<92.7648 131.756>
VStem: 100 118<186.341 338>
LayerCount: 2
Fore
SplineSet
208 338 m 1
 218 324 l 1
 208 284 193.166666667 237.833333333 173.5 185.5 c 0
 153.833333333 133.166666667 133.333333333 84.3333333333 112 39 c 1
 37 39 l 1
 47.6666666667 80.3333333333 59.5 131.333333333 72.5 192 c 0
 85.5 252.666666667 94.6666666667 301.333333333 100 338 c 1
 208 338 l 1
EndSplineSet
Validated: 1
EndChar

StartChar: hyphen
Encoding: 13 45 171
Width: 400
VWidth: 1278
GlyphClass: 2
Flags: W
HStem: 633 91<50 350>
VStem: 50 300<633 724>
LayerCount: 2
Fore
SplineSet
50 633 m 5
 50 724 l 5
 350 724 l 5
 350 633 l 5
 50 633 l 5
EndSplineSet
Validated: 1
EndChar

StartChar: period
Encoding: 14 46 172
Width: 323
VWidth: 1278
GlyphClass: 2
Flags: W
HStem: 179 161<110.628 213.887>
VStem: 90 144<200.145 318.855>
LayerCount: 2
Fore
SplineSet
90 259 m 0
 90 285.666666667 96.1666666667 305.833333333 108.5 319.5 c 0
 120.833333333 333.166666667 138.333333333 340 161 340 c 0
 184.333333333 340 202.333333333 333.166666667 215 319.5 c 0
 227.666666667 305.833333333 234 285.666666667 234 259 c 0
 234 233 227.5 213.166666667 214.5 199.5 c 0
 201.5 185.833333333 183.666666667 179 161 179 c 0
 140.333333333 179 123.333333333 185.333333333 110 198 c 0
 96.6666666667 210.666666667 90 231 90 259 c 0
EndSplineSet
Validated: 1
EndChar

StartChar: slash
Encoding: 15 47 173
Width: 447
VWidth: 1278
GlyphClass: 2
Flags: W
HStem: 196 21G<12 117.471> 1046 20G<329.529 435>
VStem: 12 423
LayerCount: 2
Fore
SplineSet
435 1066 m 1
 110 196 l 1
 12 196 l 1
 337 1066 l 1
 435 1066 l 1
EndSplineSet
Validated: 1
EndChar

StartChar: zero
Encoding: 16 48 174
Width: 696
VWidth: 1278
GlyphClass: 2
Flags: W
HStem: 184 85<238.335 457.984> 994 86<237.399 458.253>
VStem: 60 101<356.389 907.476> 535 101<357.681 905.959>
LayerCount: 2
Fore
SplineSet
636 632 m 0
 636 482 612.333333333 369.833333333 565 295.5 c 0
 517.666666667 221.166666667 445.333333333 184 348 184 c 0
 254.666666667 184 183.333333333 222 134 298 c 0
 84.6666666667 374 60 485.333333333 60 632 c 0
 60 783.333333333 83.6666666667 895.833333333 131 969.5 c 0
 178.333333333 1043.16666667 250.666666667 1080 348 1080 c 0
 442.666666667 1080 514.333333333 1041.66666667 563 965 c 0
 611.666666667 888.333333333 636 777.333333333 636 632 c 0
161 632 m 256
 161 505.333333333 175.833333333 413.166666667 205.5 355.5 c 0
 235.166666667 297.833333333 282.666666667 269 348 269 c 0
 414 269 461.666666667 298.333333333 491 357 c 0
 520.333333333 415.666666667 535 507.333333333 535 632 c 256
 535 756.666666667 520.166666667 848.166666667 490.5 906.5 c 0
 460.833333333 964.833333333 413.333333333 994 348 994 c 256
 282.666666667 994 235.166666667 965.333333333 205.5 908 c 0
 175.833333333 850.666666667 161 758.666666667 161 632 c 256
EndSplineSet
Validated: 1
EndChar

StartChar: one
Encoding: 17 49 175
Width: 440
VWidth: 1278
GlyphClass: 2
Flags: W
HStem: 196 21G<259 355> 1046 20G<246.157 355>
VStem: 259 96<196 960.811>
LayerCount: 2
Fore
SplineSet
355 196 m 5
 259 196 l 5
 259 816 l 6
 259 867.333333333 260.666666667 916.333333333 264 963 c 5
 255.333333333 954.333333333 246 945.5 236 936.5 c 4
 226 927.5 178.666666667 888.666666667 94 820 c 5
 42 888 l 5
 272 1066 l 5
 355 1066 l 5
 355 196 l 5
EndSplineSet
Validated: 1
EndChar

StartChar: two
Encoding: 18 50 176
Width: 696
VWidth: 1278
GlyphClass: 2
Flags: W
HStem: 196 92<184 632> 994 84<183.783 449.783>
VStem: 493 101<695.559 953.298>
LayerCount: 2
Fore
SplineSet
632 196 m 1
 60 196 l 1
 60 281 l 1
 289 511 l 2
 359 581.666666667 405 632.166666667 427 662.5 c 0
 449 692.833333333 465.5 722.333333333 476.5 751 c 0
 487.5 779.666666667 493 810.333333333 493 843 c 0
 493 889.666666667 479 926.5 451 953.5 c 0
 423 980.5 384 994 334 994 c 0
 298 994 263.833333333 988 231.5 976 c 0
 199.166666667 964 163 942.333333333 123 911 c 1
 71 978 l 1
 151 1044.66666667 238 1078 332 1078 c 0
 413.333333333 1078 477.333333333 1057 524 1015 c 0
 570.666666667 973 594 917 594 847 c 0
 594 792.333333333 578.666666667 737.833333333 548 683.5 c 0
 517.333333333 629.166666667 459.333333333 560.666666667 374 478 c 2
 184 292 l 1
 184 288 l 1
 632 288 l 1
 632 196 l 1
EndSplineSet
Validated: 1
EndChar

StartChar: three
Encoding: 19 51 177
Width: 696
VWidth: 1278
GlyphClass: 2
Flags: W
HStem: 184 84<88.371 460.859> 603 85<189 434.63> 994 84<164.166 453.907>
VStem: 496 102<746.464 956.694> 523 103<323.713 549.643>
LayerCount: 2
Fore
SplineSet
598 862 m 0xf0
 598 806.666666667 582.5 761.166666667 551.5 725.5 c 0
 520.5 689.833333333 476.666666667 666 420 654 c 1
 420 649 l 1
 490.666666667 640.333333333 542.666666667 618 576 582 c 0
 609.333333333 546 626 499.333333333 626 442 c 0
 626 359.333333333 597.166666667 295.666666667 539.5 251 c 0
 481.833333333 206.333333333 400 184 294 184 c 0
 248 184 205.833333333 187.333333333 167.5 194 c 0
 129.166666667 200.666666667 92 213 56 231 c 1
 56 325 l 1
 93.3333333333 305.666666667 133.333333333 291.333333333 176 282 c 0
 220 272.666666667 260.666666667 268 298 268 c 0
 448 268 523 327 523 445 c 0xe8
 523 550.333333333 440.333333333 603 275 603 c 2
 189 603 l 1
 189 688 l 1
 275 688 l 2
 343 688 396.833333333 703 436.5 733 c 0
 476.166666667 763 496 804.333333333 496 857 c 0
 496 899.666666667 481.5 933.166666667 452.5 957.5 c 0
 423.5 981.833333333 384 994 334 994 c 0
 296 994 260 988.666666667 226 978 c 0
 191.333333333 967.333333333 152.666666667 948.333333333 110 921 c 1
 60 988 l 1
 96 1016 137.333333333 1038 184 1054 c 0
 230.666666667 1070 280 1078 332 1078 c 0
 416.666666667 1078 482.166666667 1058.83333333 528.5 1020.5 c 0
 574.833333333 982.166666667 598 929.333333333 598 862 c 0xf0
EndSplineSet
Validated: 1
EndChar

StartChar: four
Encoding: 20 52 178
Width: 696
VWidth: 1278
GlyphClass: 2
Flags: W
HStem: 196 21G<449 543> 396 90<124 449 543 672> 1051 20G<424.976 543>
VStem: 449 94<196 396 486 967>
LayerCount: 2
Fore
SplineSet
672 396 m 1
 543 396 l 1
 543 196 l 1
 449 196 l 1
 449 396 l 1
 26 396 l 1
 26 482 l 1
 439 1071 l 1
 543 1071 l 1
 543 486 l 1
 672 486 l 1
 672 396 l 1
449 486 m 1
 449 775 l 2
 449 831.666666667 451 895.666666667 455 967 c 1
 450 967 l 1
 430.666666667 929 412.666666667 897.666666667 396 873 c 2
 124 486 l 1
 449 486 l 1
EndSplineSet
Validated: 1
EndChar

StartChar: five
Encoding: 21 53 179
Width: 696
VWidth: 1278
GlyphClass: 2
Flags: W
HStem: 184 85<105.236 457.087> 643 84<197.312 463.669> 975 91<218 565>
VStem: 525 101.013<333.135 585.414>
LayerCount: 2
Fore
SplineSet
332 727 m 0
 424 727 496 704.333333333 548 659 c 0
 600.008333333 614.891666667 626.0125 553.880625 626.0125 475.966875 c 0
 626.0125 474.980625 626.008333333 473.991666667 626 473 c 0
 626 383 597.5 312.333333333 540.5 261 c 0
 483.5 209.666666667 404.333333333 184 303 184 c 0
 205 184 130.333333333 199.666666667 79 231 c 1
 79 326 l 1
 107 308 141.666666667 294 183 284 c 0
 224.333333333 274 264.666666667 269 304 269 c 0
 374 269 428.333333333 285.5 467 318.5 c 0
 505.666666667 351.5 525 399 525 461 c 0
 525 582.333333333 451 643 303 643 c 0
 265.666666667 643 215 637.333333333 151 626 c 1
 100 659 l 1
 133 1066 l 1
 565 1066 l 1
 565 975 l 1
 218 975 l 1
 196 714 l 1
 241.333333333 722.666666667 286.666666667 727 332 727 c 0
EndSplineSet
Validated: 1
EndChar

StartChar: six
Encoding: 22 54 180
Width: 696
VWidth: 1278
GlyphClass: 2
Flags: W
HStem: 184 84<248.746 479.959> 660 78<240.77 485.192> 997 81<307.225 568.667>
VStem: 70 101<344.991 849.111> 540 98<324.559 610.869>
LayerCount: 2
Fore
SplineSet
70 568 m 0
 70 739.333333333 103.166666667 867.166666667 169.5 951.5 c 0
 235.833333333 1035.83333333 334 1078 464 1078 c 0
 508.666666667 1078 544 1074.33333333 570 1067 c 1
 570 982 l 1
 539.333333333 992 504.333333333 997 465 997 c 0
 372.333333333 997 301.333333333 967.833333333 252 909.5 c 0
 202.666666667 851.166666667 175.666666667 759.666666667 171 635 c 1
 178 635 l 1
 221.333333333 703 290.333333333 737.333333333 385 738 c 0
 463 738 524.666666667 714.333333333 570 667 c 0
 615.333333333 619.666666667 638 555.666666667 638 475 c 0
 638 384.333333333 613.166666667 313.166666667 563.5 261.5 c 0
 513.833333333 209.833333333 447 184 363 184 c 0
 273 184 201.666666667 217.833333333 149 285.5 c 0
 96.3333333333 353.166666667 70 447.333333333 70 568 c 0
362 268 m 0
 418 268 461.666666667 285.666666667 493 321 c 0
 524.333333333 356.333333333 540 407.666666667 540 475 c 0
 540 533 525.5 578.333333333 496.5 611 c 0
 467.5 643.666666667 424 660 366 660 c 0
 330 660 297.333333333 652.666666667 268 638 c 0
 238.666666667 623.333333333 215.166666667 603.166666667 197.5 577.5 c 0
 179.833333333 551.833333333 171 525 171 497 c 0
 171 456.333333333 178.833333333 418.333333333 194.5 383 c 0
 210.166666667 347.666666667 232.666666667 319.666666667 262 299 c 0
 291.333333333 278.333333333 324.666666667 268 362 268 c 0
EndSplineSet
Validated: 1
EndChar

StartChar: seven
Encoding: 23 55 181
Width: 696
VWidth: 1278
GlyphClass: 2
Flags: W
HStem: 196 21G<170 288.013> 975 91<56 530>
VStem: 56 579<986 1066>
LayerCount: 2
Fore
SplineSet
170 196 m 1
 530 975 l 1
 56 975 l 1
 56 1066 l 1
 635 1066 l 1
 635 986 l 1
 279 196 l 1
 170 196 l 1
EndSplineSet
Validated: 1
EndChar

StartChar: eight
Encoding: 24 56 182
Width: 696
VWidth: 1278
GlyphClass: 2
Flags: W
HStem: 184 80<211.107 482.23> 998 80<227.888 466.349>
VStem: 62 98<307.977 529.556> 90 97<765.166 961.764> 508 98<762.574 963.114> 536 98<310.737 521.264>
LayerCount: 2
Fore
SplineSet
348 1078 m 0xd0
 427.333333333 1078 490.166666667 1059.66666667 536.5 1023 c 0
 582.833333333 986.333333333 606 935.333333333 606 870 c 0xd8
 606 826.666666667 592.666666667 787.5 566 752.5 c 0
 539.333333333 717.5 497 685.666666667 439 657 c 1
 509.666666667 623 559.833333333 587.333333333 589.5 550 c 0
 619.166666667 512.666666667 634 469.666666667 634 421 c 0
 634 349 608.833333333 291.5 558.5 248.5 c 0
 508.166666667 205.5 439 184 351 184 c 0
 258.333333333 184 187 204.333333333 137 245 c 0
 87 285.666666667 62 343.333333333 62 418 c 0xe4
 62 518 122.666666667 595.666666667 244 651 c 1
 189.333333333 682.333333333 150 715.833333333 126 751.5 c 0
 102 787.166666667 90 827 90 871 c 0
 90 933.666666667 113.5 983.833333333 160.5 1021.5 c 0
 207.5 1059.16666667 270 1078 348 1078 c 0xd0
160 415 m 0xe4
 160 367.666666667 176.333333333 330.666666667 209 304 c 0
 241.666666667 277.333333333 288 264 348 264 c 0
 406.666666667 264 452.666666667 277.833333333 486 305.5 c 0
 519.333333333 333.166666667 536 371.333333333 536 420 c 0
 536 458.666666667 520.666666667 493 490 523 c 0
 459.333333333 553 405.333333333 582 328 610 c 1
 269.333333333 584.666666667 226.666666667 556.666666667 200 526 c 0
 173.333333333 495.333333333 160 458.333333333 160 415 c 0xe4
346 998 m 0
 296 998 257 986 229 962 c 0
 201 939.333333333 187 908 187 868 c 0
 187 832 198.833333333 800.666666667 222.5 774 c 0
 246.166666667 747.333333333 289.333333333 721 352 695 c 1
 408.666666667 719 448.833333333 744.5 472.5 771.5 c 0
 496.166666667 798.5 508 830.666666667 508 868 c 0xd8
 508 908 493.666666667 939.666666667 465 963 c 0
 436.333333333 986.333333333 396.666666667 998 346 998 c 0
EndSplineSet
Validated: 1
EndChar

StartChar: nine
Encoding: 25 57 183
Width: 696
VWidth: 1278
GlyphClass: 2
Flags: W
HStem: 184 82<128.365 392.929> 524 79<213.173 460.422> 994 84<220.643 452.28>
VStem: 63 98<651.619 936.859> 531 101<414.674 916.365>
LayerCount: 2
Fore
SplineSet
632 695 m 0
 632 354.333333333 500 184 236 184 c 0
 190 184 153.666666667 188 127 196 c 1
 127 281 l 1
 158.333333333 271 194.333333333 266 235 266 c 0
 330.333333333 266 402.333333333 295.333333333 451 354 c 0
 499.666666667 412.666666667 526 503 530 625 c 1
 523 625 l 1
 501.666666667 592.333333333 472.833333333 567.333333333 436.5 550 c 0
 400.166666667 532.666666667 359.333333333 524 314 524 c 0
 236.666666667 524 175.5 547 130.5 593 c 0
 85.5 639 63 703.333333333 63 786 c 0
 63 876.666666667 88.3333333333 948 139 1000 c 0
 189.666666667 1052 256 1078 338 1078 c 0
 396.666666667 1078 448.333333333 1062.83333333 493 1032.5 c 0
 537.666666667 1002.16666667 572 958 596 900 c 0
 620 842 632 773.666666667 632 695 c 0
338 994 m 0
 281.333333333 994 237.666666667 975.666666667 207 939 c 0
 176.333333333 902.333333333 161 851.666666667 161 787 c 0
 161 729.666666667 175.166666667 684.666666667 203.5 652 c 0
 231.833333333 619.333333333 275.333333333 603 334 603 c 0
 370 603 403.166666667 610.333333333 433.5 625 c 0
 463.833333333 639.666666667 487.666666667 659.666666667 505 685 c 0
 522.333333333 710.333333333 531 737 531 765 c 0
 531 807 523 845.5 507 880.5 c 0
 491 915.5 468.166666667 943.166666667 438.5 963.5 c 0
 408.833333333 983.833333333 375.333333333 994 338 994 c 0
EndSplineSet
Validated: 1
EndChar

StartChar: colon
Encoding: 26 58 184
Width: 323
VWidth: 1278
GlyphClass: 2
Flags: W
HStem: 199 161<110.628 213.887> 694 161<110.628 213.887>
VStem: 90 144<220.145 338.855 715.145 850.782>
LayerCount: 2
Fore
SplineSet
90 279 m 0
 90 305.666666667 96.1666666667 325.833333333 108.5 339.5 c 0
 120.833333333 353.166666667 138.333333333 360 161 360 c 0
 184.333333333 360 202.333333333 353.166666667 215 339.5 c 0
 227.666666667 325.833333333 234 305.666666667 234 279 c 0
 234 253 227.5 233.166666667 214.5 219.5 c 0
 201.5 205.833333333 183.666666667 199 161 199 c 0
 140.333333333 199 123.333333333 205.333333333 110 218 c 0
 96.6666666667 230.666666667 90 251 90 279 c 0
90 774 m 4
 90 827.333333333 113.666666667 854.333333333 161 855 c 4
 209.666666667 855 234 828 234 774 c 4
 234 748 227.5 728.166666667 214.5 714.5 c 4
 201.5 700.833333333 183.666666667 694 161 694 c 4
 140.333333333 694 123.333333333 700.333333333 110 713 c 4
 96.6666666667 725.666666667 90 746 90 774 c 4
EndSplineSet
Validated: 1
EndChar

StartChar: semicolon
Encoding: 27 59 185
Width: 320
VWidth: 1278
GlyphClass: 2
Flags: W
HStem: 684 161<106.051 210.887>
VStem: 88 143<237.218 347.726 705.145 840.782>
LayerCount: 2
Fore
SplineSet
208 353 m 1
 218 339 l 1
 208 299 193.166666667 252.833333333 173.5 200.5 c 0
 153.833333333 148.166666667 133.333333333 99.3333333333 112 54 c 1
 37 54 l 1
 47.6666666667 95.3333333333 59.5 146.333333333 72.5 207 c 0
 85.5 267.666666667 94.6666666667 316.333333333 100 353 c 1
 208 353 l 1
88 764 m 4
 88 817.333333333 111.333333333 844.333333333 158 845 c 4
 206.666666667 845 231 818 231 764 c 4
 231 738 224.5 718.166666667 211.5 704.5 c 4
 198.5 690.833333333 180.666666667 684 158 684 c 4
 134.666666667 684 117.166666667 690.833333333 105.5 704.5 c 4
 93.8333333333 718.166666667 88 738 88 764 c 4
EndSplineSet
Validated: 1
EndChar

StartChar: less
Encoding: 28 60 186
Width: 696
VWidth: 1278
GlyphClass: 2
Flags: W
HStem: 340 595
VStem: 62 572
LayerCount: 2
Fore
SplineSet
634 340 m 1
 62 591 l 1
 62 649 l 1
 634 935 l 1
 634 845 l 1
 168 625 l 1
 634 430 l 1
 634 340 l 1
EndSplineSet
Validated: 1
EndChar

StartChar: equal
Encoding: 29 61 187
Width: 696
VWidth: 1278
GlyphClass: 2
Flags: W
HStem: 463 81<71 624> 707 81<71 624>
VStem: 71 553<463 544 707 788>
LayerCount: 2
Fore
SplineSet
71 707 m 1
 71 788 l 1
 624 788 l 1
 624 707 l 1
 71 707 l 1
71 463 m 1
 71 544 l 1
 624 544 l 1
 624 463 l 1
 71 463 l 1
EndSplineSet
Validated: 1
EndChar

StartChar: greater
Encoding: 30 62 188
Width: 696
VWidth: 1278
GlyphClass: 2
Flags: W
HStem: 340 595
VStem: 62 572
LayerCount: 2
Fore
SplineSet
62 430 m 1
 528 624 l 1
 62 845 l 1
 62 935 l 1
 634 649 l 1
 634 591 l 1
 62 340 l 1
 62 430 l 1
EndSplineSet
Validated: 1
EndChar

StartChar: question
Encoding: 31 63 189
Width: 522
VWidth: 1278
GlyphClass: 2
Flags: W
HStem: 179 161<163.628 266.403> 990 88.0167<68.2093 355.773>
VStem: 143 143<200.66 318.339> 172 77<436 571.359> 396 95<749.962 957.529>
LayerCount: 2
Fore
SplineSet
172 436 m 1xd8
 172 468 l 2
 172 514.666666667 179.166666667 553 193.5 583 c 0
 207.833333333 613 234.333333333 644.333333333 273 677 c 0
 327 722.333333333 361 756.666666667 375 780 c 0
 389 803.333333333 396 831 396 863 c 0
 396 903 383 934.166666667 357 956.5 c 0
 331 978.833333333 293.666666667 990 245 990 c 0
 213.666666667 990 183.166666667 986.5 153.5 979.5 c 0
 123.833333333 972.5 89.6666666667 959 51 939 c 1
 16 1020 l 1
 89.422222222 1058.67777778 166.389907407 1078.01666667 246.903055556 1078.01666667 c 0
 248.267685185 1078.01666667 249.633333333 1078.01111111 251 1078 c 0
 327 1078 386 1059.33333333 428 1022 c 0
 470 984.666666667 491 932.333333333 491 865 c 0
 491 836.333333333 487.166666667 810.833333333 479.5 788.5 c 0
 471.833333333 766.166666667 460.333333333 745.333333333 445 726 c 0
 429.666666667 706.666666667 397.333333333 675 348 631 c 0
 308 597 281.5 568.666666667 268.5 546 c 0
 255.5 523.333333333 249 493 249 455 c 2
 249 436 l 1
 172 436 l 1xd8
143 259 m 0xe8
 143 313 166.666666667 340 214 340 c 0
 237.333333333 340 255.166666667 333 267.5 319 c 0
 279.833333333 305 286 285 286 259 c 0
 286 233.666666667 279.666666667 214 267 200 c 0
 254.333333333 186 236.666666667 179 214 179 c 0
 193.333333333 179 176.333333333 185.333333333 163 198 c 0
 149.666666667 210.666666667 143 231 143 259 c 0xe8
EndSplineSet
Validated: 1
EndChar

StartChar: at
Encoding: 32 64 190
Width: 1094
VWidth: 1278
GlyphClass: 2
Flags: W
HStem: 86 78<334.539 749.186> 328 73<439.3 610.445 755.882 890.767> 754 74<469.875 666> 988 77<390.39 763.514>
VStem: 72 83<339.6 753.213> 318 90<423.911 699.413> 944 79<456.558 809.858>
LayerCount: 2
Fore
SplineSet
1023 630 m 0
 1023 574 1014.33333333 522.5 997 475.5 c 0
 979.666666667 428.5 955.166666667 392.166666667 923.5 366.5 c 0
 891.833333333 340.833333333 855.333333333 328 814 328 c 0
 780 328 751.333333333 338.333333333 728 359 c 0
 704.666666667 379.666666667 690.666666667 405.666666667 686 437 c 1
 682 437 l 1
 666 402.333333333 643.166666667 375.5 613.5 356.5 c 0
 583.833333333 337.5 548.666666667 328 508 328 c 0
 448.666666667 328 402.166666667 348.166666667 368.5 388.5 c 0
 334.833333333 428.833333333 318 484 318 554 c 0
 318 635.333333333 341.5 701.333333333 388.5 752 c 0
 435.5 802.666666667 497 828 573 828 c 0
 600.333333333 828 631 825.333333333 665 820 c 0
 699 814.666666667 729.333333333 808 756 800 c 1
 742 520 l 1
 742 506 l 2
 742 436 768 401 820 401 c 0
 820 401 820 401 821 401 c 0
 857 401 886.5 422.166666667 909.5 464.5 c 0
 932.5 506.833333333 944 562.333333333 944 631 c 0
 944 703 929.166666667 766 899.5 820 c 0
 869.833333333 874 828 915.5 774 944.5 c 0
 720 973.5 657.666666667 988 587 988 c 0
 498.333333333 988 421.333333333 969.666666667 356 933 c 0
 290.666666667 896.333333333 240.833333333 844 206.5 776 c 0
 172.166666667 708 155 629.333333333 155 540 c 0
 155 418.666666667 186.666666667 325.666666667 250 261 c 0
 314 196.333333333 406.333333333 164 527 164 c 0
 610.333333333 164 696.666666667 181 786 215 c 1
 786 136 l 1
 710.666666667 102.666666667 624.333333333 86 527 86 c 0
 383 86 271.166666667 125.5 191.5 204.5 c 0
 111.833333333 283.5 72 394 72 536 c 0
 72 639.333333333 93.1666666667 731.166666667 135.5 811.5 c 0
 177.833333333 891.833333333 238.333333333 954.166666667 317 998.5 c 0
 395.666666667 1042.83333333 485.666666667 1065 587 1065 c 0
 672.333333333 1065 748.333333333 1047 815 1011 c 0
 881.666666667 975 933 924 969 858 c 0
 1005 792 1023 716 1023 630 c 0
408 552 m 0
 408 451.333333333 446.666666667 401 524 401 c 0
 606 401 650.666666667 463 658 587 c 2
 666 743 l 1
 640 750.333333333 611.666666667 754 581 754 c 0
 577 754 577 754 573 754 c 0
 521.666666667 754 481.333333333 736.166666667 452 700.5 c 0
 422.666666667 664.833333333 408 615.333333333 408 552 c 0
EndSplineSet
Validated: 1
EndChar

StartChar: A
Encoding: 33 65 191
Width: 770
VWidth: 1278
GlyphClass: 2
Flags: W
HStem: 196 21G<0 109.726 658.202 771> 473 91<245 527> 1050 20G<336.128 436.826>
LayerCount: 2
Fore
SplineSet
666 196 m 1
 558 473 l 1
 209 473 l 1
 102 196 l 1
 0 196 l 1
 344 1070 l 1
 429 1070 l 1
 771 196 l 1
 666 196 l 1
527 564 m 1
 425 834 l 2
 411.666666667 868 398.333333333 909.333333333 385 958 c 1
 376.333333333 920.666666667 364 879.333333333 348 834 c 2
 245 564 l 1
 527 564 l 1
EndSplineSet
Validated: 1
EndChar

StartChar: B
Encoding: 34 66 192
Width: 788
VWidth: 1278
GlyphClass: 2
Flags: W
HStem: 196 87<221 562.008> 607 86<221 532.953> 978 88<221 534.36>
VStem: 120 101<283 607 693 978> 588 106<728.193 939.678> 614 108<331.075 562.002>
LayerCount: 2
Fore
SplineSet
120 1066 m 1xf4
 366 1066 l 2
 480.666666667 1066 564 1048.66666667 616 1014 c 0
 668 979.333333333 694 924.666666667 694 850 c 0xf8
 694 798.666666667 679.5 756.333333333 650.5 723 c 0
 621.5 689.666666667 579.333333333 668 524 658 c 1
 524 652 l 1
 656 629.333333333 722 559.666666667 722 443 c 0
 722 365.666666667 695.666666667 305.166666667 643 261.5 c 0
 590.333333333 217.833333333 517 196 423 196 c 2
 120 196 l 1
 120 1066 l 1xf4
221 693 m 1
 388 693 l 2
 459.333333333 693 510.5 704.166666667 541.5 726.5 c 0
 572.5 748.833333333 588 786.666666667 588 840 c 0
 588 888.666666667 570.666666667 923.833333333 536 945.5 c 0
 501.333333333 967.166666667 446 978 370 978 c 2
 221 978 l 1
 221 693 l 1
221 607 m 1
 221 283 l 1
 402 283 l 2
 472 283 524.833333333 296.333333333 560.5 323 c 0
 596.166666667 349.666666667 614 392.333333333 614 451 c 0xf4
 614 505 595.833333333 544.5 559.5 569.5 c 0
 523.166666667 594.5 468 607 394 607 c 2
 221 607 l 1
EndSplineSet
Validated: 1
EndChar

StartChar: C
Encoding: 35 67 193
Width: 768
VWidth: 1278
GlyphClass: 2
Flags: W
HStem: 184 90<319.569 695.763> 988 90<326.155 701.433>
VStem: 75 108<419.833 835.89>
LayerCount: 2
Fore
SplineSet
492 988 m 0
 396 988 320.5 956.166666667 265.5 892.5 c 0
 210.5 828.833333333 183 741.666666667 183 631 c 0
 183 517 209.666666667 429 263 367 c 0
 317 305 393 274 491 274 c 0
 551.666666667 274 621 284.666666667 699 306 c 1
 699 218 l 1
 639 195.333333333 564.333333333 184 475 184 c 0
 347 184 248.333333333 222.833333333 179 300.5 c 0
 109.666666667 378.166666667 75 488.666666667 75 632 c 0
 75 721.333333333 91.6666666667 799.833333333 125 867.5 c 0
 158.333333333 935.166666667 206.666666667 987.166666667 270 1023.5 c 0
 333.333333333 1059.83333333 407.666666667 1078 493 1078 c 0
 584.333333333 1078 664.333333333 1061.33333333 733 1028 c 1
 689 941 l 1
 623.666666667 972.333333333 558 988 492 988 c 0
EndSplineSet
Validated: 1
EndChar

StartChar: D
Encoding: 36 68 194
Width: 888
VWidth: 1278
GlyphClass: 2
Flags: W
HStem: 196 88<221 554.037> 978 88<221 561.423>
VStem: 120 101<284 978> 707 107<433.741 834.807>
LayerCount: 2
Fore
SplineSet
814 640 m 0
 814 496.666666667 775 386.833333333 697 310.5 c 0
 619 234.166666667 506.666666667 196 360 196 c 2
 120 196 l 1
 120 1066 l 1
 386 1066 l 2
 521.333333333 1066 626.5 1028.5 701.5 953.5 c 0
 776.5 878.5 814 774 814 640 c 0
707 635 m 0
 707 748.333333333 678.5 833.833333333 621.5 891.5 c 0
 564.5 949.166666667 480 978 368 978 c 2
 221 978 l 1
 221 284 l 1
 344 284 l 2
 464.666666667 284 555.333333333 313.5 616 372.5 c 0
 676.666666667 431.5 707 519 707 635 c 0
EndSplineSet
Validated: 1
EndChar

StartChar: E
Encoding: 37 69 195
Width: 677
VWidth: 1278
GlyphClass: 2
Flags: W
HStem: 196 90<221 604> 607 89<221 581> 976 90<221 604>
VStem: 120 101<286 607 696 976>
LayerCount: 2
Fore
SplineSet
604 196 m 1
 120 196 l 1
 120 1066 l 1
 604 1066 l 1
 604 976 l 1
 221 976 l 1
 221 696 l 1
 581 696 l 1
 581 607 l 1
 221 607 l 1
 221 286 l 1
 604 286 l 1
 604 196 l 1
EndSplineSet
Validated: 1
EndChar

StartChar: F
Encoding: 38 70 196
Width: 628
VWidth: 1278
GlyphClass: 2
Flags: W
HStem: 196 21G<120 221> 568 90<221 581> 976 90<221 604>
VStem: 120 101<196 568 658 976>
LayerCount: 2
Fore
SplineSet
221 196 m 1
 120 196 l 1
 120 1066 l 1
 604 1066 l 1
 604 976 l 1
 221 976 l 1
 221 658 l 1
 581 658 l 1
 581 568 l 1
 221 568 l 1
 221 196 l 1
EndSplineSet
Validated: 1
EndChar

StartChar: G
Encoding: 39 71 197
Width: 886
VWidth: 1278
GlyphClass: 2
Flags: W
HStem: 184 88<330.447 694.794> 562 90<502 697> 988 90<332.499 749.986>
VStem: 75 107<422.027 831.751> 697 101<284.375 562>
LayerCount: 2
Fore
SplineSet
502 652 m 1
 798 652 l 1
 798 228 l 1
 752 213.333333333 705.166666667 202.333333333 657.5 195 c 0
 609.833333333 187.666666667 554.666666667 184 492 184 c 0
 360.666666667 184 258.333333333 223.166666667 185 301.5 c 0
 111.666666667 379.833333333 75 489.666666667 75 631 c 0
 75 721.666666667 93.1666666667 800.833333333 129.5 868.5 c 0
 165.833333333 936.166666667 218 988 286 1024 c 0
 354 1060 433.666666667 1078 525 1078 c 0
 617.666666667 1078 704.333333333 1061 785 1027 c 1
 745 938 l 1
 665.666666667 971.333333333 590 988 518 988 c 0
 412 988 329.5 956.5 270.5 893.5 c 0
 211.5 830.5 182 743 182 631 c 0
 182 513.666666667 210.666666667 424.5 268 363.5 c 0
 325.333333333 302.5 409.333333333 272 520 272 c 0
 580 272 639 279.333333333 697 294 c 1
 697 562 l 1
 502 562 l 1
 502 652 l 1
EndSplineSet
Validated: 1
EndChar

StartChar: H
Encoding: 40 72 198
Width: 898
VWidth: 1278
GlyphClass: 2
Flags: W
HStem: 196 21G<120 221 679 780> 606 90<221 679> 1046 20G<120 221 679 780>
VStem: 120 101<196 606 696 1066> 679 101<196 606 696 1066>
LayerCount: 2
Fore
SplineSet
780 196 m 1
 679 196 l 1
 679 606 l 1
 221 606 l 1
 221 196 l 1
 120 196 l 1
 120 1066 l 1
 221 1066 l 1
 221 696 l 1
 679 696 l 1
 679 1066 l 1
 780 1066 l 1
 780 196 l 1
EndSplineSet
Validated: 1
EndChar

StartChar: J
Encoding: 42 74 199
Width: 324
VWidth: 1278
GlyphClass: 2
Flags: W
HStem: -34 91<-93.8403 84.52> 1046 20G<113 214>
VStem: 113 101<94.1326 1066>
LayerCount: 2
Fore
SplineSet
-7 -34 m 0
 -44.3333333333 -34 -73.6666666667 -28.3333333333 -95 -17 c 1
 -95 69 l 1
 -67 61 -37.6666666667 57 -7 57 c 0
 32.3333333333 57 62.1666666667 69 82.5 93 c 0
 102.833333333 117 113 151.333333333 113 196 c 2
 113 1066 l 1
 214 1066 l 1
 214 204 l 2
 214 128.666666667 195 70.1666666667 157 28.5 c 0
 119 -13.1666666667 64.3333333333 -34 -7 -34 c 0
EndSplineSet
Validated: 1
EndChar

StartChar: K
Encoding: 43 75 200
Width: 747
VWidth: 1278
GlyphClass: 2
Flags: W
HStem: 196 21G<120 221 613.976 748> 1046 20G<120 221 596.717 734>
VStem: 120 101<196 537 635 1066>
LayerCount: 2
Fore
SplineSet
748 196 m 1
 629 196 l 1
 312 618 l 1
 221 537 l 1
 221 196 l 1
 120 196 l 1
 120 1066 l 1
 221 1066 l 1
 221 635 l 1
 615 1066 l 1
 734 1066 l 1
 385 688 l 1
 748 196 l 1
EndSplineSet
Validated: 1
EndChar

StartChar: L
Encoding: 44 76 201
Width: 632
VWidth: 1278
GlyphClass: 2
Flags: W
HStem: 196 92<221 604> 1046 20G<120 221>
VStem: 120 101<288 1066>
LayerCount: 2
Fore
SplineSet
120 196 m 1
 120 1066 l 1
 221 1066 l 1
 221 288 l 1
 604 288 l 1
 604 196 l 1
 120 196 l 1
EndSplineSet
Validated: 1
EndChar

StartChar: M
Encoding: 45 77 202
Width: 1099
VWidth: 1278
GlyphClass: 2
Flags: W
HStem: 196 21G<120 213 497.322 593.74 880 981> 1046 20G<120 279.66 822.256 981>
VStem: 120 93<196 964.117> 880 101<196 962.442>
LayerCount: 2
Fore
SplineSet
505 196 m 1
 209 967 l 1
 205 967 l 1
 210.333333333 905.666666667 213 833 213 749 c 2
 213 196 l 1
 120 196 l 1
 120 1066 l 1
 272 1066 l 1
 547 348 l 1
 552 348 l 1
 830 1066 l 1
 981 1066 l 1
 981 196 l 1
 880 196 l 1
 880 756 l 2
 880 820 882.666666667 890 888 966 c 1
 884 966 l 1
 586 196 l 1
 505 196 l 1
EndSplineSet
Validated: 1
EndChar

StartChar: N
Encoding: 46 78 203
Width: 918
VWidth: 1278
GlyphClass: 2
Flags: W
HStem: 196 21G<120 213 669.986 799> 1046 20G<120 247.04 705 799>
VStem: 120 93<196 922.005> 705 94<339.517 1066>
LayerCount: 2
Fore
SplineSet
799 196 m 1
 683 196 l 1
 208 926 l 1
 203 926 l 1
 209 840.666666667 212.333333333 762.333333333 213 691 c 2
 213 196 l 1
 120 196 l 1
 120 1066 l 1
 234 1066 l 1
 708 339 l 1
 713 339 l 1
 712.333333333 349.666666667 710.5 384 707.5 442 c 0
 705.423076923 482.153846154 704.384615385 514.479289941 704.384615385 538.976331361 c 0
 704.384615385 549.863905326 704.58974359 559.205128205 705 567 c 2
 705 1066 l 1
 799 1066 l 1
 799 196 l 1
EndSplineSet
Validated: 1
EndChar

StartChar: O
Encoding: 47 79 204
Width: 948
VWidth: 1278
GlyphClass: 2
Flags: W
HStem: 184 88<310.054 639.012> 989 91<311.138 643.908>
VStem: 75 107<412.039 850.628> 768 107<410.59 851.992>
LayerCount: 2
Fore
SplineSet
875 632 m 0
 875 493 840 383 769 304 c 0
 698 224 600 184 475 184 c 0
 347 184 248 223 179 302 c 0
 110 380 75 490 75 633 c 0
 75 774 110 884 180 962 c 0
 249 1041 348 1080 477 1080 c 0
 602 1080 699 1040 770 960 c 0
 840 881 875 771 875 632 c 0
182 632 m 0
 182 514 207 424 257 364 c 0
 307 302 380 272 475 272 c 0
 571 272 644 302 694 363 c 0
 743 424 768 513 768 632 c 0
 768 749 743 837 694 898 c 0
 645 959 572 989 477 989 c 0
 381 989 308 958 258 898 c 0
 207 836 182 748 182 632 c 0
EndSplineSet
Validated: 1
EndChar

StartChar: P
Encoding: 48 80 205
Width: 733
VWidth: 1278
GlyphClass: 2
Flags: W
HStem: 196 21G<120 221> 538 87<221 502.727> 978 88<221 510.336>
VStem: 120 101<196 538 625 978> 566 106<682.287 924.814>
LayerCount: 2
Fore
SplineSet
672 812 m 0
 672 724 641.833333333 656.333333333 581.5 609 c 0
 521.166666667 561.666666667 435 538 323 538 c 2
 221 538 l 1
 221 196 l 1
 120 196 l 1
 120 1066 l 1
 345 1066 l 2
 563 1065.33333333 672 980.666666667 672 812 c 0
221 625 m 1
 312 625 l 2
 401.333333333 625 466 639.5 506 668.5 c 0
 546 697.5 566 744 566 808 c 0
 566 866 547.166666667 908.833333333 509.5 936.5 c 0
 471.833333333 964.166666667 413.333333333 978 334 978 c 2
 221 978 l 1
 221 625 l 1
EndSplineSet
Validated: 1
EndChar

StartChar: Q
Encoding: 49 81 206
Width: 948
VWidth: 1278
GlyphClass: 2
Flags: W
HStem: 184 88<310.516 508> 989 91<311.086 643.803>
VStem: 75 107<411.991 850.756> 768 107<409.918 852.107>
LayerCount: 2
Fore
SplineSet
875 632 m 0
 875 520.666666667 852.5 428.166666667 807.5 354.5 c 0
 762.5 280.833333333 699.333333333 230.666666667 618 204 c 1
 824 -11 l 1
 677 -11 l 1
 508 185 l 1
 475 184 l 1
 347 184 248.333333333 223.166666667 179 301.5 c 0
 109.666666667 379.833333333 75 490.333333333 75 633 c 0
 75 774.333333333 109.833333333 884.166666667 179.5 962.5 c 0
 249.166666667 1040.83333333 348.333333333 1080 477 1080 c 0
 601.666666667 1080 699.166666667 1040.16666667 769.5 960.5 c 0
 839.833333333 880.833333333 875 771.333333333 875 632 c 0
182 632 m 0
 182 514 207 424.5 257 363.5 c 0
 307 302.5 379.666666667 272 475 272 c 0
 571 272 643.833333333 302.333333333 693.5 363 c 0
 743.166666667 423.666666667 768 513.333333333 768 632 c 0
 768 748.666666667 743.333333333 837.333333333 694 898 c 0
 644.666666667 958.666666667 572.333333333 989 477 989 c 0
 381 989 307.833333333 958.5 257.5 897.5 c 0
 207.166666667 836.5 182 748 182 632 c 0
EndSplineSet
Validated: 1
EndChar

StartChar: R
Encoding: 50 82 207
Width: 753
VWidth: 1278
GlyphClass: 2
Flags: W
HStem: 196 21G<120 221 601.343 733> 558 87<221 402> 977 89<221 513.907>
VStem: 120 101<196 558 645 977> 566 106<692.86 933.975>
LayerCount: 2
Fore
SplineSet
221 558 m 1
 221 196 l 1
 120 196 l 1
 120 1066 l 1
 358 1066 l 2
 464.666666667 1066 543.666666667 1045.5 595 1004.5 c 0
 646.333333333 963.5 672 902 672 820 c 0
 672 704.666666667 613.333333333 627 496 587 c 1
 733 196 l 1
 613 196 l 1
 402 558 l 1
 221 558 l 1
221 645 m 1
 360 645 l 2
 431.333333333 645 483.5 659.166666667 516.5 687.5 c 0
 549.5 715.833333333 566 758.333333333 566 815 c 0
 566 873 549.166666667 914.5 515.5 939.5 c 0
 481.833333333 964.5 427.333333333 977 352 977 c 2
 221 977 l 1
 221 645 l 1
EndSplineSet
Validated: 1
EndChar

StartChar: S
Encoding: 51 83 208
Width: 668
VWidth: 1278
GlyphClass: 2
Flags: W
HStem: 184 88<78.7804 457.237> 988 90<218.606 567.428>
VStem: 75 102<750.741 951.629> 508 102<316.871 521.801>
LayerCount: 2
Fore
SplineSet
610 427 m 0
 610 350.333333333 582.333333333 290.666666667 527 248 c 0
 471.666666667 205.333333333 396.333333333 184 301 184 c 0
 197.666666667 184 118.333333333 197.333333333 63 224 c 1
 63 322 l 1
 99 306.666666667 138 294.5 180 285.5 c 0
 222 276.5 263.333333333 272 304 272 c 0
 371.333333333 272 422.166666667 285 456.5 311 c 0
 490.833333333 337 508 372.666666667 508 418 c 0
 508 448 502 472.666666667 490 492 c 0
 478 511.333333333 457.833333333 529.166666667 429.5 545.5 c 0
 401.166666667 561.833333333 358 580.333333333 300 601 c 0
 218.666666667 629.666666667 160.833333333 663.833333333 126.5 703.5 c 0
 92.1666666667 743.166666667 75 795 75 859 c 0
 75 925.666666667 100 978.833333333 150 1018.5 c 0
 200 1058.16666667 266.666666667 1078 350 1078 c 0
 436.666666667 1078 516 1062.33333333 588 1031 c 1
 557 942 l 1
 485 972 415.333333333 987.333333333 348 988 c 0
 294.666666667 988 252.833333333 976.333333333 222.5 953 c 0
 192.166666667 929.666666667 177 897.666666667 177 857 c 0
 177 827 182.5 802.333333333 193.5 783 c 0
 204.5 763.666666667 223.166666667 746.166666667 249.5 730.5 c 0
 275.833333333 714.833333333 316.333333333 697 371 677 c 0
 462.333333333 645 525 610.166666667 559 572.5 c 0
 593 534.833333333 610 486.333333333 610 427 c 0
EndSplineSet
Validated: 1
EndChar

StartChar: T
Encoding: 52 84 209
Width: 674
VWidth: 1278
GlyphClass: 2
Flags: W
HStem: 196 21G<286 388> 976 90<11 286 388 663>
VStem: 286 102<196 976>
LayerCount: 2
Fore
SplineSet
388 196 m 1
 286 196 l 1
 286 976 l 1
 11 976 l 1
 11 1066 l 1
 663 1066 l 1
 663 976 l 1
 388 976 l 1
 388 196 l 1
EndSplineSet
Validated: 1
EndChar

StartChar: U
Encoding: 53 85 210
Width: 886
VWidth: 1278
GlyphClass: 2
Flags: W
HStem: 184 88<290.779 596.501> 1046 20G<110 212 675 777>
VStem: 110 102<350.272 1066> 675 102<348.625 1066>
LayerCount: 2
Fore
SplineSet
777 1066 m 1
 777 503 l 2
 777 403.666666667 747 325.666666667 687 269 c 0
 627 212.333333333 544.333333333 184 439 184 c 256
 334.333333333 184 253.333333333 212.666666667 196 270 c 0
 138.666666667 327.333333333 110 405.666666667 110 505 c 2
 110 1066 l 1
 212 1066 l 1
 212 499 l 2
 212 426.333333333 231.833333333 370.333333333 271.5 331 c 0
 311.166666667 291.666666667 369.333333333 272 446 272 c 0
 519.333333333 272 575.833333333 291.666666667 615.5 331 c 0
 655.166666667 370.333333333 675 426.333333333 675 499 c 2
 675 1066 l 1
 777 1066 l 1
EndSplineSet
Validated: 1
EndChar

StartChar: V
Encoding: 54 86 211
Width: 725
VWidth: 1278
GlyphClass: 2
Flags: W
HStem: 196 21G<304.828 418.218> 1046 20G<0 114.105 608.893 725>
LayerCount: 2
Fore
SplineSet
616 1066 m 1
 725 1066 l 1
 411 196 l 1
 312 196 l 1
 0 1066 l 1
 107 1066 l 1
 307 503 l 2
 330.333333333 438.333333333 348.666666667 375.333333333 362 314 c 1
 376 378 394.333333333 442 417 506 c 2
 616 1066 l 1
EndSplineSet
Validated: 1
EndChar

StartChar: W
Encoding: 55 87 212
Width: 1127
VWidth: 1278
GlyphClass: 2
Flags: W
HStem: 196 21G<241.69 353.872 772.986 884.356> 1046 20G<16 128.13 500.102 619.154 999.888 1112>
LayerCount: 2
Fore
SplineSet
879 196 m 1
 779 196 l 1
 604 778 l 2
 595.333333333 804 585.833333333 836.666666667 575.5 876 c 0
 565.166666667 915.333333333 559.666666667 939 559 947 c 1
 550.333333333 895 536.666666667 837.666666667 518 775 c 2
 348 196 l 1
 247 196 l 1
 16 1066 l 1
 123 1066 l 1
 261 528 l 2
 280.333333333 453.333333333 294.333333333 385.333333333 303 324 c 1
 313.666666667 396.666666667 329.333333333 467.666666667 350 537 c 2
 506 1066 l 1
 613 1066 l 1
 777 533 l 2
 796.333333333 472.333333333 812 402.666666667 824 324 c 1
 831.333333333 380 846 448.666666667 868 530 c 2
 1005 1066 l 1
 1112 1066 l 1
 879 196 l 1
EndSplineSet
Validated: 1
EndChar

StartChar: X
Encoding: 56 88 213
Width: 702
VWidth: 1278
GlyphClass: 2
Flags: W
HStem: 196 21G<5 124.461 571.749 699> 1046 20G<25 148.522 557.362 677>
LayerCount: 2
Fore
SplineSet
699 196 m 1
 584 196 l 1
 350 578 l 1
 112 196 l 1
 5 196 l 1
 294 651 l 1
 25 1066 l 1
 136 1066 l 1
 352 721 l 1
 570 1066 l 1
 677 1066 l 1
 408 654 l 1
 699 196 l 1
EndSplineSet
Validated: 1
EndChar

StartChar: Y
Encoding: 57 89 214
Width: 681
VWidth: 1278
GlyphClass: 2
Flags: W
HStem: 196 21G<290 392> 1046 20G<0 120.621 562.333 683>
VStem: 290 102<196 528>
LayerCount: 2
Fore
SplineSet
341 631 m 1
 573 1066 l 1
 683 1066 l 1
 392 533 l 1
 392 196 l 1
 290 196 l 1
 290 528 l 1
 0 1066 l 1
 110 1066 l 1
 341 631 l 1
EndSplineSet
Validated: 1
EndChar

StartChar: Z
Encoding: 58 90 215
Width: 695
VWidth: 1278
GlyphClass: 2
Flags: W
HStem: 196 92<172 647> 975 91<63 511>
VStem: 48 599<196 275>
LayerCount: 2
Fore
SplineSet
647 196 m 1
 48 196 l 1
 48 275 l 1
 511 975 l 1
 63 975 l 1
 63 1066 l 1
 634 1066 l 1
 634 986 l 1
 172 288 l 1
 647 288 l 1
 647 196 l 1
EndSplineSet
Validated: 1
EndChar

StartChar: uni005B
Encoding: 59 91 216
Width: 420
VWidth: 1278
GlyphClass: 2
Flags: W
HStem: 0 85<200 370> 982 84<200 370>
VStem: 100 270<0 85 982 1066> 100 100<85 982>
LayerCount: 2
Fore
SplineSet
370 0 m 1xe0
 100 0 l 1
 100 1066 l 1
 370 1066 l 1
 370 982 l 1xe0
 200 982 l 1
 200 85 l 1xd0
 370 85 l 1
 370 0 l 1xe0
EndSplineSet
Validated: 1
EndChar

StartChar: backslash
Encoding: 60 92 217
Width: 447
VWidth: 1278
GlyphClass: 2
Flags: W
HStem: 196 21G<329.575 436> 1046 20G<14 117.494>
VStem: 14 422
LayerCount: 2
Fore
SplineSet
110 1066 m 1
 436 196 l 1
 337 196 l 1
 14 1066 l 1
 110 1066 l 1
EndSplineSet
Validated: 1
EndChar

StartChar: uni005D
Encoding: 61 93 218
Width: 430
VWidth: 1278
GlyphClass: 2
Flags: W
HStem: 1 85<60 229> 982 84<60 229>
VStem: 60 270<1 86 982 1066> 229 101<86 982>
LayerCount: 2
Fore
SplineSet
60 86 m 1xe0
 229 86 l 1
 229 982 l 1xd0
 60 982 l 1
 60 1066 l 1
 330 1066 l 1
 330 1 l 1
 60 1 l 1
 60 86 l 1xe0
EndSplineSet
Validated: 1
EndChar

StartChar: asciicircum
Encoding: 62 94 219
Width: 720
VWidth: 1278
GlyphClass: 2
Flags: W
HStem: 784 282
VStem: 60 600
LayerCount: 2
Fore
SplineSet
60 784 m 1
 317 1066 l 1
 376 1066 l 1
 660 784 l 1
 570 784 l 1
 348 967 l 1
 150 784 l 1
 60 784 l 1
EndSplineSet
Validated: 1
EndChar

StartChar: underscore
Encoding: 63 95 220
Width: 545
VWidth: 1278
GlyphClass: 2
Flags: W
HStem: 196 77<-20 565>
VStem: -20 585<196 273>
LayerCount: 2
Fore
SplineSet
565 196 m 1
 -20 196 l 1
 -20 273 l 1
 565 273 l 1
 565 196 l 1
EndSplineSet
Validated: 1
EndChar

StartChar: grave
Encoding: 64 96 221
Width: 702
VWidth: 1278
GlyphClass: 2
Flags: W
HStem: 935 194
VStem: 234 120<1059.82 1129>
LayerCount: 2
Fore
SplineSet
468 935 m 1
 402 935 l 1
 376 955.666666667 345.5 985 310.5 1023 c 0
 275.5 1061 250 1092.33333333 234 1117 c 1
 234 1129 l 1
 354 1129 l 1
 366.666666667 1101.66666667 384.333333333 1070 407 1034 c 0
 430.333333333 998 450.666666667 969.666666667 468 949 c 1
 468 935 l 1
EndSplineSet
Validated: 1
EndChar

StartChar: a
Encoding: 65 97 222
Width: 677
VWidth: 1278
GlyphClass: 2
Flags: W
HStem: 184 82<186.891 414.852> 512 72<219.246 480> 777 82<180.724 449.784>
VStem: 56 104<290.077 468.869> 480 99<324.638 516 587 739.35> 506 73<196 262.662>
LayerCount: 2
Fore
SplineSet
506 196 m 1xf4
 486 289 l 1
 481 289 l 1
 449 248.333333333 416.833333333 220.666666667 384.5 206 c 0
 352.166666667 191.333333333 311.666666667 184 263 184 c 0
 198.333333333 184 147.666666667 200.666666667 111 234 c 0
 74.3333333333 267.333333333 56 314.666666667 56 376 c 0
 56 507.333333333 161.333333333 576.666666667 372 584 c 2
 483 587 l 1
 483 628 l 2
 483 678.666666667 471.833333333 716.166666667 449.5 740.5 c 0
 427.166666667 764.833333333 392 777 344 777 c 0
 289.333333333 777 228 760.333333333 160 727 c 1
 129 803 l 1
 161 820.333333333 196.166666667 834 234.5 844 c 0
 272.833333333 854 311.333333333 859 350 859 c 0
 427.333333333 859 484.833333333 841.666666667 522.5 807 c 0
 560.166666667 772.333333333 579 717 579 641 c 2xf8
 579 196 l 1
 506 196 l 1xf4
282 266 m 0
 343.333333333 266 391.666666667 282.833333333 427 316.5 c 0
 462.333333333 350.166666667 480 397.333333333 480 458 c 2
 480 516 l 1
 382 512 l 2
 303.333333333 509.333333333 246.666666667 497.166666667 212 475.5 c 0
 177.333333333 453.833333333 160 420.333333333 160 375 c 0
 160 339 170.5 311.833333333 191.5 293.5 c 0
 212.5 275.166666667 242.666666667 266 282 266 c 0
EndSplineSet
Validated: 1
EndChar

StartChar: b
Encoding: 66 98 223
Width: 746
VWidth: 1278
GlyphClass: 2
Flags: W
HStem: 184 83<266.359 509.496> 776 83<263.801 513.071> 1102 20G<105 203>
VStem: 105 98<327.348 717.988 761 1122> 105 70<196 253.344> 576 103<333.953 713.152>
LayerCount: 2
Fore
SplineSet
408 859 m 0xf4
 493.333333333 859 559.833333333 829.666666667 607.5 771 c 0
 655.166666667 712.333333333 679 629.333333333 679 522 c 256
 679 414.666666667 655.166666667 331.5 607.5 272.5 c 0
 559.833333333 213.5 493.333333333 184 408 184 c 0
 365.333333333 184 326.5 191.833333333 291.5 207.5 c 0
 256.5 223.166666667 227 247.333333333 203 280 c 1xf4
 196 280 l 1
 175 196 l 1
 105 196 l 1xec
 105 1122 l 1
 203 1122 l 1
 203 897 l 2
 203 846.333333333 201.666666667 801 199 761 c 1
 203 761 l 1
 249 826.333333333 317.333333333 859 408 859 c 0xf4
394 776 m 0
 326.666666667 776 278 756.666666667 248 718 c 0
 218 679.333333333 203 614 203 522 c 256
 203 430 218.333333333 364.5 249 325.5 c 0
 279.666666667 286.5 328.666666667 267 396 267 c 0
 456.666666667 267 501.833333333 289 531.5 333 c 0
 561.166666667 377 576 440.666666667 576 524 c 0
 576 609.333333333 561.333333333 672.666666667 532 714 c 0
 502.666666667 755.333333333 456.666666667 776 394 776 c 0
EndSplineSet
Validated: 1
EndChar

StartChar: c
Encoding: 67 99 224
Width: 579
VWidth: 1278
GlyphClass: 2
Flags: W
HStem: 184 87<239.661 527.652> 772 88<241.155 507.998>
VStem: 68 103<342.041 700.44>
LayerCount: 2
Fore
SplineSet
366 184 m 0
 271.333333333 184 198 213 146 271 c 0
 94 329 68 411.333333333 68 518 c 0
 68 626.666666667 94.3333333333 710.833333333 147 770.5 c 0
 199.666666667 830.166666667 274.666666667 860 372 860 c 0
 403.333333333 860 434.666666667 856.5 466 849.5 c 0
 497.333333333 842.5 522 834.666666667 540 826 c 1
 509 743 l 1
 487.666666667 751.666666667 464.166666667 758.666666667 438.5 764 c 0
 412.833333333 769.333333333 390 772 370 772 c 0
 237.333333333 772 171 687.666666667 171 519 c 0
 171 439 187.166666667 377.666666667 219.5 335 c 0
 251.833333333 292.333333333 299.666666667 271 363 271 c 0
 417.666666667 271 473.333333333 282.666666667 530 306 c 1
 530 218 l 1
 486.666666667 195.333333333 432 184 366 184 c 0
EndSplineSet
Validated: 1
EndChar

StartChar: d
Encoding: 68 100 225
Width: 746
VWidth: 1278
GlyphClass: 2
Flags: W
HStem: 184 83<237.165 482.951> 777 83<239.904 479.797> 1102 20G<543 642>
VStem: 68 103<332.981 706.443> 543 99<323.735 716.652 811 1122> 562 80<196 284>
LayerCount: 2
Fore
SplineSet
548 284 m 1xf4
 543 284 l 1
 497.666666667 218 429.333333333 184.666666667 338 184 c 0
 252.666666667 184 186.333333333 213.166666667 139 271.5 c 0
 91.6666666667 329.833333333 68 413 68 521 c 256
 68 629 91.8333333333 712.5 139.5 771.5 c 0
 187.166666667 830.5 253.333333333 860 338 860 c 0
 426.666666667 860 494.666666667 828 542 764 c 1
 550 764 l 1
 546 811 l 1
 543 856 l 1
 543 1122 l 1
 642 1122 l 1xf8
 642 196 l 1
 562 196 l 1
 548 284 l 1xf4
351 267 m 0
 418.333333333 267 467.166666667 285.333333333 497.5 322 c 0
 527.833333333 358.666666667 543 417.666666667 543 499 c 2
 543 521 l 2
 543 613.666666667 527.666666667 679.5 497 718.5 c 0
 466.333333333 757.5 417.333333333 777 350 777 c 0
 292 777 247.666666667 754.5 217 709.5 c 0
 186.333333333 664.5 171 601 171 519 c 0
 171 435.666666667 186.333333333 372.833333333 217 330.5 c 0
 247.666666667 288.166666667 292.333333333 267 351 267 c 0
EndSplineSet
Validated: 1
EndChar

StartChar: e
Encoding: 69 101 226
Width: 683
VWidth: 1278
GlyphClass: 2
Flags: W
HStem: 184 87<247.369 589.563> 505 79<173 514> 777 83<239.957 463.953>
VStem: 68 103<348.332 505> 514 106<584 725.942>
LayerCount: 2
Fore
SplineSet
380 184 m 0
 284 184 208 213.333333333 152 272 c 0
 96 330.666666667 68 412 68 516 c 0
 68 621.333333333 94 705 146 767 c 0
 198 829 267.333333333 860 354 860 c 0
 435.333333333 860 500 833.166666667 548 779.5 c 0
 596 725.833333333 620 655 620 567 c 2
 620 505 l 1
 171 505 l 1
 173 428.333333333 192.333333333 370.166666667 229 330.5 c 0
 265.666666667 290.833333333 317.333333333 271 384 271 c 0
 454 271 523.333333333 285.333333333 592 314 c 1
 592 227 l 1
 556.666666667 211.666666667 523.5 200.666666667 492.5 194 c 0
 461.5 187.333333333 424 184 380 184 c 0
354 777 m 0
 302 777 260.333333333 760 229 726 c 0
 197.666666667 692 179 644.666666667 173 584 c 1
 514 584 l 1
 514 646.666666667 500.166666667 694.5 472.5 727.5 c 0
 444.833333333 760.5 405.333333333 777 354 777 c 0
EndSplineSet
Validated: 1
EndChar

StartChar: f
Encoding: 70 102 227
Width: 412
VWidth: 1278
GlyphClass: 2
Flags: W
HStem: 196 21G<134 233> 771 77<233 399> 771 45<17 64.9232> 1047 81.0041<261.117 437.223>
VStem: 134 99<196 771 851 1008.83>
LayerCount: 2
Fore
SplineSet
399 771 m 1xd8
 233 771 l 1xd8
 233 196 l 1
 134 196 l 1
 134 771 l 1
 17 771 l 1
 17 816 l 1xb8
 134 851 l 1
 134 888 l 2
 134 1048.00275482 203.422682877 1128.00413223 342.268048631 1128.00413223 c 0
 342.84417048 1128.00413223 343.421487603 1128.00275482 344 1128 c 0
 378.666666667 1128 419 1121 465 1107 c 1
 439 1028 l 1
 401 1040.66666667 368.666666667 1047 342 1047 c 0
 304.666666667 1047 277.166666667 1034.66666667 259.5 1010 c 0
 241.833333333 985.333333333 233 945.333333333 233 890 c 2
 233 848 l 1
 399 848 l 1
 399 771 l 1xd8
EndSplineSet
Validated: 1
EndChar

StartChar: g
Encoding: 71 103 228
Width: 667
VWidth: 1278
GlyphClass: 2
Flags: W
HStem: -96 74<156.852 473.481> 211 89<219.695 500.955> 431 69<237.094 424.566> 788 72<210.646 423.917 536.805 638>
VStem: 22.9859 95.0141<6.51122 177.478> 75 97<533.803 753.085> 110 87<309.143 423.196> 463 97<529.278 757.607> 535 95<26.9441 192.875>
LayerCount: 2
Fore
SplineSet
638 848 m 1xf4
 638 786 l 1
 518 771 l 1
 529.333333333 757.666666667 539.166666667 739.666666667 547.5 717 c 0
 555.833333333 694.333333333 560 669 560 641 c 0
 560 577 538.166666667 526 494.5 488 c 0
 450.833333333 450 391 431 315 431 c 0
 295.666666667 431 277.666666667 432.666666667 261 436 c 1
 219 414 197.666666667 386 197 352 c 0xf3
 197 334 204.333333333 320.833333333 219 312.5 c 0
 233.666666667 304.166666667 259 300 295 300 c 2
 411 300 l 2
 481.666666667 300 535.833333333 285 573.5 255 c 0
 611.166666667 225 630 181.666666667 630 125 c 0
 630 53 601 -1.83333333333 543 -39.5 c 0
 485 -77.1666666667 400.666666667 -96 290 -96 c 0
 204.666666667 -96 138.666666667 -80 92 -48 c 0
 45.9906103287 -16.4507042254 22.985915493 27.4109634332 22.985915493 83.5850029756 c 0xf880
 22.985915493 84.3874892548 22.9906103287 85.1924882629 23 86 c 0
 23 126 35.6666666667 160.333333333 61 189 c 0
 86.3333333333 217.666666667 122 237 168 247 c 1
 151.333333333 254.333333333 137.5 266 126.5 282 c 0
 115.5 298 110 316.666666667 110 338 c 0xf2
 110 362 116.333333333 382.833333333 129 400.5 c 0
 141.666666667 418.166666667 161.666666667 435.333333333 189 452 c 1
 155 465.333333333 127.5 488.833333333 106.5 522.5 c 0
 85.5 556.166666667 75 594.333333333 75 637 c 0
 75 708.333333333 96.3333333333 763.333333333 139 802 c 0
 181.666666667 840.666666667 242 860 320 860 c 0
 354 860 385 856 413 848 c 1
 638 848 l 1xf4
118 86 m 0xf880
 118 50.6666666667 132.833333333 23.8333333333 162.5 5.5 c 0
 192.166666667 -12.8333333333 235 -22 291 -22 c 0
 373.666666667 -22 435 -9.5 475 15.5 c 0
 515 40.5 535 74.3333333333 535 117 c 0
 535 152.333333333 524 176.833333333 502 190.5 c 0
 480 204.166666667 439 211 379 211 c 2
 261 211 l 2
 216.333333333 211 181.333333333 200.166666667 156 178.5 c 0
 130.666666667 156.833333333 118 126 118 86 c 0xf880
172 640 m 0xf5
 172 594.666666667 184.666666667 560 210 536 c 0
 235.333333333 512 271.333333333 500 318 500 c 0
 414 500 462.333333333 547 463 641 c 0
 463 738.333333333 414 787.333333333 316 788 c 0
 269.333333333 788 233.666666667 775.666666667 209 751 c 0
 184.333333333 726.333333333 172 689.333333333 172 640 c 0xf5
EndSplineSet
Validated: 1
EndChar

StartChar: h
Encoding: 72 104 229
Width: 747
VWidth: 1278
GlyphClass: 2
Flags: W
HStem: 196 21G<105 203 551 649> 776 83<265.264 514.807> 1102 20G<105 203>
VStem: 105 98<196 716.431 759.036 1122> 551 98<196 735.771>
LayerCount: 2
Fore
SplineSet
551 196 m 1
 551 618 l 2
 551 671.333333333 539 711 515 737 c 0
 491 763 453 776 401 776 c 0
 332.333333333 776 282.166666667 757.333333333 250.5 720 c 0
 218.833333333 682.666666667 203 621.666666667 203 537 c 2
 203 196 l 1
 105 196 l 1
 105 1122 l 1
 203 1122 l 1
 203 842 l 2
 203 808 201.666666667 780 199 758 c 1
 205 758 l 1
 224.333333333 789.333333333 252 814 288 832 c 0
 324 850 365 859 411 859 c 0
 491 859 550.666666667 840 590 802 c 0
 629.333333333 764 649 703.666666667 649 621 c 2
 649 196 l 1
 551 196 l 1
EndSplineSet
Validated: 1
EndChar

StartChar: i
Encoding: 73 105 230
Width: 307
VWidth: 1278
GlyphClass: 2
Flags: W
HStem: 196 21G<105 203> 828 20G<105 203> 958 132<113.533 194.952>
VStem: 105 98<196 848 975.535 1073.5>
LayerCount: 2
Fore
SplineSet
203 196 m 1
 105 196 l 1
 105 848 l 1
 203 848 l 1
 203 196 l 1
96 1025 m 4
 96 1047.66666667 101.666666667 1064.16666667 113 1074.5 c 4
 124.333333333 1084.83333333 138.333333333 1090 155 1090 c 4
 171 1090 184.666666667 1084.66666667 196 1074 c 4
 207.333333333 1063.33333333 213 1047 213 1025 c 260
 213 1003 207.166666667 986.333333333 195.5 975 c 4
 183.833333333 963.666666667 170.333333333 958 155 958 c 4
 138.333333333 958 124.333333333 963.666666667 113 975 c 4
 101.666666667 986.333333333 96 1003 96 1025 c 4
EndSplineSet
Validated: 1
EndChar

StartChar: j
Encoding: 74 106 231
Width: 307
VWidth: 1278
GlyphClass: 2
Flags: W
HStem: -96 83<-66 86.7136> 828 20G<105 203> 958 132<113.533 194.952>
VStem: 105 98.0056<12.7878 848 975.535 1073.5>
LayerCount: 2
Fore
SplineSet
26 -96 m 0
 -11.3333333333 -96 -42 -91.3333333333 -66 -82 c 1
 -66 -1 l 1
 -38.6666666667 -9 -11.6666666667 -13 15 -13 c 0
 46.3333333333 -13 69.1666666667 -4.66666666667 83.5 12 c 0
 97.8333333333 28.6666666667 105 54.3333333333 105 89 c 2
 105 848 l 1
 203 848 l 1
 203 96 l 2
 203.003724395 95.2849162011 203.005586592 94.571829843 203.005586592 93.8607409257 c 0
 203.005586592 -32.7130863581 144.003724395 -96 26 -96 c 0
96 1025 m 0
 96 1047.66666667 101.666666667 1064.16666667 113 1074.5 c 0
 124.333333333 1084.83333333 138.333333333 1090 155 1090 c 0
 171 1090 184.666666667 1084.66666667 196 1074 c 0
 207.333333333 1063.33333333 213 1047 213 1025 c 256
 213 1003 207.166666667 986.333333333 195.5 975 c 0
 183.833333333 963.666666667 170.333333333 958 155 958 c 0
 138.333333333 958 124.333333333 963.666666667 113 975 c 0
 101.666666667 986.333333333 96 1003 96 1025 c 0
EndSplineSet
Validated: 1
EndChar

StartChar: k
Encoding: 75 107 232
Width: 639
VWidth: 1278
GlyphClass: 2
Flags: W
HStem: 196 21G<105 202 492.113 626> 828 20G<472.076 608> 1102 20G<105 202>
VStem: 105 97<196 440 532.147 1122>
LayerCount: 2
Fore
SplineSet
202 530 m 1
 219.333333333 554.666666667 245.333333333 586.333333333 280 625 c 2
 491 848 l 1
 608 848 l 1
 344 570 l 1
 626 196 l 1
 507 196 l 1
 277 505 l 1
 202 440 l 1
 202 196 l 1
 105 196 l 1
 105 1122 l 1
 202 1122 l 1
 202 631 l 2
 202 609.666666667 200.333333333 576 197 530 c 1
 202 530 l 1
EndSplineSet
Validated: 1
EndChar

StartChar: l
Encoding: 76 108 233
Width: 307
VWidth: 1278
GlyphClass: 2
Flags: W
HStem: 196 21G<105 203> 1102 20G<105 203>
VStem: 105 98<196 1122>
LayerCount: 2
Fore
SplineSet
203 196 m 1
 105 196 l 1
 105 1122 l 1
 203 1122 l 1
 203 196 l 1
EndSplineSet
Validated: 1
EndChar

StartChar: m
Encoding: 77 109 234
Width: 1133
VWidth: 1278
GlyphClass: 2
Flags: W
HStem: 196 21G<105 203 520 619 936 1034> 776 84<260.798 486.407 674.703 903.5>
VStem: 105 98<196 722.221> 105 80<768.256 848> 520 99<196 721.33> 936 98<196 735.772>
LayerCount: 2
Fore
SplineSet
936 196 m 1xdc
 936 620 l 2
 936 672 925 711 903 737 c 0
 881 763 846.333333333 776 799 776 c 0
 737.666666667 776 692.333333333 758.333333333 663 723 c 0
 633.666666667 687.666666667 619 633.333333333 619 560 c 2
 619 196 l 1
 520 196 l 1
 520 620 l 2
 520 672 508.666666667 711 486 737 c 0
 463.333333333 763 428.666666667 776 382 776 c 0
 320 776 274.666666667 757.5 246 720.5 c 0
 217.333333333 683.5 203 622.666666667 203 538 c 2
 203 196 l 1
 105 196 l 1xec
 105 848 l 1
 185 848 l 1
 201 759 l 1
 206 759 l 1
 224.666666667 791 251 815.833333333 285 833.5 c 0
 319 851.166666667 357 860 399 860 c 0
 501 860 567.333333333 823 598 749 c 1
 604 749 l 1
 623.333333333 783 651.333333333 810 688 830 c 0
 724.666666667 850 766.666666667 860 814 860 c 0
 887.333333333 860 942.333333333 841.166666667 979 803.5 c 0
 1015.66666667 765.833333333 1034 705 1034 621 c 2
 1034 196 l 1
 936 196 l 1xdc
EndSplineSet
Validated: 1
EndChar

StartChar: n
Encoding: 78 110 235
Width: 747
VWidth: 1278
GlyphClass: 2
Flags: W
HStem: 196 21G<105 203 551 649> 776 84<265.643 515.057>
VStem: 105 98<196 716.961> 105 80<768.256 848> 551 98<196 735.771>
LayerCount: 2
Fore
SplineSet
551 196 m 1xd8
 551 618 l 2
 551 671.333333333 539 711 515 737 c 0
 491 763 453 776 401 776 c 0
 333 776 283 757.5 251 720.5 c 0
 219 683.5 203 622.666666667 203 538 c 2
 203 196 l 1
 105 196 l 1xe8
 105 848 l 1
 185 848 l 1
 201 759 l 1
 206 759 l 1
 226.666666667 791 255.166666667 815.833333333 291.5 833.5 c 0
 327.833333333 851.166666667 368.333333333 860 413 860 c 0
 491.666666667 860 550.666666667 841.166666667 590 803.5 c 0
 629.333333333 765.833333333 649 705 649 621 c 2
 649 196 l 1
 551 196 l 1xd8
EndSplineSet
Validated: 1
EndChar

StartChar: o
Encoding: 79 111 236
Width: 735
VWidth: 1278
GlyphClass: 2
Flags: W
HStem: 184 83<242.792 492.499> 776 84<242.693 492.708>
VStem: 68 103<338.489 705.407> 565 102<339.705 702.464>
LayerCount: 2
Fore
SplineSet
667 522 m 0
 667 415.333333333 640.333333333 332.333333333 587 273 c 0
 534.333333333 213.666666667 460.666666667 184 366 184 c 0
 307.333333333 184 255.333333333 197.833333333 210 225.5 c 0
 164.666666667 253.166666667 129.666666667 292.5 105 343.5 c 0
 80.3333333333 394.5 68 454 68 522 c 0
 68 628.666666667 94.6666666667 711.666666667 148 771 c 0
 201.333333333 830.333333333 275.333333333 860 370 860 c 0
 461.333333333 860 533.666666667 829.666666667 587 769 c 0
 640.333333333 708.333333333 667 626 667 522 c 0
171 522 m 0
 171 438.666666667 187.5 375.333333333 220.5 332 c 0
 253.5 288.666666667 302.666666667 267 368 267 c 256
 432.666666667 267 481.666666667 288.666666667 515 332 c 0
 548.333333333 375.333333333 565 438.666666667 565 522 c 0
 565 604.666666667 548.333333333 667.666666667 515 711 c 0
 481.666666667 754.333333333 432 776 366 776 c 0
 301.333333333 776 252.666666667 754.666666667 220 712 c 0
 187.333333333 669.333333333 171 606 171 522 c 0
EndSplineSet
Validated: 1
EndChar

StartChar: p
Encoding: 80 112 237
Width: 746
VWidth: 1278
GlyphClass: 2
Flags: W
HStem: -96 21G<105 203> 184 83<266.359 503.099> 776 84<263.173 507.336>
VStem: 105 98<-96 278.22 327.348 716.438> 105 80<759 848> 576 103<340.606 706.249>
LayerCount: 2
Fore
SplineSet
408 184 m 0xf4
 365.333333333 184 326.5 191.833333333 291.5 207.5 c 0
 256.5 223.166666667 227 247.333333333 203 280 c 1
 196 280 l 1
 200.666666667 242 203 205.666666667 203 171 c 2
 203 -96 l 1
 105 -96 l 1xf4
 105 848 l 1
 185 848 l 1xec
 199 759 l 1
 203 759 l 1
 228.333333333 795 258 820.833333333 292 836.5 c 0
 326 852.166666667 364.666666667 860 408 860 c 0
 494.666666667 860 561.5 830.5 608.5 771.5 c 0
 655.5 712.5 679 629.333333333 679 522 c 256
 679 414.666666667 655.166666667 331.5 607.5 272.5 c 0
 559.833333333 213.5 493.333333333 184 408 184 c 0xf4
394 776 m 0
 327.333333333 776 279.333333333 757.333333333 250 720 c 0
 220.666666667 682.666666667 205 624 203 544 c 2
 203 522 l 2
 203 430 218.333333333 364.5 249 325.5 c 0
 279.666666667 286.5 328.666666667 267 396 267 c 0
 452 267 496 289.666666667 528 335 c 0
 560 380.333333333 576 443.333333333 576 524 c 0
 576 605.333333333 560.166666667 667.666666667 528.5 711 c 0
 496.833333333 754.333333333 452 776 394 776 c 0
EndSplineSet
Validated: 1
EndChar

StartChar: q
Encoding: 81 113 238
Width: 746
VWidth: 1278
GlyphClass: 2
Flags: W
HStem: -96 21G<543 642> 184 83<236.933 482.527> 777 83<239.904 478.612>
VStem: 68 103<332.98 707.527> 543 99<-96 282.683 323.384 713.706> 564 78<759 848>
LayerCount: 2
Fore
SplineSet
351 267 m 0xf8
 417 267 465.166666667 284.666666667 495.5 320 c 0
 525.833333333 355.333333333 541.666666667 415 543 499 c 1
 543 521 l 2
 543 612.333333333 527.5 677.833333333 496.5 717.5 c 0
 465.5 757.166666667 416.666666667 777 350 777 c 0
 292 777 247.666666667 754.5 217 709.5 c 0
 186.333333333 664.5 171 601 171 519 c 256
 171 437 186.166666667 374.5 216.5 331.5 c 0
 246.833333333 288.5 291.666666667 267 351 267 c 0xf8
337 184 m 0
 253 184 187 213.666666667 139 273 c 0
 91.6666666667 333 68 415.666666667 68 521 c 0
 68 627.666666667 91.8333333333 710.833333333 139.5 770.5 c 0
 187.166666667 830.166666667 253.333333333 860 338 860 c 0
 427.333333333 860 496 826.333333333 544 759 c 1
 550 759 l 1
 564 848 l 1
 642 848 l 1xf4
 642 -96 l 1
 543 -96 l 1
 543 182 l 2
 543 222 545.333333333 256 550 284 c 1
 542 284 l 1
 497.333333333 217.333333333 429 184 337 184 c 0
EndSplineSet
Validated: 1
EndChar

StartChar: r
Encoding: 82 114 239
Width: 497
VWidth: 1278
GlyphClass: 2
Flags: W
HStem: 196 21G<105 203> 771 89<281.02 467.687>
VStem: 105 98<196 691.422> 105 81<727 848>
LayerCount: 2
Fore
SplineSet
402 860 m 0xd0
 430.666666667 860 456.666666667 857.666666667 480 853 c 1
 467 761 l 1
 439.666666667 767 415.666666667 770.333333333 395 771 c 0
 342.333333333 771 297.166666667 749.333333333 259.5 706 c 0
 221.833333333 662.666666667 203 609.333333333 203 546 c 2
 203 196 l 1
 105 196 l 1xe0
 105 848 l 1
 186 848 l 1
 197 727 l 1
 202 727 l 1
 226.666666667 769.666666667 256 802.5 290 825.5 c 0
 324 848.5 361.333333333 860 402 860 c 0xd0
EndSplineSet
Validated: 1
EndChar

StartChar: s
Encoding: 83 115 240
Width: 580
VWidth: 1278
GlyphClass: 2
Flags: W
HStem: 184 82<86.8926 396.62> 777.024 82.9762<193.103 473.984>
VStem: 63 94<622.111 756.904> 430 95<290.148 439.086>
LayerCount: 2
Fore
SplineSet
525 374 m 0
 525 313.333333333 502.333333333 266.5 457 233.5 c 0
 411.666666667 200.5 348.333333333 184 267 184 c 0
 180.333333333 184 113 197.666666667 65 225 c 1
 65 317 l 1
 96.3333333333 301 129.833333333 288.5 165.5 279.5 c 0
 201.166666667 270.5 235.666666667 266 269 266 c 0
 320.333333333 266 360 274.166666667 388 290.5 c 0
 416 306.833333333 430 332 430 366 c 0
 430 391.333333333 419 413 397 431 c 0
 375 449 332.333333333 470 269 494 c 0
 208.333333333 516.666666667 165 536.5 139 553.5 c 0
 113 570.5 93.8333333333 589.666666667 81.5 611 c 0
 69.1666666667 632.333333333 63 658 63 688 c 0
 63 741.333333333 84.6666666667 783.333333333 128 814 c 0
 171.333333333 844.666666667 230.666666667 860 306 860 c 0
 376 860 444.666666667 845.666666667 512 817 c 1
 477 737 l 1
 412.571428571 763.682539683 354.1781935 777.023809524 301.820294785 777.023809524 c 0
 300.543272865 777.023809524 299.26984127 777.015873016 298 777 c 0
 250.666666667 777 215.333333333 769.666666667 192 755 c 0
 168.666666667 740.333333333 157 720.333333333 157 695 c 0
 157 677.666666667 161.5 662.666666667 170.5 650 c 0
 179.5 637.333333333 193.833333333 625.5 213.5 614.5 c 0
 233.166666667 603.5 271.333333333 587.666666667 328 567 c 0
 405.333333333 539 457.5 510.666666667 484.5 482 c 0
 511.5 453.333333333 525 417.333333333 525 374 c 0
EndSplineSet
Validated: 1
EndChar

StartChar: t
Encoding: 84 116 241
Width: 430
VWidth: 1278
GlyphClass: 2
Flags: W
HStem: 184 82<239.88 404.496> 771 77<211 400>
VStem: 112 99<297.976 771> 154 57<951.555 999>
LayerCount: 2
Fore
SplineSet
315 266 m 0xe0
 332.333333333 266 349.166666667 267.166666667 365.5 269.5 c 0
 381.833333333 271.833333333 395 274.666666667 405 278 c 1
 405 202 l 1
 394.333333333 196.666666667 378.5 192.333333333 357.5 189 c 0
 336.5 185.666666667 317.666666667 184 301 184 c 0
 174.996509599 184 111.994764398 249.640561754 111.994764398 380.921685261 c 0
 111.994764398 381.612638542 111.996509599 382.305410122 112 383 c 2
 112 771 l 1
 19 771 l 1
 19 819 l 1
 112 860 l 1xe0
 154 999 l 1
 211 999 l 1
 211 848 l 1xd0
 400 848 l 1
 400 771 l 1
 211 771 l 1
 211 387 l 2
 211 347.666666667 220.333333333 317.666666667 239 297 c 0
 257.666666667 276.333333333 283 266 315 266 c 0xe0
EndSplineSet
Validated: 1
EndChar

StartChar: u
Encoding: 85 117 242
Width: 747
VWidth: 1278
GlyphClass: 2
Flags: W
HStem: 184 83<234.223 482.769> 828 20G<98 197 544 643>
VStem: 98 99<307.744 848> 544 99<326.568 848> 562 81<196 280.105>
LayerCount: 2
Fore
SplineSet
197 848 m 1xe8
 197 426 l 2
 197 372.666666667 209.166666667 332.833333333 233.5 306.5 c 0
 257.833333333 280.166666667 296 267 348 267 c 0
 416 267 465.666666667 285.666666667 497 323 c 0
 528.333333333 360.333333333 544 421 544 505 c 2
 544 848 l 1
 643 848 l 1xf0
 643 196 l 1
 562 196 l 1
 547 284 l 1
 542 284 l 1
 521.333333333 252 493.166666667 227.333333333 457.5 210 c 0
 421.833333333 192.666666667 381 184 335 184 c 0
 255.666666667 184 196.333333333 202.833333333 157 240.5 c 0
 117.666666667 278.166666667 98 338.333333333 98 421 c 2
 98 848 l 1
 197 848 l 1xe8
EndSplineSet
Validated: 1
EndChar

StartChar: v
Encoding: 86 118 243
Width: 610
VWidth: 1278
GlyphClass: 2
Flags: W
HStem: 196 89<290.766 319.605> 828 20G<0 113.235 464.333 610>
VStem: 0 610
LayerCount: 2
Fore
SplineSet
247 196 m 1
 0 848 l 1
 106 848 l 1
 246 461 l 2
 278 370.333333333 297 311.666666667 303 285 c 1
 307 285 l 1
 311.666666667 305.666666667 325.5 349.166666667 348.5 415.5 c 0
 371.5 481.833333333 423.666666667 626 505 848 c 1
 610 848 l 1
 363 196 l 1
 247 196 l 1
EndSplineSet
Validated: 1
EndChar

StartChar: w
Encoding: 87 119 244
Width: 947
VWidth: 1278
GlyphClass: 2
Flags: W
HStem: 196 105<243.79 266.248 682.589 703.451> 828 20G<14 138 415.636 535.257 794.333 935>
VStem: 832 103<796.072 848>
LayerCount: 2
Fore
SplineSet
638 196 m 1
 518 578 l 2
 510.666666667 601.333333333 496.333333333 654.666666667 475 738 c 1
 471 738 l 1
 455 668.666666667 441 615.333333333 429 578 c 2
 306 196 l 1
 191 196 l 1
 14 848 l 1
 117 848 l 1
 159 684 191 559.333333333 213 474 c 0
 235 388.666666667 247.666666667 331 251 301 c 1
 256 301 l 1
 260.666666667 323.666666667 267.833333333 352.833333333 277.5 388.5 c 0
 287.166666667 424.166666667 295.666666667 452.666666667 303 474 c 2
 422 848 l 1
 529 848 l 1
 646 474 l 2
 668 406 683 348.666666667 691 302 c 1
 695 302 l 1
 697 316 701.5 338 708.5 368 c 0
 715.5 398 756.666666667 558 832 848 c 1
 935 848 l 1
 755 196 l 1
 638 196 l 1
EndSplineSet
Validated: 1
EndChar

StartChar: x
Encoding: 88 120 245
Width: 638
VWidth: 1278
GlyphClass: 2
Flags: W
HStem: 196 652
VStem: 23 591
LayerCount: 2
Fore
SplineSet
262 530 m 1
 35 848 l 1
 148 848 l 1
 320 598 l 1
 491 848 l 1
 602 848 l 1
 376 530 l 1
 614 196 l 1
 502 196 l 1
 320 460 l 1
 135 196 l 1
 23 196 l 1
 262 530 l 1
EndSplineSet
Validated: 1
EndChar

StartChar: y
Encoding: 89 121 246
Width: 613
VWidth: 1278
GlyphClass: 2
Flags: W
HStem: -96 81<9 180.9> 828 20G<1 114.688 461.333 613>
VStem: 1 612
LayerCount: 2
Fore
SplineSet
1 848 m 1
 107 848 l 1
 250 476 l 2
 281.333333333 390.666666667 301 329.333333333 309 292 c 1
 313 292 l 1
 318.333333333 312.666666667 329.166666667 347.5 345.5 396.5 c 0
 361.833333333 445.5 415.666666667 596 507 848 c 1
 613 848 l 1
 332 106 l 2
 304 32.6666666667 271.5 -19.3333333333 234.5 -50 c 0
 197.5 -80.6666666667 152.333333333 -96 99 -96 c 0
 69 -96 39 -92.6666666667 9 -86 c 1
 9 -7 l 1
 30.3333333333 -11.6666666667 54.6666666667 -14.3333333333 82 -15 c 0
 150 -15 198.666666667 23.3333333333 228 100 c 2
 264 193 l 1
 1 848 l 1
EndSplineSet
Validated: 1
EndChar

StartChar: z
Encoding: 90 122 247
Width: 569
VWidth: 1278
GlyphClass: 2
Flags: W
HStem: 196 76<162 522> 771 77<71 405>
VStem: 48 474<196 263>
LayerCount: 2
Fore
SplineSet
522 196 m 1
 48 196 l 1
 48 263 l 1
 405 771 l 1
 71 771 l 1
 71 848 l 1
 513 848 l 1
 513 771 l 1
 162 272 l 1
 522 272 l 1
 522 196 l 1
EndSplineSet
Validated: 1
EndChar

StartChar: braceleft
Encoding: 91 123 248
Width: 470
VWidth: 1278
GlyphClass: 2
Flags: W
HStem: 0 83<318.102 420> 493 83<40 144.836> 983 83<306.561 420>
VStem: 40 110<518.824 550.316> 183 99<113.367 465.663 604.882 958.938>
LayerCount: 2
Fore
SplineSet
282 200 m 2
 282 160 293.666666667 130.833333333 317 112.5 c 0
 340.333333333 94.1666666667 374.666666667 84.3333333333 420 83 c 1
 420 0 l 1
 344.666666667 0.666666666667 286.333333333 18 245 52 c 0
 203.666666667 86 183 133.333333333 183 194 c 2
 183 378 l 2
 183 419.333333333 171 448.833333333 147 466.5 c 0
 123 484.166666667 87.3333333333 493 40 493 c 1
 40 576 l 1
 86 576 121.333333333 585.333333333 146 604 c 0
 170.666666667 622.666666667 183 651 183 689 c 2
 183 871 l 2
 183 932.333333333 204.333333333 980.166666667 247 1014.5 c 0
 289.666666667 1048.83333333 347.333333333 1066 420 1066 c 1
 420 983 l 1
 328 981 282 941.666666667 282 865 c 2
 282 689 l 2
 282 603.666666667 238 553.333333333 150 538 c 1
 150 531 l 1
 238 515.666666667 282 466.666666667 282 384 c 0
 282 383 282 383 282 382 c 0
 282 381 282 381 282 380 c 2
 282 200 l 2
EndSplineSet
Validated: 1
EndChar

StartChar: bar
Encoding: 92 124 249
Width: 600
VWidth: 1278
GlyphClass: 2
Flags: W
HStem: -96 21G<260 345> 1046 20G<260 345>
VStem: 260 85<-96 1066>
LayerCount: 2
Fore
SplineSet
260 1066 m 1
 345 1066 l 1
 345 -96 l 5
 260 -96 l 5
 260 1066 l 1
EndSplineSet
Validated: 1
EndChar

StartChar: braceright
Encoding: 93 125 250
Width: 471
VWidth: 1278
GlyphClass: 2
Flags: W
HStem: -1 83<50 149.899> 493 83<323.649 431> 983 83<50 161.479>
VStem: 186 100<111.368 465.148 605.336 958.937> 318 113<519.34 549.983>
LayerCount: 2
Fore
SplineSet
318 538 m 1
 272 546 238.333333333 562.666666667 217 588 c 0
 196.333333333 612.666666667 186 645.666666667 186 687 c 0
 186 688 186 688 186 689 c 2
 186 865 l 2
 186 941.666666667 140.666666667 981 50 983 c 1
 50 1066 l 1
 123.333333333 1066 181 1048.83333333 223 1014.5 c 0
 265 980.166666667 286 932.333333333 286 871 c 2
 286 689 l 2
 286 650.333333333 297.333333333 622.166666667 320 604.5 c 0
 342.666666667 586.833333333 379.666666667 577.333333333 431 576 c 1
 431 493 l 1
 383 493 346.833333333 484 322.5 466 c 0
 298.166666667 448 286 418.666666667 286 378 c 2
 286 193 l 2
 286 132.333333333 265.666666667 85.1666666667 225 51.5 c 0
 184.333333333 17.8333333333 126 0.333333333333 50 -1 c 1
 50 82 l 1
 94 82.6666666667 127.666666667 92.1666666667 151 110.5 c 0
 174.333333333 128.833333333 186 158.333333333 186 199 c 2
 186 380 l 2
 186 425.333333333 196.833333333 459.833333333 218.5 483.5 c 0
 240.166666667 507.166666667 273.333333333 523 318 531 c 1
 318 538 l 1
EndSplineSet
Validated: 1
EndChar

StartChar: asciitilde
Encoding: 94 126 251
Width: 696
VWidth: 1278
GlyphClass: 2
Flags: W
HStem: 558 83<347.405 598.772> 630 83<97.7104 347.405>
VStem: 62 572
LayerCount: 2
Fore
SplineSet
201 630 m 4x60
 180.333333333 630 157.333333333 623.333333333 132 610 c 4
 106.666666667 596.666666667 83.3333333333 579.333333333 62 558 c 5xa0
 62 648 l 5
 102 691.333333333 150.333333333 713 207 713 c 4x60
 234.333333333 713 259 710.166666667 281 704.5 c 4
 303 698.833333333 332 688.666666667 368 674 c 4
 394 662.666666667 416.666666667 654.333333333 436 649 c 4
 455.333333333 643.666666667 474.333333333 641 493 641 c 4xa0
 514.333333333 641 537.833333333 647.333333333 563.5 660 c 4
 589.166666667 672.666666667 612.666666667 690.333333333 634 713 c 5x60
 634 623 l 5
 594 579.666666667 545.666666667 558 489 558 c 4xa0
 461 558 434.333333333 561.333333333 409 568 c 4
 383.666666667 574.666666667 356.666666667 584.333333333 328 597 c 4
 298.666666667 609.666666667 275 618.333333333 257 623 c 4
 239 627.666666667 220.333333333 630 201 630 c 4x60
EndSplineSet
Validated: 1
EndChar

StartChar: copyright
Encoding: 96 169 253
Width: 1013
VWidth: 1278
GlyphClass: 2
Flags: W
HStem: 184 62<357.423 657.416> 359 76<424.96 653.393> 826 76<429.418 657.907> 1016 62<356.506 657.418>
VStem: 60 62<481.89 781.418> 286 91<479.89 776.645> 892 63<480.142 782.824>
LayerCount: 2
Fore
SplineSet
531 826 m 0
 481 826 442.833333333 808.833333333 416.5 774.5 c 0
 390.166666667 740.166666667 377 692.333333333 377 631 c 0
 377 564.333333333 389.5 515 414.5 483 c 0
 439.5 451 478 435 530 435 c 0
 564 435 605.666666667 443.666666667 655 461 c 1
 655 387 l 1
 635.666666667 379 616.166666667 372.333333333 596.5 367 c 0
 576.833333333 361.666666667 553 359 525 359 c 0
 447.666666667 359 388.5 382.833333333 347.5 430.5 c 0
 306.5 478.166666667 286 545 286 631 c 0
 286 713.666666667 307.833333333 779.5 351.5 828.5 c 0
 395.166666667 877.5 455 902 531 902 c 0
 581.666666667 902 630.333333333 890 677 866 c 1
 643 796 l 1
 600.333333333 816 563 826 531 826 c 0
60 631 m 0
 60 710.333333333 79.6666666667 784.666666667 119 854 c 0
 158.333333333 923.333333333 212.833333333 978 282.5 1018 c 0
 352.166666667 1058 427 1078 507 1078 c 0
 586.333333333 1078 660.666666667 1058.16666667 730 1018.5 c 0
 799.333333333 978.833333333 854.166666667 924.333333333 894.5 855 c 0
 934.833333333 785.666666667 955 711 955 631 c 0
 955 553 935.666666667 479.666666667 897 411 c 0
 858.333333333 342.333333333 804.333333333 287.333333333 735 246 c 0
 665.666666667 204.666666667 589.666666667 184 507 184 c 0
 425 184 349.166666667 204.5 279.5 245.5 c 0
 209.833333333 286.5 155.833333333 341.333333333 117.5 410 c 0
 79.1666666667 478.666666667 60 552.333333333 60 631 c 0
122 631 m 0
 122 562.333333333 139.166666667 498.166666667 173.5 438.5 c 0
 207.833333333 378.833333333 255 331.833333333 315 297.5 c 0
 375 263.166666667 439 246 507 246 c 0
 576.333333333 246 640.5 263.333333333 699.5 298 c 0
 758.5 332.666666667 805.333333333 379.333333333 840 438 c 0
 874.666666667 496.666666667 892 561 892 631 c 0
 892 700.333333333 874.833333333 764.5 840.5 823.5 c 0
 806.166666667 882.5 759.5 929.333333333 700.5 964 c 0
 641.5 998.666666667 577 1016 507 1016 c 0
 437.666666667 1016 373.5 998.833333333 314.5 964.5 c 0
 255.5 930.166666667 208.666666667 883.5 174 824.5 c 0
 139.333333333 765.5 122 701 122 631 c 0
EndSplineSet
Validated: 1
Ligature2: "'rlig' Reguired Ligatures 1" uni0028 c uni0029
EndChar

StartChar: registered
Encoding: 97 174 254
Width: 1013
VWidth: 1278
GlyphClass: 2
Flags: W
HStem: 184 62<357.423 657.416> 576 73<430 511> 820 76<430 573.18> 1016 62<356.506 657.418>
VStem: 60 62<481.89 781.418> 342 88<366 576 649 820> 600 88<669.295 804.859> 892 63<480.142 782.824>
LayerCount: 2
Fore
SplineSet
430 649 m 1
 495 649 l 2
 527 649 552.5 657.333333333 571.5 674 c 0
 590.5 690.666666667 600 711.666666667 600 737 c 0
 600 766.333333333 591.333333333 787.5 574 800.5 c 0
 556.666666667 813.5 529.666666667 820 493 820 c 2
 430 820 l 1
 430 649 l 1
688 739 m 0
 688 707 679.666666667 678.833333333 663 654.5 c 0
 646.333333333 630.166666667 622.666666667 612.333333333 592 601 c 1
 734 366 l 1
 634 366 l 1
 511 576 l 1
 430 576 l 1
 430 366 l 1
 342 366 l 1
 342 896 l 1
 497 896 l 2
 563 896 611.333333333 883 642 857 c 0
 672.666666667 831 688 791.666666667 688 739 c 0
60 631 m 0
 60 710.333333333 79.6666666667 784.666666667 119 854 c 0
 158.333333333 923.333333333 212.833333333 978 282.5 1018 c 0
 352.166666667 1058 427 1078 507 1078 c 0
 586.333333333 1078 660.666666667 1058.16666667 730 1018.5 c 0
 799.333333333 978.833333333 854.166666667 924.333333333 894.5 855 c 0
 934.833333333 785.666666667 955 711 955 631 c 0
 955 553 935.666666667 479.666666667 897 411 c 0
 858.333333333 342.333333333 804.333333333 287.333333333 735 246 c 0
 665.666666667 204.666666667 589.666666667 184 507 184 c 0
 425 184 349.166666667 204.5 279.5 245.5 c 0
 209.833333333 286.5 155.833333333 341.333333333 117.5 410 c 0
 79.1666666667 478.666666667 60 552.333333333 60 631 c 0
122 631 m 0
 122 562.333333333 139.166666667 498.166666667 173.5 438.5 c 0
 207.833333333 378.833333333 255 331.833333333 315 297.5 c 0
 375 263.166666667 439 246 507 246 c 0
 576.333333333 246 640.5 263.333333333 699.5 298 c 0
 758.5 332.666666667 805.333333333 379.333333333 840 438 c 0
 874.666666667 496.666666667 892 561 892 631 c 0
 892 700.333333333 874.833333333 764.5 840.5 823.5 c 0
 806.166666667 882.5 759.5 929.333333333 700.5 964 c 0
 641.5 998.666666667 577 1016 507 1016 c 0
 437.666666667 1016 373.5 998.833333333 314.5 964.5 c 0
 255.5 930.166666667 208.666666667 883.5 174 824.5 c 0
 139.333333333 765.5 122 701 122 631 c 0
EndSplineSet
Validated: 1
Ligature2: "'rlig' Reguired Ligatures 1" uni0028 r uni0029
EndChar

StartChar: plusminus
Encoding: 98 177 255
Width: 696
VWidth: 1278
GlyphClass: 2
Flags: W
HStem: 197 81<62 634> 584 83<62 306 388 634>
VStem: 306 82<331 584 667 921>
LayerCount: 2
Fore
SplineSet
388 667 m 5
 634 667 l 5
 634 584 l 5
 388 584 l 5
 388 331 l 5
 306 331 l 5
 306 584 l 5
 62 584 l 5
 62 667 l 5
 306 667 l 5
 306 921 l 5
 388 921 l 5
 388 667 l 5
62 197 m 5
 62 278 l 5
 634 278 l 5
 634 197 l 5
 62 197 l 5
EndSplineSet
Validated: 1
Ligature2: "'rlig' Reguired Ligatures 1" plus hyphen
EndChar

StartChar: afii10023
Encoding: 99 1025 256
Width: 677
VWidth: 1278
GlyphClass: 2
Flags: W
HStem: 196 90<221 604> 607 89<221 581> 976 90<221 604> 1173 131<226.533 308.467 440.533 522.952>
VStem: 120 101<286 607 696 976> 209 117<1190.02 1287.5> 423 118<1190.02 1287.5>
LayerCount: 2
Fore
SplineSet
423 1239 m 4xf2
 423 1261.66666667 428.666666667 1278.16666667 440 1288.5 c 4
 451.333333333 1298.83333333 465.333333333 1304 482 1304 c 4
 498 1304 511.833333333 1298.66666667 523.5 1288 c 4
 535.166666667 1277.33333333 541 1261 541 1239 c 260
 541 1217 535.166666667 1200.5 523.5 1189.5 c 4
 511.833333333 1178.5 498 1173 482 1173 c 4
 465.333333333 1173 451.333333333 1178.5 440 1189.5 c 4
 428.666666667 1200.5 423 1217 423 1239 c 4xf2
209 1239 m 0xf6
 209 1261.66666667 214.666666667 1278.16666667 226 1288.5 c 0
 237.333333333 1298.83333333 251.333333333 1304 268 1304 c 0
 284 1304 297.666666667 1298.66666667 309 1288 c 0
 320.333333333 1277.33333333 326 1261 326 1239 c 256
 326 1217 320.333333333 1200.5 309 1189.5 c 0
 297.666666667 1178.5 284 1173 268 1173 c 0
 251.333333333 1173 237.333333333 1178.5 226 1189.5 c 0
 214.666666667 1200.5 209 1217 209 1239 c 0xf6
604 196 m 1
 120 196 l 1
 120 1066 l 1
 604 1066 l 1
 604 976 l 1
 221 976 l 1
 221 696 l 1
 581 696 l 1
 581 607 l 1
 221 607 l 1
 221 286 l 1xfa
 604 286 l 1
 604 196 l 1
EndSplineSet
Validated: 1
EndChar

StartChar: afii10017
Encoding: 100 1040 257
Width: 770
VWidth: 1278
GlyphClass: 2
Flags: W
HStem: 196 21G<0 109.726 658.202 771> 473 91<245 527> 1050 20G<336.128 436.826>
LayerCount: 2
Fore
SplineSet
666 196 m 1
 558 473 l 1
 209 473 l 1
 102 196 l 1
 0 196 l 1
 344 1070 l 1
 429 1070 l 1
 771 196 l 1
 666 196 l 1
527 564 m 1
 425 834 l 2
 411.666666667 868 398.333333333 909.333333333 385 958 c 1
 376.333333333 920.666666667 364 879.333333333 348 834 c 2
 245 564 l 1
 527 564 l 1
EndSplineSet
Validated: 1
EndChar

StartChar: afii10018
Encoding: 101 1041 258
Width: 746
VWidth: 1278
GlyphClass: 2
Flags: W
HStem: 196 88<221 525.876> 606 89<221 524.84> 976 90<221 632>
VStem: 120 101<284 606 695 976> 579 104<329.513 563.077>
LayerCount: 2
Fore
SplineSet
683 449 m 0
 683 362.333333333 657.5 298.5 606.5 257.5 c 0
 555.5 216.5 478 196 374 196 c 2
 120 196 l 1
 120 1066 l 1
 632 1066 l 1
 632 976 l 1
 221 976 l 1
 221 695 l 1
 356 695 l 2
 432.666666667 695 495 686 543 668 c 0
 591 650 626.333333333 623.666666667 649 589 c 0
 671.666666667 554.333333333 683 507.666666667 683 449 c 0
221 284 m 1
 363 284 l 2
 438.333333333 284 493.166666667 296.833333333 527.5 322.5 c 0
 561.833333333 348.166666667 579 390.333333333 579 449 c 0
 579 505 561.5 545.166666667 526.5 569.5 c 0
 491.5 593.833333333 430.666666667 606 344 606 c 2
 221 606 l 1
 221 284 l 1
EndSplineSet
Validated: 1
EndChar

StartChar: afii10019
Encoding: 102 1042 259
Width: 788
VWidth: 1278
GlyphClass: 2
Flags: W
HStem: 196 87<221 562.008> 607 86<221 532.953> 978 88<221 534.36>
VStem: 120 101<283 607 693 978> 588 106<728.193 939.678> 614 108<331.075 562.002>
LayerCount: 2
Fore
SplineSet
120 1066 m 1xf4
 366 1066 l 2
 480.666666667 1066 564 1048.66666667 616 1014 c 0
 668 979.333333333 694 924.666666667 694 850 c 0xf8
 694 798.666666667 679.5 756.333333333 650.5 723 c 0
 621.5 689.666666667 579.333333333 668 524 658 c 1
 524 652 l 1
 656 629.333333333 722 559.666666667 722 443 c 0
 722 365.666666667 695.666666667 305.166666667 643 261.5 c 0
 590.333333333 217.833333333 517 196 423 196 c 2
 120 196 l 1
 120 1066 l 1xf4
221 693 m 1
 388 693 l 2
 459.333333333 693 510.5 704.166666667 541.5 726.5 c 0
 572.5 748.833333333 588 786.666666667 588 840 c 0
 588 888.666666667 570.666666667 923.833333333 536 945.5 c 0
 501.333333333 967.166666667 446 978 370 978 c 2
 221 978 l 1
 221 693 l 1
221 607 m 1
 221 283 l 1
 402 283 l 2
 472 283 524.833333333 296.333333333 560.5 323 c 0
 596.166666667 349.666666667 614 392.333333333 614 451 c 0xf4
 614 505 595.833333333 544.5 559.5 569.5 c 0
 523.166666667 594.5 468 607 394 607 c 2
 221 607 l 1
EndSplineSet
Validated: 1
EndChar

StartChar: afii10020
Encoding: 103 1043 260
Width: 633
VWidth: 1278
GlyphClass: 2
Flags: W
HStem: 196 21G<120 221> 975 91<221 604>
VStem: 120 101<196 975>
LayerCount: 2
Fore
SplineSet
604 1066 m 1
 604 975 l 1
 221 975 l 1
 221 196 l 1
 120 196 l 1
 120 1066 l 1
 604 1066 l 1
EndSplineSet
Validated: 1
EndChar

StartChar: afii10021
Encoding: 104 1044 261
Width: 832
VWidth: 1278
GlyphClass: 2
Flags: W
HStem: -31 319<8 101.341 709 806> 196 92<182 594 695 709> 975 91<391.917 594>
VStem: 8 97<-31 196> 594 101<288 975> 709 97<-31 196>
LayerCount: 2
Fore
SplineSet
806 -31 m 1xbc
 709 -31 l 1xbc
 709 196 l 1
 105 196 l 1x7c
 105 -31 l 1
 8 -31 l 1
 8 288 l 1
 76 288 l 1xbc
 137.333333333 390.666666667 189.666666667 515.5 233 662.5 c 0
 276.333333333 809.5 300 944 304 1066 c 1
 695 1066 l 1
 695 288 l 1x7c
 806 288 l 1
 806 -31 l 1xbc
594 288 m 1x7c
 594 975 l 1
 396 975 l 1
 388.666666667 879 364.666666667 763.666666667 324 629 c 0
 284 494.333333333 236.666666667 380.666666667 182 288 c 1
 594 288 l 1x7c
EndSplineSet
Validated: 1
EndChar

StartChar: afii10022
Encoding: 105 1045 262
Width: 677
VWidth: 1278
GlyphClass: 2
Flags: W
HStem: 196 90<221 604> 607 89<221 581> 976 90<221 604>
VStem: 120 101<286 607 696 976>
LayerCount: 2
Fore
SplineSet
604 196 m 1
 120 196 l 1
 120 1066 l 1
 604 1066 l 1
 604 976 l 1
 221 976 l 1
 221 696 l 1
 581 696 l 1
 581 607 l 1
 221 607 l 1
 221 286 l 1
 604 286 l 1
 604 196 l 1
EndSplineSet
Validated: 1
EndChar

StartChar: afii10024
Encoding: 106 1046 263
Width: 1028
VWidth: 1278
GlyphClass: 2
Flags: W
HStem: 196 21G<1 135.646 465 563 894.263 1026> 1046 20G<14 143.057 465 563 885.895 1015>
VStem: 465 98<196 637 645 1066>
LayerCount: 2
Fore
SplineSet
356 643 m 1
 14 1066 l 1
 127 1066 l 1
 465 645 l 1
 465 1066 l 1
 563 1066 l 1
 563 645 l 1
 902 1066 l 1
 1015 1066 l 1
 672 645 l 1
 1026 196 l 1
 910 196 l 1
 563 637 l 1
 563 196 l 1
 465 196 l 1
 465 637 l 1
 120 196 l 1
 1 196 l 1
 356 643 l 1
EndSplineSet
Validated: 1
EndChar

StartChar: afii10025
Encoding: 107 1047 264
Width: 708
VWidth: 1278
GlyphClass: 2
Flags: W
HStem: 184 84<79.7458 467.506> 603 85<138 448.893> 994 84<155.905 471.022>
VStem: 518 106<749.529 953.463> 534 107<327.011 545.189>
LayerCount: 2
Fore
SplineSet
624 862 m 0xf0
 624 804.666666667 605.833333333 758.166666667 569.5 722.5 c 0
 533.166666667 686.833333333 483.333333333 664.333333333 420 655 c 1
 420 651 l 1
 492.666666667 641 547.666666667 618 585 582 c 0
 622.333333333 546 641 499.333333333 641 442 c 0
 641 360.666666667 610.666666667 297.333333333 550 252 c 0
 489.333333333 206.666666667 403.333333333 184 292 184 c 0
 191.333333333 184 108.666666667 199.666666667 44 231 c 1
 44 325 l 1
 82 307 123.166666667 293 167.5 283 c 0
 211.833333333 273 254.333333333 268 295 268 c 0
 373.666666667 268 433.166666667 283 473.5 313 c 0
 513.833333333 343 534 385.666666667 534 441 c 0xe8
 534 494.333333333 511.666666667 534.666666667 467 562 c 0
 422.333333333 589.333333333 355.666666667 603 267 603 c 2
 138 603 l 1
 138 688 l 1
 262 688 l 2
 343.333333333 688 406.333333333 702.666666667 451 732 c 0
 495.666666667 761.333333333 518 802 518 854 c 0
 518 896.666666667 502 930.666666667 470 956 c 0
 438 981.333333333 394.666666667 994 340 994 c 0
 296.666666667 994 257.166666667 989 221.5 979 c 0
 185.833333333 969 145 949.333333333 99 920 c 1
 48 988 l 1
 88 1017.33333333 133 1039.66666667 183 1055 c 0
 233 1070.33333333 284.666666667 1078 338 1078 c 0
 427.333333333 1078 497.333333333 1058.5 548 1019.5 c 0
 598.666666667 980.5 624 928 624 862 c 0xf0
EndSplineSet
Validated: 1
EndChar

StartChar: afii10026
Encoding: 108 1048 265
Width: 928
VWidth: 1278
GlyphClass: 2
Flags: W
HStem: 196 21G<121 244.397 715 810> 1046 20G<121 215 686.556 810>
VStem: 121 94<343.381 1066> 715 95<196 921.909>
LayerCount: 2
Fore
SplineSet
121 1066 m 1
 215 1066 l 1
 215 582 l 2
 215 492.666666667 212.333333333 412 207 340 c 1
 212 340 l 1
 700 1066 l 1
 810 1066 l 1
 810 196 l 1
 715 196 l 1
 715 675 l 2
 715 755 718.333333333 838.666666667 725 926 c 1
 720 926 l 1
 231 196 l 1
 121 196 l 1
 121 1066 l 1
EndSplineSet
Validated: 1
EndChar

StartChar: afii10027
Encoding: 109 1049 266
Width: 928
VWidth: 1278
GlyphClass: 2
Flags: W
HStem: 196 21G<121 244.397 715 810> 1046 20G<121 215 686.556 810> 1135 73<384.168 578.918>
VStem: 121 94<343.381 1066> 264 93<1232.76 1318> 610 94<1234.82 1318> 715 95<196 921.909>
LayerCount: 2
Fore
SplineSet
121 1066 m 1
 215 1066 l 1
 215 582 l 2
 215 492.666666667 212.333333333 412 207 340 c 1
 212 340 l 1
 700 1066 l 1
 810 1066 l 1
 810 196 l 1
 715 196 l 1
 715 675 l 2
 715 755 718.333333333 838.666666667 725 926 c 1
 720 926 l 1
 231 196 l 1
 121 196 l 1
 121 1066 l 1
481 1135 m 0
 407.666666667 1135 354.166666667 1149.16666667 320.5 1177.5 c 0
 286.833333333 1205.83333333 268 1252.66666667 264 1318 c 1
 357 1318 l 1
 360.333333333 1276.66666667 371 1248 389 1232 c 0
 407 1216 438.666666667 1208 484 1208 c 0
 524.666666667 1208 554.833333333 1216.66666667 574.5 1234 c 0
 594.166666667 1251.33333333 606 1279.33333333 610 1318 c 1
 704 1318 l 1
 699.333333333 1255.33333333 679.333333333 1209.16666667 644 1179.5 c 0
 608.666666667 1149.83333333 554.333333333 1135 481 1135 c 0
EndSplineSet
Validated: 1
EndChar

StartChar: afii10028
Encoding: 110 1050 267
Width: 745
VWidth: 1278
GlyphClass: 2
Flags: W
HStem: 196 21G<120 221 604.769 745> 1046 20G<120 221 594.378 729>
VStem: 120 101<196 637 645 1066>
LayerCount: 2
Fore
SplineSet
745 196 m 1
 623 196 l 1
 221 637 l 1
 221 196 l 1
 120 196 l 1
 120 1066 l 1
 221 1066 l 1
 221 645 l 1
 613 1066 l 1
 729 1066 l 1
 344 643 l 1
 745 196 l 1
EndSplineSet
Validated: 1
EndChar

StartChar: afii10029
Encoding: 111 1051 268
Width: 857
VWidth: 1278
GlyphClass: 2
Flags: W
HStem: 181.981 85.019<1.09595 134.327> 976 90<354 638>
VStem: 638 101<196 976>
LayerCount: 2
Fore
SplineSet
739 196 m 1
 638 196 l 1
 638 976 l 1
 354 976 l 1
 337 834 l 2
 312.333333333 644 290.833333333 504.833333333 272.5 416.5 c 0
 254.166666667 328.166666667 229.833333333 266.833333333 199.5 232.5 c 0
 169.744444445 198.820634921 130.526591081 181.980952381 81.8464399093 181.980952381 c 0
 80.9011942555 181.980952381 79.9523809524 181.987301587 79 182 c 0
 49.6666666667 182 23.3333333333 187 0 197 c 1
 0 283 l 1
 21.3333333333 273 43.6666666667 267.666666667 67 267 c 0
 87.6666666667 267 106 275.5 122 292.5 c 0
 138 309.5 152 339.5 164 382.5 c 0
 176 425.5 191.333333333 506.333333333 210 625 c 0
 228 743.666666667 248 890.666666667 270 1066 c 1
 739 1066 l 1
 739 196 l 1
EndSplineSet
Validated: 1
EndChar

StartChar: afii10030
Encoding: 112 1052 269
Width: 1099
VWidth: 1278
GlyphClass: 2
Flags: W
HStem: 196 21G<120 213 497.322 593.74 880 981> 1046 20G<120 279.66 822.256 981>
VStem: 120 93<196 964.117> 880 101<196 962.442>
LayerCount: 2
Fore
SplineSet
505 196 m 1
 209 967 l 1
 205 967 l 1
 210.333333333 905.666666667 213 833 213 749 c 2
 213 196 l 1
 120 196 l 1
 120 1066 l 1
 272 1066 l 1
 547 348 l 1
 552 348 l 1
 830 1066 l 1
 981 1066 l 1
 981 196 l 1
 880 196 l 1
 880 756 l 2
 880 820 882.666666667 890 888 966 c 1
 884 966 l 1
 586 196 l 1
 505 196 l 1
EndSplineSet
Validated: 1
EndChar

StartChar: afii10031
Encoding: 113 1053 270
Width: 898
VWidth: 1278
GlyphClass: 2
Flags: W
HStem: 196 21G<120 221 679 780> 606 90<221 679> 1046 20G<120 221 679 780>
VStem: 120 101<196 606 696 1066> 679 101<196 606 696 1066>
LayerCount: 2
Fore
SplineSet
780 196 m 1
 679 196 l 1
 679 606 l 1
 221 606 l 1
 221 196 l 1
 120 196 l 1
 120 1066 l 1
 221 1066 l 1
 221 696 l 1
 679 696 l 1
 679 1066 l 1
 780 1066 l 1
 780 196 l 1
EndSplineSet
Validated: 1
EndChar

StartChar: afii10032
Encoding: 114 1054 271
Width: 948
VWidth: 1278
GlyphClass: 2
Flags: W
HStem: 184 88<310.081 639.018> 989 91<311.086 643.803>
VStem: 75 107<411.991 850.756> 768 107<410.476 852.107>
LayerCount: 2
Fore
SplineSet
875 632 m 0
 875 492.666666667 839.666666667 383.166666667 769 303.5 c 0
 698.333333333 223.833333333 600.333333333 184 475 184 c 0
 347 184 248.333333333 223.166666667 179 301.5 c 0
 109.666666667 379.833333333 75 490.333333333 75 633 c 0
 75 774.333333333 109.833333333 884.166666667 179.5 962.5 c 0
 249.166666667 1040.83333333 348.333333333 1080 477 1080 c 0
 601.666666667 1080 699.166666667 1040.16666667 769.5 960.5 c 0
 839.833333333 880.833333333 875 771.333333333 875 632 c 0
182 632 m 0
 182 514 207 424.5 257 363.5 c 0
 307 302.5 379.666666667 272 475 272 c 0
 571 272 643.833333333 302.333333333 693.5 363 c 0
 743.166666667 423.666666667 768 513.333333333 768 632 c 0
 768 748.666666667 743.333333333 837.333333333 694 898 c 0
 644.666666667 958.666666667 572.333333333 989 477 989 c 0
 381 989 307.833333333 958.5 257.5 897.5 c 0
 207.166666667 836.5 182 748 182 632 c 0
EndSplineSet
Validated: 1
EndChar

StartChar: afii10033
Encoding: 115 1055 272
Width: 888
VWidth: 1278
GlyphClass: 2
Flags: W
HStem: 196 21G<120 221 667 768> 976 90<221 667>
VStem: 120 101<196 976> 667 101<196 976>
LayerCount: 2
Fore
SplineSet
768 196 m 1
 667 196 l 1
 667 976 l 1
 221 976 l 1
 221 196 l 1
 120 196 l 1
 120 1066 l 1
 768 1066 l 1
 768 196 l 1
EndSplineSet
Validated: 1
EndChar

StartChar: afii10034
Encoding: 116 1056 273
Width: 733
VWidth: 1278
GlyphClass: 2
Flags: W
HStem: 196 21G<120 221> 538 87<221 502.727> 978 88<221 510.336>
VStem: 120 101<196 538 625 978> 566 106<682.287 924.814>
LayerCount: 2
Fore
SplineSet
672 812 m 0
 672 724 641.833333333 656.333333333 581.5 609 c 0
 521.166666667 561.666666667 435 538 323 538 c 2
 221 538 l 1
 221 196 l 1
 120 196 l 1
 120 1066 l 1
 345 1066 l 2
 563 1065.33333333 672 980.666666667 672 812 c 0
221 625 m 1
 312 625 l 2
 401.333333333 625 466 639.5 506 668.5 c 0
 546 697.5 566 744 566 808 c 0
 566 866 547.166666667 908.833333333 509.5 936.5 c 0
 471.833333333 964.166666667 413.333333333 978 334 978 c 2
 221 978 l 1
 221 625 l 1
EndSplineSet
Validated: 1
EndChar

StartChar: afii10035
Encoding: 117 1057 274
Width: 768
VWidth: 1278
GlyphClass: 2
Flags: W
HStem: 184 90<319.569 695.763> 988 90<326.155 701.433>
VStem: 75 108<419.833 835.89>
LayerCount: 2
Fore
SplineSet
492 988 m 0
 396 988 320.5 956.166666667 265.5 892.5 c 0
 210.5 828.833333333 183 741.666666667 183 631 c 0
 183 517 209.666666667 429 263 367 c 0
 317 305 393 274 491 274 c 0
 551.666666667 274 621 284.666666667 699 306 c 1
 699 218 l 1
 639 195.333333333 564.333333333 184 475 184 c 0
 347 184 248.333333333 222.833333333 179 300.5 c 0
 109.666666667 378.166666667 75 488.666666667 75 632 c 0
 75 721.333333333 91.6666666667 799.833333333 125 867.5 c 0
 158.333333333 935.166666667 206.666666667 987.166666667 270 1023.5 c 0
 333.333333333 1059.83333333 407.666666667 1078 493 1078 c 0
 584.333333333 1078 664.333333333 1061.33333333 733 1028 c 1
 689 941 l 1
 623.666666667 972.333333333 558 988 492 988 c 0
EndSplineSet
Validated: 1
EndChar

StartChar: afii10036
Encoding: 118 1058 275
Width: 674
VWidth: 1278
GlyphClass: 2
Flags: W
HStem: 196 21G<286 388> 976 90<11 286 388 663>
VStem: 286 102<196 976>
LayerCount: 2
Fore
SplineSet
388 196 m 1
 286 196 l 1
 286 976 l 1
 11 976 l 1
 11 1066 l 1
 663 1066 l 1
 663 976 l 1
 388 976 l 1
 388 196 l 1
EndSplineSet
Validated: 1
EndChar

StartChar: afii10037
Encoding: 119 1059 276
Width: 756
VWidth: 1278
GlyphClass: 2
Flags: W
HStem: 184 91<60.6273 282.958> 1046 20G<16 138.405 640.27 756>
LayerCount: 2
Fore
SplineSet
174 184 m 0
 130 184 91.6666666667 190 59 202 c 1
 59 301 l 1
 95.6666666667 283.666666667 133 275 171 275 c 0
 214.333333333 275 249.166666667 285 275.5 305 c 0
 301.833333333 325 328 362.666666667 354 418 c 1
 16 1066 l 1
 128 1066 l 1
 385 572 l 2
 395 552.666666667 402.666666667 533.333333333 408 514 c 1
 413 514 l 1
 424.333333333 547.333333333 432 568.666666667 436 578 c 2
 649 1066 l 1
 756 1066 l 1
 479 443 l 2
 445.666666667 369 415.5 315.166666667 388.5 281.5 c 0
 361.5 247.833333333 331.333333333 223.166666667 298 207.5 c 0
 264.666666667 191.833333333 223.333333333 184 174 184 c 0
EndSplineSet
Validated: 1
EndChar

StartChar: afii10038
Encoding: 120 1060 277
Width: 971
VWidth: 1278
GlyphClass: 2
Flags: W
HStem: 184 21G<435 537> 318 85<264.218 435 537 708.959> 884 87<253.754 435 537 720.584> 1058 20G<435 537>
VStem: 63 105<493.705 801.057> 435 102<184 318 403 884 971 1078> 804 106<494.13 802.651>
LayerCount: 2
Fore
SplineSet
435 1078 m 1
 537 1078 l 1
 537 971 l 1
 579 971 l 2
 647 971 706 957.333333333 756 930 c 0
 806 902 844 864 870 816 c 0
 896.666666667 766.666666667 910 710.666666667 910 648 c 0
 910 582 894.666666667 523.333333333 864 472 c 0
 834.666666667 420.666666667 794.666666667 382.333333333 744 357 c 0
 692.666666667 331.666666667 632 318.666666667 562 318 c 2
 537 318 l 1
 537 184 l 1
 435 184 l 1
 435 318 l 1
 408 318 l 2
 338 318 277.666666667 331.333333333 227 358 c 0
 176.333333333 384 136 422.666666667 106 474 c 0
 77.3333333333 525.333333333 63 583 63 647 c 0
 63 709.666666667 76.3333333333 765.666666667 103 815 c 0
 129.666666667 864.333333333 168 902.666666667 218 930 c 0
 266.837209302 957.348837209 324.260681449 971.023255814 390.270416441 971.023255814 c 0
 391.842076798 971.023255814 393.418604651 971.015503876 395 971 c 2
 435 971 l 1
 435 1078 l 1
537 403 m 1
 552 403 l 2
 632 403 694 424.666666667 738 468 c 0
 782 511.333333333 804 571.666666667 804 649 c 0
 804 722.333333333 783.666666667 780 743 822 c 0
 702.333333333 863.333333333 645.333333333 884 572 884 c 2
 537 884 l 1
 537 403 l 1
435 884 m 1
 401 884 l 2
 329 884 272 863.333333333 230 822 c 0
 188.666666667 780 168 722.333333333 168 649 c 0
 168 571 190.333333333 510.666666667 235 468 c 0
 279 424.666666667 341 403 421 403 c 2
 435 403 l 1
 435 884 l 1
EndSplineSet
Validated: 1
EndChar

StartChar: afii10039
Encoding: 121 1061 278
Width: 702
VWidth: 1278
GlyphClass: 2
Flags: W
HStem: 196 21G<5 124.461 571.749 699> 1046 20G<25 148.522 557.362 677>
LayerCount: 2
Fore
SplineSet
699 196 m 1
 584 196 l 1
 350 578 l 1
 112 196 l 1
 5 196 l 1
 294 651 l 1
 25 1066 l 1
 136 1066 l 1
 352 721 l 1
 570 1066 l 1
 677 1066 l 1
 408 654 l 1
 699 196 l 1
EndSplineSet
Validated: 1
EndChar

StartChar: afii10040
Encoding: 122 1062 279
Width: 897
VWidth: 1278
GlyphClass: 2
Flags: W
HStem: 196 92<221 667 768 775> 1046 20G<120 221 667 768>
VStem: 120 101<288 1066> 667 101<288 1066> 775 96<-31 196>
LayerCount: 2
Fore
SplineSet
768 288 m 1
 871 288 l 1
 871 -31 l 1
 775 -31 l 1
 775 196 l 1
 120 196 l 1
 120 1066 l 1
 221 1066 l 1
 221 288 l 1
 667 288 l 1
 667 1066 l 1
 768 1066 l 1
 768 288 l 1
EndSplineSet
Validated: 1
EndChar

StartChar: afii10041
Encoding: 123 1063 280
Width: 846
VWidth: 1278
GlyphClass: 2
Flags: W
HStem: 196 21G<626 728> 500 91<241.199 593.028> 1046 20G<101 202 626 728>
VStem: 101 101<626.587 1066> 626 102<196 556 626.877 1066>
LayerCount: 2
Fore
SplineSet
728 196 m 1
 626 196 l 1
 626 556 l 1
 567.333333333 535.333333333 518.333333333 520.833333333 479 512.5 c 0
 439.666666667 504.166666667 399 500 357 500 c 0
 275 500 211.833333333 518.833333333 167.5 556.5 c 0
 123.166666667 594.166666667 101 648.666666667 101 720 c 2
 101 1066 l 1
 202 1066 l 1
 202 732 l 2
 202 684 214.666666667 648.5 240 625.5 c 0
 265.333333333 602.5 306.333333333 591 363 591 c 0
 401.666666667 591 438.5 593.833333333 473.5 599.5 c 0
 508.5 605.166666667 559.333333333 619 626 641 c 1
 626 1066 l 1
 728 1066 l 1
 728 196 l 1
EndSplineSet
Validated: 1
EndChar

StartChar: afii10042
Encoding: 124 1064 281
Width: 1257
VWidth: 1278
GlyphClass: 2
Flags: W
HStem: 196 92<221 578 679 1036> 1046 20G<120 221 578 679 1036 1138>
VStem: 120 101<288 1066> 578 101<288 1066> 1036 102<288 1066>
LayerCount: 2
Fore
SplineSet
1138 196 m 1
 120 196 l 1
 120 1066 l 1
 221 1066 l 1
 221 288 l 1
 578 288 l 1
 578 1066 l 1
 679 1066 l 1
 679 288 l 1
 1036 288 l 1
 1036 1066 l 1
 1138 1066 l 1
 1138 196 l 1
EndSplineSet
Validated: 1
EndChar

StartChar: afii10043
Encoding: 125 1065 282
Width: 1258
VWidth: 1278
GlyphClass: 2
Flags: W
HStem: 196 92<221 568 670 1017 1119 1125> 1046 20G<120 221 568 670 1017 1119>
VStem: 120 101<288 1066> 568 102<288 1066> 1017 102<288 1066> 1125 96<-31 196>
LayerCount: 2
Fore
SplineSet
120 196 m 1
 120 1066 l 1
 221 1066 l 1
 221 288 l 1
 568 288 l 1
 568 1066 l 1
 670 1066 l 1
 670 288 l 1
 1017 288 l 1
 1017 1066 l 1
 1119 1066 l 1
 1119 288 l 1
 1221 288 l 1
 1221 -31 l 1
 1125 -31 l 1
 1125 196 l 1
 120 196 l 1
EndSplineSet
Validated: 1
EndChar

StartChar: afii10044
Encoding: 126 1066 283
Width: 838
VWidth: 1278
GlyphClass: 2
Flags: W
HStem: 196 88<312 618.423> 606 89<312 616.358> 976 90<11 211>
VStem: 211 101<284 606 695 976> 670 105<329.879 562.065>
LayerCount: 2
Fore
SplineSet
775 449 m 0
 775 367.666666667 749.333333333 305 698 261 c 0
 646 217.666666667 571 196 473 196 c 2
 211 196 l 1
 211 976 l 1
 11 976 l 1
 11 1066 l 1
 312 1066 l 1
 312 695 l 1
 457 695 l 2
 561 695 640 674.5 694 633.5 c 0
 748 592.5 775 531 775 449 c 0
312 284 m 1
 462 284 l 2
 534 284 586.666666667 297.666666667 620 325 c 0
 653.333333333 352.333333333 670 393.666666667 670 449 c 0
 670 503 652.666666667 542.666666667 618 568 c 0
 583.333333333 593.333333333 525.666666667 606 445 606 c 2
 312 606 l 1
 312 284 l 1
EndSplineSet
Validated: 1
EndChar

StartChar: afii10045
Encoding: 127 1067 284
Width: 1038
VWidth: 1278
GlyphClass: 2
Flags: W
HStem: 196 87<221 524.423> 604 91<221 521.328> 1046 20G<120 221 819 920>
VStem: 120 101<283 604 695 1066> 576 106<329.738 560.822> 819 101<196 1066>
LayerCount: 2
Fore
SplineSet
120 196 m 1
 120 1066 l 1
 221 1066 l 1
 221 695 l 1
 363 695 l 2
 467 695 546.166666667 674.666666667 600.5 634 c 0
 654.833333333 593.333333333 682 531.666666667 682 449 c 0
 682 367.666666667 656.166666667 305.166666667 604.5 261.5 c 0
 552.833333333 217.833333333 477.666666667 196 379 196 c 2
 120 196 l 1
221 283 m 1
 368 283 l 2
 440 283 492.666666667 296.833333333 526 324.5 c 0
 559.333333333 352.166666667 576 393.666666667 576 449 c 0
 576 503.666666667 558.333333333 543.166666667 523 567.5 c 0
 487.666666667 591.833333333 430.333333333 604 351 604 c 2
 221 604 l 1
 221 283 l 1
920 196 m 1
 819 196 l 1
 819 1066 l 1
 920 1066 l 1
 920 196 l 1
EndSplineSet
Validated: 1
EndChar

StartChar: afii10046
Encoding: 128 1068 285
Width: 782
VWidth: 1278
GlyphClass: 2
Flags: W
HStem: 196 88<221 562.13> 606 89<221 557.749> 1046 20G<120 221>
VStem: 120 101<284 606 695 1066> 615.005 104.995<333.105 557.595>
LayerCount: 2
Fore
SplineSet
720 449 m 0
 720 368.333333333 693 306 639 262 c 0
 585 218 508.666666667 196 410 196 c 2
 120 196 l 1
 120 1066 l 1
 221 1066 l 1
 221 695 l 1
 394 695 l 2
 500 695 580.833333333 674 636.5 632 c 0
 692.166666667 590 720 529 720 449 c 0
221 284 m 1
 399 284 l 2
 543.003058104 284 615.004587156 338.496570154 615.004587156 447.489710462 c 0
 615.004587156 447.991982998 615.003058104 448.495412844 615 449 c 0
 615 502.333333333 596.5 541.833333333 559.5 567.5 c 0
 522.5 593.166666667 463.333333333 606 382 606 c 2
 221 606 l 1
 221 284 l 1
EndSplineSet
Validated: 1
EndChar

StartChar: afii10047
Encoding: 129 1069 286
Width: 766
VWidth: 1278
GlyphClass: 2
Flags: W
HStem: 184 90<44.2089 444.883> 607 91<156 582> 988 90<65.9655 445.498>
VStem: 584 107<421.074 607 698 842.622>
LayerCount: 2
Fore
SplineSet
278 988 m 0
 210 988 143.666666667 972.666666667 79 942 c 1
 37 1028 l 1
 105 1061.33333333 185.666666667 1078 279 1078 c 0
 365 1078 439 1060.66666667 501 1026 c 0
 563 991.333333333 610.166666667 941.666666667 642.5 877 c 0
 674.833333333 812.333333333 691 736 691 648 c 0
 691 498.666666667 654.833333333 384 582.5 304 c 0
 510.166666667 224 406 184 270 184 c 0
 179.333333333 184 103.333333333 195.333333333 42 218 c 1
 42 306 l 1
 74.6666666667 297.333333333 108.333333333 289.833333333 143 283.5 c 0
 177.666666667 277.166666667 214.333333333 274 253 274 c 0
 361 274 442.333333333 302.666666667 497 360 c 0
 551.666666667 417.333333333 580.666666667 499.666666667 584 607 c 1
 156 607 l 1
 156 698 l 1
 582 698 l 1
 573.333333333 788.666666667 542.166666667 859.666666667 488.5 911 c 0
 434.833333333 962.333333333 364.666666667 988 278 988 c 0
EndSplineSet
Validated: 1
EndChar

StartChar: afii10048
Encoding: 130 1070 287
Width: 1279
VWidth: 1278
GlyphClass: 2
Flags: W
HStem: 184 88<659.535 975.411> 606 90<221 432> 989 91<658.696 977.656>
VStem: 120 101<196 606 696 1066> 432 105<408.27 606 696 854.168> 1096 108<403.971 858.889>
LayerCount: 2
Fore
SplineSet
1204 632 m 0
 1204 491.333333333 1170 381.5 1102 302.5 c 0
 1034 223.5 940 184 820 184 c 0
 700.666666667 184 607 220.333333333 539 293 c 0
 471.666666667 365.666666667 436 470 432 606 c 1
 221 606 l 1
 221 196 l 1
 120 196 l 1
 120 1066 l 1
 221 1066 l 1
 221 696 l 1
 433 696 l 1
 442.333333333 819.333333333 480.333333333 914.166666667 547 980.5 c 0
 613.666666667 1046.83333333 704 1080 818 1080 c 0
 940 1080 1034.83333333 1040.16666667 1102.5 960.5 c 0
 1170.16666667 880.833333333 1204 771.333333333 1204 632 c 0
537 632 m 0
 537 514.666666667 560.666666667 425.333333333 608 364 c 0
 655.333333333 302.666666667 724.666666667 272 816 272 c 0
 908.666666667 272 978.5 302.333333333 1025.5 363 c 0
 1072.5 423.666666667 1096 513.333333333 1096 632 c 256
 1096 750.666666667 1072.83333333 839.833333333 1026.5 899.5 c 0
 980.166666667 959.166666667 910.833333333 989 818.5 989 c 0
 726.166666667 989 656.166666667 958.666666667 608.5 898 c 0
 560.833333333 837.333333333 537 748.666666667 537 632 c 0
EndSplineSet
Validated: 1
EndChar

StartChar: afii10049
Encoding: 131 1071 288
Width: 775
VWidth: 1278
GlyphClass: 2
Flags: W
HStem: 196 21G<31 162.507 554 655> 559 87<377 554> 978 88<247.317 554>
VStem: 92 105<699.898 930.596> 554 101<196 559 646 978>
LayerCount: 2
Fore
SplineSet
377 559 m 1
 150 196 l 1
 31 196 l 1
 275 576 l 1
 211 596.666666667 164.5 627.5 135.5 668.5 c 0
 106.5 709.5 92 761 92 823 c 0
 92 899.666666667 118.666666667 959.333333333 172 1002 c 0
 225.333333333 1044.66666667 306.666666667 1066 416 1066 c 2
 655 1066 l 1
 655 196 l 1
 554 196 l 1
 554 559 l 1
 377 559 l 1
554 978 m 1
 420 978 l 2
 347.333333333 978 292 965.5 254 940.5 c 0
 216 915.5 197 875 197 819 c 0
 197 703.666666667 272.333333333 646 423 646 c 2
 554 646 l 1
 554 978 l 1
EndSplineSet
Validated: 1
EndChar

StartChar: afii10065
Encoding: 132 1072 289
Width: 677
VWidth: 1278
GlyphClass: 2
Flags: W
HStem: 184 82<186.891 414.852> 512 72<219.246 480> 777 82<180.724 449.784>
VStem: 56 104<290.077 468.869> 480 99<324.638 516 587 739.35> 506 73<196 262.662>
LayerCount: 2
Fore
SplineSet
506 196 m 1xf4
 486 289 l 1
 481 289 l 1
 449 248.333333333 416.833333333 220.666666667 384.5 206 c 0
 352.166666667 191.333333333 311.666666667 184 263 184 c 0
 198.333333333 184 147.666666667 200.666666667 111 234 c 0
 74.3333333333 267.333333333 56 314.666666667 56 376 c 0
 56 507.333333333 161.333333333 576.666666667 372 584 c 2
 483 587 l 1
 483 628 l 2
 483 678.666666667 471.833333333 716.166666667 449.5 740.5 c 0
 427.166666667 764.833333333 392 777 344 777 c 0
 289.333333333 777 228 760.333333333 160 727 c 1
 129 803 l 1
 161 820.333333333 196.166666667 834 234.5 844 c 0
 272.833333333 854 311.333333333 859 350 859 c 0
 427.333333333 859 484.833333333 841.666666667 522.5 807 c 0
 560.166666667 772.333333333 579 717 579 641 c 2xf8
 579 196 l 1
 506 196 l 1xf4
282 266 m 0
 343.333333333 266 391.666666667 282.833333333 427 316.5 c 0
 462.333333333 350.166666667 480 397.333333333 480 458 c 2
 480 516 l 1
 382 512 l 2
 303.333333333 509.333333333 246.666666667 497.166666667 212 475.5 c 0
 177.333333333 453.833333333 160 420.333333333 160 375 c 0
 160 339 170.5 311.833333333 191.5 293.5 c 0
 212.5 275.166666667 242.666666667 266 282 266 c 0
EndSplineSet
Validated: 1
EndChar

StartChar: afii10066
Encoding: 133 1073 290
Width: 725
VWidth: 1278
GlyphClass: 2
Flags: W
HStem: 184 83<255.174 492.383> 719.005 83.9955<261.431 499.348>
VStem: 71 101<359.764 641.261 696 872.695> 554.005 105.995<328.009 667.353>
LayerCount: 2
Fore
SplineSet
71 587 m 0
 71 729.666666667 92 841 134 921 c 0
 176 1001 242.666666667 1051 334 1071 c 0
 448 1095.66666667 548 1115 634 1129 c 1
 652 1043 l 1
 514 1019.66666667 415.666666667 1001.33333333 357 988 c 0
 299 974.666666667 255.666666667 943.666666667 227 895 c 0
 198.333333333 846.333333333 182.666666667 780 180 696 c 1
 187 696 l 1
 211.666666667 729.333333333 243.5 755.5 282.5 774.5 c 0
 321.5 793.5 362.333333333 803 405 803 c 0
 485 803 547.5 777 592.5 725 c 0
 637.5 673 660 601 660 509 c 0
 660 407 633.833333333 327.333333333 581.5 270 c 0
 529.166666667 212.666666667 456.666666667 184 364 184 c 0
 272 184 200.166666667 219.166666667 148.5 289.5 c 0
 96.8333333333 359.833333333 71 459 71 587 c 0
373 267 m 0
 493.670309654 267 554.005464481 343.490469507 554.005464481 496.471408522 c 0
 554.005464481 497.311963132 554.003642987 498.154826958 554 499 c 0
 554 645.66966967 499.494379515 719.004504505 390.483138544 719.004504505 c 0
 389.98987501 719.004504505 389.495495495 719.003003003 389 719 c 0
 359 719 330.166666667 712.666666667 302.5 700 c 0
 274.833333333 687.333333333 249.333333333 670.666666667 226 650 c 0
 202.666666667 629.333333333 184.666666667 608.333333333 172 587 c 1
 172 483 188.5 403.666666667 221.5 349 c 0
 254.5 294.333333333 305 267 373 267 c 0
EndSplineSet
Validated: 1
EndChar

StartChar: afii10067
Encoding: 134 1074 291
Width: 692
VWidth: 1278
GlyphClass: 2
Flags: W
HStem: 196 82<203 527.778> 494 84<203 498.83> 762 86<203 499.35>
VStem: 105 98<278 494 578 762> 537 97<599.23 743.189> 556 98<305.938 470.486>
LayerCount: 2
Fore
SplineSet
634 685 m 0xf8
 634 642.333333333 621.666666667 610 597 588 c 0
 572.333333333 566 538.333333333 551.333333333 495 544 c 1
 495 538 l 1
 550.333333333 530.666666667 590.666666667 514.5 616 489.5 c 0
 641.333333333 464.5 654 430 654 386 c 0xf4
 654 325.333333333 631.666666667 278.5 587 245.5 c 0
 542.333333333 212.5 477.333333333 196 392 196 c 2
 105 196 l 1
 105 848 l 1
 391 848 l 2
 553 848 634 793.666666667 634 685 c 0xf8
556 392 m 0
 556 428 542.666666667 454 516 470 c 0
 488 486 443.333333333 494 382 494 c 2
 203 494 l 1
 203 278 l 1
 385 278 l 2
 499 278 556 316 556 392 c 0
537 675 m 0xf8
 537 707 524.833333333 729.5 500.5 742.5 c 0
 476.166666667 755.5 439 762 389 762 c 2
 203 762 l 1
 203 578 l 1
 371 578 l 2
 432.333333333 578 475.333333333 585.666666667 500 601 c 0
 524.666666667 616.333333333 537 641 537 675 c 0xf8
EndSplineSet
Validated: 1
EndChar

StartChar: afii10068
Encoding: 135 1075 292
Width: 521
VWidth: 1278
GlyphClass: 2
Flags: W
HStem: 196 21G<105 203> 764 84<203 497>
VStem: 105 98<196 764>
LayerCount: 2
Fore
SplineSet
497 764 m 1
 203 764 l 1
 203 196 l 1
 105 196 l 1
 105 848 l 1
 497 848 l 1
 497 764 l 1
EndSplineSet
Validated: 1
EndChar

StartChar: afii10069
Encoding: 136 1076 293
Width: 696
VWidth: 1278
GlyphClass: 2
Flags: W
HStem: -29 310<25 104.77 578 672> 196 85<178 483> 771 77<334.048 483>
VStem: 25 95<-29 196> 483 95<281 771> 575 97<-29 196>
LayerCount: 2
Fore
SplineSet
672 -29 m 1xb4
 575 -29 l 1xb4
 575 196 l 1
 120 196 l 1x74
 120 -29 l 1
 25 -29 l 1
 25 281 l 1
 76 281 l 1
 129.333333333 353 171 437.5 201 534.5 c 0
 231 631.5 246.333333333 736 247 848 c 1
 578 848 l 1
 578 281 l 1xb8
 672 281 l 1
 672 -29 l 1xb4
483 281 m 1x78
 483 771 l 1
 337 771 l 1
 331.666666667 683 314.5 593.833333333 285.5 503.5 c 0
 256.5 413.166666667 220.666666667 339 178 281 c 1
 483 281 l 1x78
EndSplineSet
Validated: 1
EndChar

StartChar: afii10070
Encoding: 137 1077 294
Width: 683
VWidth: 1278
GlyphClass: 2
Flags: W
HStem: 184 87<247.369 589.563> 505 79<173 514> 777 83<239.957 463.953>
VStem: 68 103<348.332 505> 514 106<584 725.942>
LayerCount: 2
Fore
SplineSet
380 184 m 0
 284 184 208 213.333333333 152 272 c 0
 96 330.666666667 68 412 68 516 c 0
 68 621.333333333 94 705 146 767 c 0
 198 829 267.333333333 860 354 860 c 0
 435.333333333 860 500 833.166666667 548 779.5 c 0
 596 725.833333333 620 655.00016276 620 567.000488281 c 2
 620 505 l 1
 171 505 l 1
 173 428.333333333 192.333333333 370.166666667 229 330.5 c 0
 265.666666667 290.833333333 317.333333333 271 384 271 c 0
 454 271 523.333333333 285.333333333 592 314 c 1
 592 227 l 1
 556.666666667 211.666666667 523.5 200.666666667 492.5 194 c 0
 461.5 187.333333333 424 184 380 184 c 0
354 777 m 0
 302 777 260.333333333 760 229 726 c 0
 197.666666667 692 179 644.666666667 173 584 c 1
 514 584 l 1
 514 646.666666667 500.166666667 694.5 472.5 727.5 c 0
 444.833333333 760.5 405.333333333 777 354 777 c 0
EndSplineSet
Validated: 1
EndChar

StartChar: afii10072
Encoding: 138 1078 295
Width: 895
VWidth: 1278
GlyphClass: 2
Flags: W
HStem: 196 651<26 117>
VStem: 402 91<196 526 531 847>
LayerCount: 2
Fore
SplineSet
402 847 m 1
 493 847 l 1
 493 531 l 1
 762 847 l 1
 871 847 l 1
 598 531 l 1
 894 196 l 1
 780 196 l 1
 493 526 l 1
 493 196 l 1
 402 196 l 1
 402 526 l 1
 116 196 l 1
 3 196 l 1
 298 531 l 1
 26 847 l 1
 134 847 l 1
 402 531 l 1
 402 847 l 1
EndSplineSet
Validated: 1
EndChar

StartChar: afii10073
Encoding: 139 1079 296
Width: 588
VWidth: 1278
GlyphClass: 2
Flags: W
HStem: 184 82<64.264 396.055> 494 84<158 392.263> 776 84<70.7209 396.017>
VStem: 414.005 96.9946<604.828 755.529> 434 98<295.394 464.005>
LayerCount: 2
Fore
SplineSet
230 578 m 2xe8
 352.670250896 578 414.005376344 611.635391375 414.005376344 678.906174124 c 0
 414.005376344 679.269799977 414.003584229 679.634408602 414 680 c 0
 414 744 364 776 264 776 c 0
 233.333333333 776 205.666666667 773.333333333 181 768 c 0
 156.333333333 763.333333333 123.333333333 752.333333333 82 735 c 1
 48 815 l 1
 115.333333333 845 189 860 269 860 c 0
 343.666666667 860 402.666666667 844.666666667 446 814 c 0
 489.333333333 783.333333333 511 741.333333333 511 688 c 0xf0
 511 614.666666667 470 566.666666667 388 544 c 1
 388 540 l 1
 438 525.333333333 474.5 504.5 497.5 477.5 c 0
 520.5 450.5 532 416.333333333 532 375 c 0
 532 315 507.833333333 268.166666667 459.5 234.5 c 0
 411.166666667 200.833333333 344 184 258 184 c 0
 164 184 91.6666666667 198.333333333 41 227 c 1
 41 317 l 1
 113.666666667 283 187 266 261 266 c 0
 318.333333333 266 361.5 275.666666667 390.5 295 c 0
 419.5 314.333333333 434 342.666666667 434 380 c 0
 434 456 372.333333333 494 249 494 c 2
 158 494 l 1
 158 578 l 1
 230 578 l 2xe8
EndSplineSet
Validated: 1
EndChar

StartChar: afii10074
Encoding: 140 1080 297
Width: 771
VWidth: 1278
GlyphClass: 2
Flags: W
HStem: 196 652<197 283 672 759>
VStem: 105 92<292 848> 575 92<196 750>
LayerCount: 2
Fore
SplineSet
197 848 m 1
 197 435 l 1
 194 326 l 1
 191 292 l 1
 544 848 l 1
 667 848 l 1
 667 196 l 1
 575 196 l 1
 575 595 l 1
 577 673 l 1
 580 750 l 1
 228 196 l 1
 105 196 l 1
 105 848 l 1
 197 848 l 1
EndSplineSet
Validated: 1
EndChar

StartChar: afii10075
Encoding: 141 1081 298
Width: 771
VWidth: 1278
GlyphClass: 2
Flags: W
HStem: 196 21G<105 240.708 575 667> 828 20G<105 197 531.302 667> 935 71<288.143 480.351>
VStem: 105 92<292 848> 167 92<1031.27 1117> 513 93<1033.34 1117> 575 92<196 750>
LayerCount: 2
Fore
SplineSet
197 848 m 1xf2
 197 435 l 1
 194 326 l 1
 191 292 l 1
 544 848 l 1
 667 848 l 1
 667 196 l 1
 575 196 l 1
 575 595 l 1
 577 673 l 1
 580 750 l 1
 228 196 l 1
 105 196 l 1
 105 848 l 1
 197 848 l 1xf2
384 935 m 0
 310.666666667 935 257.166666667 949.166666667 223.5 977.5 c 0
 189.833333333 1005.83333333 171 1052.33333333 167 1117 c 1
 259 1117 l 1
 262.333333333 1075.66666667 273.166666667 1046.83333333 291.5 1030.5 c 0
 309.833333333 1014.16666667 341.333333333 1006 386 1006 c 0
 426.666666667 1006 457 1014.83333333 477 1032.5 c 0
 497 1050.16666667 509 1078.33333333 513 1117 c 1
 606 1117 l 1xec
 601.333333333 1054.33333333 581.5 1008.33333333 546.5 979 c 0
 511.5 949.666666667 457.333333333 935 384 935 c 0
EndSplineSet
Validated: 1
EndChar

StartChar: afii10076
Encoding: 142 1082 299
Width: 632
VWidth: 1278
GlyphClass: 2
Flags: W
HStem: 196 652<484 582>
VStem: 105 98<196 526 531 848>
LayerCount: 2
Fore
SplineSet
484 848 m 1
 593 848 l 1
 312 533 l 1
 616 196 l 1
 501 196 l 1
 203 526 l 1
 203 196 l 1
 105 196 l 1
 105 848 l 1
 203 848 l 1
 203 531 l 1
 484 848 l 1
EndSplineSet
Validated: 1
EndChar

StartChar: afii10077
Encoding: 143 1083 300
Width: 695
VWidth: 1278
GlyphClass: 2
Flags: W
HStem: 188 76<9 100.079> 764 84<291.89 491>
VStem: 491 100<196 764>
LayerCount: 2
Fore
SplineSet
591 196 m 1
 491 196 l 1
 491 764 l 1
 295 764 l 1
 284.333333333 622.666666667 269.5 510.5 250.5 427.5 c 0
 231.5 344.5 206.833333333 283.833333333 176.5 245.5 c 0
 146.166666667 207.166666667 107.333333333 188 60 188 c 0
 38.6666666667 188 21.6666666667 190.333333333 9 195 c 1
 9 268 l 1
 17.6666666667 265.333333333 27.6666666667 264 39 264 c 0
 84.3333333333 264 120.666666667 312.333333333 148 409 c 0
 175.333333333 505.666666667 195.666666667 652 209 848 c 1
 591 848 l 1
 591 196 l 1
EndSplineSet
Validated: 1
EndChar

StartChar: afii10078
Encoding: 144 1084 301
Width: 895
VWidth: 1278
GlyphClass: 2
Flags: W
HStem: 196 651<225 313 822 910>
VStem: 105 88<196 735> 702 88<196 735>
LayerCount: 2
Fore
SplineSet
444 291 m 1
 462 346 l 1
 487 417 l 1
 664 847 l 1
 790 847 l 1
 790 196 l 1
 702 196 l 1
 702 735 l 1
 690 700 l 1
 655 609 l 1
 487 196 l 1
 405 196 l 1
 236 610 l 2
 215.333333333 664 201 705.666666667 193 735 c 1
 193 196 l 1
 105 196 l 1
 105 847 l 1
 225 847 l 1
 396 433 l 2
 414 389 430 341.666666667 444 291 c 1
EndSplineSet
Validated: 1
EndChar

StartChar: afii10079
Encoding: 145 1085 302
Width: 771
VWidth: 1278
GlyphClass: 2
Flags: W
HStem: 196 21G<105 203 569 667> 490 85<203 569> 828 20G<105 203 569 667>
VStem: 105 98<196 490 575 848> 569 98<196 490 575 848>
LayerCount: 2
Fore
SplineSet
203 848 m 1
 203 575 l 1
 569 575 l 1
 569 848 l 1
 667 848 l 1
 667 196 l 1
 569 196 l 1
 569 490 l 1
 203 490 l 1
 203 196 l 1
 105 196 l 1
 105 848 l 1
 203 848 l 1
EndSplineSet
Validated: 1
EndChar

StartChar: afii10080
Encoding: 146 1086 303
Width: 735
VWidth: 1278
GlyphClass: 2
Flags: W
HStem: 184 83<242.689 492.58> 776 84<242.616 492.772>
VStem: 68 103<338.674 705.496> 565 102<341.289 702.275>
LayerCount: 2
Fore
SplineSet
667 520 m 256
 667 415 640 332 587 273 c 0
 534 214 461 184 366 184 c 0
 307 184 255 198 210 226 c 0
 165 253 130 292 105 344 c 0
 80 394 68 454 68 522 c 0
 68 629 95 712 148 771 c 0
 201 830 275 860 370 860 c 0
 461 860 534 830 587 769 c 0
 640 708 667 625 667 520 c 256
171 522 m 0
 171 439 188 375 220 332 c 0
 254 289 303 267 368 267 c 256
 433 267 482 289 515 332 c 0
 548 375 565 439 565 522 c 0
 565 605 548 668 515 711 c 0
 482 754 432 776 366 776 c 0
 301 776 253 755 220 712 c 0
 187 669 171 606 171 522 c 0
EndSplineSet
Validated: 1
EndChar

StartChar: afii10081
Encoding: 147 1087 304
Width: 756
VWidth: 1278
GlyphClass: 2
Flags: W
HStem: 196 21G<105 203 552 652> 762 86<203 552>
VStem: 105 98<196 762> 552 100<196 762>
LayerCount: 2
Fore
SplineSet
203 196 m 1
 105 196 l 1
 105 848 l 1
 652 848 l 1
 652 196 l 1
 552 196 l 1
 552 762 l 1
 203 762 l 1
 203 196 l 1
EndSplineSet
Validated: 1
EndChar

StartChar: afii10082
Encoding: 148 1088 305
Width: 746
VWidth: 1278
GlyphClass: 2
Flags: W
HStem: -96 21G<105 203> 184 83<266.359 503.099> 776 84<263.173 507.336>
VStem: 105 98<-96 278.22 327.348 716.438> 105 80<759 848> 576 103<340.606 706.249>
LayerCount: 2
Fore
SplineSet
408 184 m 0xf4
 365.333333333 184 326.5 191.833333333 291.5 207.5 c 0
 256.5 223.166666667 227 247.333333333 203 280 c 1
 196 280 l 1
 200.666666667 242 203 205.666666667 203 171 c 2
 203 -96 l 1
 105 -96 l 1xf4
 105 848 l 1
 185 848 l 1xec
 199 759 l 1
 203 759 l 1
 228.333333333 795 258 820.833333333 292 836.5 c 0
 326 852.166666667 364.666666667 860 408 860 c 0
 494.666666667 860 561.5 830.5 608.5 771.5 c 0
 655.5 712.5 679 629.333333333 679 522 c 0
 679 414.666666667 655.166666667 331.5 607.5 272.5 c 0
 559.833333333 213.5 493.333333333 184 408 184 c 0xf4
394 776 m 0
 327.333333333 776 279.333333333 757.333333333 250 720 c 0
 220.666666667 682.666666667 205 624 203 544 c 2
 203 522 l 2
 203 430 218.333333333 364.5 249 325.5 c 0
 279.666666667 286.5 328.666666667 267 396 267 c 0
 452 267 496 289.666666667 528 335 c 0
 560 380.333333333 576 443.333333333 576 524 c 0
 576 605.333333333 560.166666667 667.666666667 528.5 711 c 0
 496.833333333 754.333333333 452 776 394 776 c 0
EndSplineSet
Validated: 1
EndChar

StartChar: afii10083
Encoding: 149 1089 306
Width: 579
VWidth: 1278
GlyphClass: 2
Flags: W
HStem: 184 87<239.661 527.652> 772 88<241.155 507.998>
VStem: 68 103<342.041 700.44>
LayerCount: 2
Fore
SplineSet
366 184 m 0
 271.333333333 184 198 213 146 271 c 0
 94 329 68 411.333333333 68 518 c 0
 68 626.666666667 94.3333333333 710.833333333 147 770.5 c 0
 199.666666667 830.166666667 274.666666667 860 372 860 c 0
 403.333333333 860 434.666666667 856.5 466 849.5 c 0
 497.333333333 842.5 522 834.666666667 540 826 c 1
 509 743 l 1
 487.666666667 751.666666667 464.166666667 758.666666667 438.5 764 c 0
 412.833333333 769.333333333 390 772 370 772 c 0
 237.333333333 772 171 687.666666667 171 519 c 0
 171 439 187.166666667 377.666666667 219.5 335 c 0
 251.833333333 292.333333333 299.666666667 271 363 271 c 0
 417.666666667 271 473.333333333 282.666666667 530 306 c 1
 530 218 l 1
 486.666666667 195.333333333 432 184 366 184 c 0
EndSplineSet
Validated: 1
EndChar

StartChar: afii10084
Encoding: 150 1090 307
Width: 568
VWidth: 1278
GlyphClass: 2
Flags: W
HStem: 196 21G<234 332> 764 84<25 234 332 544>
VStem: 234 98<196 764>
LayerCount: 2
Fore
SplineSet
544 764 m 1
 332 764 l 1
 332 196 l 1
 234 196 l 1
 234 764 l 1
 25 764 l 1
 25 848 l 1
 544 848 l 1
 544 764 l 1
EndSplineSet
Validated: 1
EndChar

StartChar: afii10085
Encoding: 151 1091 308
Width: 613
VWidth: 1278
GlyphClass: 2
Flags: W
HStem: -96 81<9 180.9> 828 20G<1 114.688 461.333 613>
VStem: 1 612
LayerCount: 2
Fore
SplineSet
1 848 m 1
 107 848 l 1
 250 476 l 2
 281.333333333 390.666666667 301 329.333333333 309 292 c 1
 313 292 l 1
 318.333333333 312.666666667 329.166666667 347.5 345.5 396.5 c 0
 361.833333333 445.5 415.666666667 596 507 848 c 1
 613 848 l 1
 332 106 l 2
 304 32.6666666667 271.5 -19.3333333333 234.5 -50 c 0
 197.5 -80.6666666667 152.333333333 -96 99 -96 c 0
 69 -96 39 -92.6666666667 9 -86 c 1
 9 -7 l 1
 30.3333333333 -11.6666666667 54.6666666667 -14.3333333333 82 -15 c 0
 150 -15 198.666666667 23.3333333333 228 100 c 2
 264 193 l 1
 1 848 l 1
EndSplineSet
Validated: 1
EndChar

StartChar: afii10086
Encoding: 152 1092 309
Width: 870
VWidth: 1278
GlyphClass: 2
Flags: W
HStem: -96 21G<386 484> 187 81<261.555 386 484 607.087> 775 82<261.998 389 484 603.043> 1102 20G<389 484>
VStem: 67 104<353.166 690.534> 389 95<-96 191.656 268 774 852.132 1122> 701 102<353.843 686.585>
LayerCount: 2
Fore
SplineSet
803 522 m 0
 803 423.333333333 775 344.833333333 719 286.5 c 0
 663 228.166666667 584.666666667 195 484 187 c 1
 484 -96 l 1
 386 -96 l 1
 386 187 l 1
 287.333333333 194.333333333 209.5 228 152.5 288 c 0
 95.5 348 67 426 67 522 c 0
 67 620.666666667 95.5 699.166666667 152.5 757.5 c 0
 209.5 815.833333333 288.333333333 849 389 857 c 1
 389 1122 l 1
 484 1122 l 1
 484 857 l 1
 584 847.666666667 662.166666667 813.333333333 718.5 754 c 0
 774.833333333 694.666666667 803 617.333333333 803 522 c 0
171 522 m 0
 171 446 188.333333333 386.333333333 223 343 c 0
 257.666666667 299.666666667 313 274.666666667 389 268 c 1
 389 775 l 1
 315.666666667 768.333333333 261 744.333333333 225 703 c 0
 189 661.666666667 171 601.333333333 171 522 c 0
701 522 m 0
 701 674 628.666666667 758 484 774 c 1
 484 268 l 1
 559.333333333 275.333333333 614.333333333 300.5 649 343.5 c 0
 683.666666667 386.5 701 446 701 522 c 0
EndSplineSet
Validated: 1
EndChar

StartChar: afii10087
Encoding: 153 1093 310
Width: 638
VWidth: 1278
GlyphClass: 2
Flags: W
HStem: 196 652
VStem: 23 591
LayerCount: 2
Fore
SplineSet
262 530 m 1
 35 848 l 1
 148 848 l 1
 320 598 l 1
 491 848 l 1
 602 848 l 1
 376 530 l 1
 614 196 l 1
 502 196 l 1
 320 460 l 1
 135 196 l 1
 23 196 l 1
 262 530 l 1
EndSplineSet
Validated: 1
EndChar

StartChar: afii10088
Encoding: 154 1094 311
Width: 762
VWidth: 1278
GlyphClass: 2
Flags: W
HStem: 196 85<203 550> 828 20G<105 203 550 649>
VStem: 105 98<281 848> 550 99<281 848> 642 99<-29 196>
LayerCount: 2
Fore
SplineSet
741 -29 m 1xe8
 642 -29 l 1
 642 196 l 1xe8
 105 196 l 1
 105 848 l 1
 203 848 l 1
 203 281 l 1
 550 281 l 1
 550 848 l 1
 649 848 l 1
 649 281 l 1xf0
 741 281 l 1
 741 -29 l 1xe8
EndSplineSet
Validated: 1
EndChar

StartChar: afii10089
Encoding: 155 1095 312
Width: 740
VWidth: 1278
GlyphClass: 2
Flags: W
HStem: 196 21G<537 636> 414 82<213.185 474.671> 828 20G<93 191 537 636>
VStem: 93 98<516.516 848> 537 99<196 491 542.305 848>
LayerCount: 2
Fore
SplineSet
191 848 m 1
 191 610 l 2
 191 534 234.666666667 496 322 496 c 0
 358 496 392.5 501.5 425.5 512.5 c 0
 458.5 523.5 495.666666667 542.333333333 537 569 c 1
 537 848 l 1
 636 848 l 1
 636 196 l 1
 537 196 l 1
 537 491 l 1
 495 463 456.333333333 443.166666667 421 431.5 c 0
 385.666666667 419.833333333 345.666666667 414 301 414 c 0
 235.666666667 414 184.666666667 431 148 465 c 0
 111.333333333 499 93 545 93 603 c 2
 93 848 l 1
 191 848 l 1
EndSplineSet
Validated: 1
EndChar

StartChar: afii10090
Encoding: 156 1096 313
Width: 1084
VWidth: 1278
GlyphClass: 2
Flags: W
HStem: 196 85<203 492 591 880> 828 20G<105 203 492 591 880 980>
VStem: 105 98<281 848> 492 99<281 848> 880 100<281 848>
LayerCount: 2
Fore
SplineSet
591 281 m 1
 880 281 l 1
 880 848 l 1
 980 848 l 1
 980 196 l 1
 105 196 l 1
 105 848 l 1
 203 848 l 1
 203 281 l 1
 492 281 l 1
 492 848 l 1
 591 848 l 1
 591 281 l 1
EndSplineSet
Validated: 1
EndChar

StartChar: afii10091
Encoding: 157 1097 314
Width: 1092
VWidth: 1278
GlyphClass: 2
Flags: W
HStem: 196 85<203 492 591 880> 827 20G<105 203 492 591 880 979>
VStem: 105 98<281 847> 492 99<281 847> 880 99<281 847> 972 100<-28 196>
LayerCount: 2
Fore
SplineSet
591 281 m 1xf4
 880 281 l 1
 880 847 l 1
 979 847 l 1
 979 281 l 1xf8
 1072 281 l 1
 1072 -28 l 1
 972 -28 l 1
 972 196 l 1
 105 196 l 1
 105 847 l 1
 203 847 l 1
 203 281 l 1
 492 281 l 1
 492 847 l 1
 591 847 l 1
 591 281 l 1xf4
EndSplineSet
Validated: 1
EndChar

StartChar: afii10092
Encoding: 158 1098 315
Width: 846
VWidth: 1278
GlyphClass: 2
Flags: W
HStem: 196 82<332 653.555> 494 84<332 643.83> 764 84<25 233>
VStem: 233 99<278 494 578 764> 682 97<304.092 470.713>
LayerCount: 2
Fore
SplineSet
332 578 m 1
 518 578 l 2
 606.666666667 578 672.333333333 562.833333333 715 532.5 c 0
 757.666666667 502.166666667 779 456.333333333 779 395 c 0
 779 329 756.833333333 279.333333333 712.5 246 c 0
 668.166666667 212.666666667 602.333333333 196 515 196 c 2
 233 196 l 1
 233 764 l 1
 25 764 l 1
 25 848 l 1
 332 848 l 1
 332 578 l 1
682 389 m 0
 682 425.666666667 669.666666667 452.333333333 645 469 c 0
 620.333333333 485.666666667 576.666666667 494 514 494 c 2
 332 494 l 1
 332 278 l 1
 518 278 l 2
 627.333333333 278.666666667 682 315.666666667 682 389 c 0
EndSplineSet
Validated: 1
EndChar

StartChar: afii10093
Encoding: 159 1099 316
Width: 937
VWidth: 1278
GlyphClass: 2
Flags: W
HStem: 196 82<203 502.089> 494 84<203 490.862> 828 20G<105 203 734 834>
VStem: 105 98<278 494 578 848> 528 98<303.016 470.456> 734 100<196 848>
LayerCount: 2
Fore
SplineSet
203 578 m 1
 382 578 l 2
 464.666666667 578 526 562.833333333 566 532.5 c 0
 606 502.166666667 626 456.333333333 626 395 c 0
 626 329 604.833333333 279.333333333 562.5 246 c 0
 520.166666667 212.666666667 458 196 376 196 c 2
 105 196 l 1
 105 848 l 1
 203 848 l 1
 203 578 l 1
834 196 m 1
 734 196 l 1
 734 848 l 1
 834 848 l 1
 834 196 l 1
203 494 m 1
 203 278 l 1
 371 278 l 2
 475.666666667 278 528 315 528 389 c 0
 528 425 516 451.5 492 468.5 c 0
 468 485.5 426.666666667 494 368 494 c 2
 203 494 l 1
EndSplineSet
Validated: 1
EndChar

StartChar: afii10094
Encoding: 160 1100 317
Width: 720
VWidth: 1278
GlyphClass: 2
Flags: W
HStem: 196 82<203 512.679> 494 84<203 516.285> 828 20G<105 203>
VStem: 105 98<278 494 578 848> 556 98<306.22 469.212>
LayerCount: 2
Fore
SplineSet
203 578 m 1
 405 578 l 2
 571 578 654 517 654 395 c 0
 654 331 632.333333333 281.833333333 589 247.5 c 0
 545.666666667 213.166666667 482.333333333 196 399 196 c 2
 105 196 l 1
 105 848 l 1
 203 848 l 1
 203 578 l 1
203 494 m 1
 203 278 l 1
 394 278 l 2
 446 278 486 287.333333333 514 306 c 0
 542 324.666666667 556 352.333333333 556 389 c 0
 556 425 543.166666667 451.5 517.5 468.5 c 0
 491.833333333 485.5 449.666666667 494 391 494 c 2
 203 494 l 1
EndSplineSet
Validated: 1
EndChar

